<svg width="15" height="17" viewBox="0 0 15 17" fill="none" xmlns="http://www.w3.org/2000/svg">
<path d="M13.4375 1.875H11.0625V0.6875H9.875V1.875H5.125V0.6875H3.9375V1.875H1.5625C0.909375 1.875 0.375 2.40937 0.375 3.0625V14.9375C0.375 15.5906 0.909375 16.125 1.5625 16.125H13.4375C14.0906 16.125 14.625 15.5906 14.625 14.9375V3.0625C14.625 2.40937 14.0906 1.875 13.4375 1.875ZM13.4375 14.9375H1.5625V6.625H13.4375V14.9375ZM13.4375 5.4375H1.5625V3.0625H3.9375V4.25H5.125V3.0625H9.875V4.25H11.0625V3.0625H13.4375V5.4375Z" fill="#0082CB"/>
</svg>
