<svg width="78" height="48" viewBox="0 0 78 48" fill="none" xmlns="http://www.w3.org/2000/svg">
<path d="M7.48096 31.0385L20.2848 25.7604V30.3647L11.7489 34.0706V40.3593L7.48096 42.0439V31.0385ZM17.2522 5.32172C23.8788 5.32172 29.3821 10.4875 29.3821 17.4501V31.263C29.1575 36.7657 33.7623 41.1455 39.2657 41.1455C44.6568 41.1455 48.9247 36.6534 48.9247 31.263V15.8779L44.6567 17.5624V31.1508C44.6567 34.1829 42.1859 36.5412 39.1534 36.5412C36.2332 36.5412 33.6501 34.0706 33.6501 31.1508V17.4501C33.7623 8.24152 26.3497 0.829712 17.2522 0.829712C8.04253 0.829712 0.517517 8.24152 0.517517 17.4501V44.4022L5.12238 42.7176V17.4501C5.12238 10.7121 10.5134 5.32172 17.2522 5.32172ZM61.3915 41.1455C66.8948 41.1455 71.275 36.6534 71.275 31.263V7.11852L67.0072 8.80302V31.263C67.0072 34.1829 64.3116 36.6534 61.2791 36.6534C58.2467 36.6534 55.7758 34.1829 55.7758 31.263V13.4073L51.171 15.0918V31.263C51.2832 36.6534 55.7758 41.1455 61.3915 41.1455ZM73.6337 6.33242V31.263C73.6337 38.001 68.1303 43.5038 61.3915 43.5038C56.4497 43.5038 51.9572 40.4717 50.0478 36.3166C48.1385 40.4717 44.0952 43.5038 39.2657 43.5038C32.6392 43.5038 27.2482 38.001 27.2482 31.263V17.4501C27.2482 11.9474 22.7556 7.56773 17.2522 7.56773C11.8612 7.56773 7.48096 12.0597 7.48096 17.4501V28.3432L20.2848 23.0651V18.4609L11.7489 22.279V17.4501C11.7489 14.418 14.2197 12.0597 17.2522 12.0597C20.06 12.0597 22.7556 14.418 22.7556 17.4501C22.8679 17.5624 22.7556 31.263 22.7556 31.263C22.7556 40.3593 30.0559 47.9958 39.1534 47.9958C43.4213 47.9958 47.1276 46.0867 50.0478 43.5038C52.9679 46.0867 57.0113 47.9958 61.2791 47.9958C70.4888 47.9958 77.7893 40.3593 77.7893 31.263V4.64792L73.6337 6.33242Z" fill="url(#paint0_linear_1_25815)"/>
<defs>
<linearGradient id="paint0_linear_1_25815" x1="0.517517" y1="20.609" x2="74.9133" y2="20.8353" gradientUnits="userSpaceOnUse">
<stop stop-color="#91FFB7"/>
<stop offset="1" stop-color="#12F1FF"/>
</linearGradient>
</defs>
</svg>
