<svg width="15" height="17" viewBox="0 0 15 17" fill="none" xmlns="http://www.w3.org/2000/svg">
<path d="M9.875 6.8125C9.875 7.44239 9.62478 8.04648 9.17938 8.49188C8.73398 8.93728 8.12989 9.1875 7.5 9.1875C6.87011 9.1875 6.26602 8.93728 5.82062 8.49188C5.37522 8.04648 5.125 7.44239 5.125 6.8125C5.125 6.18261 5.37522 5.57852 5.82062 5.13312C6.26602 4.68772 6.87011 4.4375 7.5 4.4375C8.12989 4.4375 8.73398 4.68772 9.17938 5.13312C9.62478 5.57852 9.875 6.18261 9.875 6.8125V6.8125Z" stroke="#0082CB" stroke-width="1.5" stroke-linecap="round" stroke-linejoin="round"/>
<path d="M13.4375 6.8125C13.4375 12.4666 7.5 15.7188 7.5 15.7188C7.5 15.7188 1.5625 12.4666 1.5625 6.8125C1.5625 5.23778 2.18806 3.72755 3.30155 2.61405C4.41505 1.50056 5.92528 0.875 7.5 0.875C9.07472 0.875 10.5849 1.50056 11.6984 2.61405C12.8119 3.72755 13.4375 5.23778 13.4375 6.8125V6.8125Z" stroke="#0082CB" stroke-width="1.5" stroke-linecap="round" stroke-linejoin="round"/>
</svg>
