<svg width="10" height="8" viewBox="0 0 10 8" fill="none" xmlns="http://www.w3.org/2000/svg">
<path fill-rule="evenodd" clip-rule="evenodd" d="M0.5 4.00001C0.5 3.85082 0.559263 3.70775 0.664753 3.60226C0.770242 3.49677 0.913316 3.43751 1.0625 3.43751H7.57963L5.16425 1.02326C5.05863 0.917637 4.99929 0.774382 4.99929 0.625009C4.99929 0.475636 5.05863 0.332381 5.16425 0.226759C5.26987 0.121136 5.41313 0.0617981 5.5625 0.0617981C5.71187 0.0617981 5.85513 0.121136 5.96075 0.226759L9.33575 3.60176C9.38813 3.65401 9.4297 3.71608 9.45805 3.78442C9.48641 3.85276 9.50101 3.92602 9.50101 4.00001C9.50101 4.074 9.48641 4.14726 9.45805 4.2156C9.4297 4.28393 9.38813 4.34601 9.33575 4.39826L5.96075 7.77326C5.85513 7.87888 5.71187 7.93822 5.5625 7.93822C5.41313 7.93822 5.26987 7.87888 5.16425 7.77326C5.05863 7.66764 4.99929 7.52438 4.99929 7.37501C4.99929 7.22564 5.05863 7.08238 5.16425 6.97676L7.57963 4.56251H1.0625C0.913316 4.56251 0.770242 4.50325 0.664753 4.39776C0.559263 4.29227 0.5 4.14919 0.5 4.00001Z" fill="white"/>
</svg>
