<svg width="18" height="18" viewBox="0 0 18 18" fill="none" xmlns="http://www.w3.org/2000/svg">
<path d="M16.3887 0.290925L9.00094 7.67872L1.61314 0.290925C1.43545 0.128325 1.20188 0.04055 0.961087 0.0458854C0.72029 0.0512208 0.490836 0.149255 0.320525 0.319566C0.150215 0.489877 0.0521799 0.719331 0.0468446 0.960127C0.0415092 1.20092 0.129284 1.4345 0.291884 1.61218L7.67593 8.99998L0.29001 16.3859C0.199776 16.4719 0.127643 16.5751 0.0778516 16.6893C0.0280603 16.8036 0.00161536 16.9267 7.17197e-05 17.0513C-0.00147192 17.176 0.0219169 17.2996 0.0688628 17.4151C0.115809 17.5306 0.185364 17.6355 0.273442 17.7237C0.361519 17.8119 0.46634 17.8816 0.581743 17.9287C0.697146 17.9758 0.820803 17.9994 0.945444 17.998C1.07008 17.9967 1.19319 17.9704 1.30754 17.9208C1.42188 17.8711 1.52515 17.7991 1.61127 17.709L9.00094 10.3231L16.3887 17.7109C16.5664 17.8735 16.8 17.9613 17.0408 17.9559C17.2816 17.9506 17.511 17.8526 17.6813 17.6823C17.8517 17.512 17.9497 17.2825 17.955 17.0417C17.9604 16.8009 17.8726 16.5673 17.71 16.3896L10.3222 9.00185L17.71 1.61218C17.8002 1.52619 17.8724 1.42302 17.9221 1.30875C17.9719 1.19448 17.9984 1.07141 17.9999 0.946769C18.0015 0.82213 17.9781 0.69844 17.9311 0.582971C17.8842 0.467501 17.8146 0.362581 17.7266 0.274379C17.6385 0.186177 17.5337 0.116472 17.4183 0.0693625C17.3029 0.022253 17.1792 -0.00131073 17.0546 5.62431e-05C16.9299 0.00142322 16.8068 0.0276935 16.6925 0.0773227C16.5781 0.126952 16.4749 0.198939 16.3887 0.289051V0.290925Z" fill="#0E0D11"/>
</svg>
