<svg width="20" height="20" viewBox="0 0 20 20" fill="none" xmlns="http://www.w3.org/2000/svg">
<path d="M9.99999 6.87578C8.27968 6.87578 6.87577 8.27969 6.87577 10C6.87577 11.7203 8.27968 13.1242 9.99999 13.1242C11.7203 13.1242 13.1242 11.7203 13.1242 10C13.1242 8.27969 11.7203 6.87578 9.99999 6.87578ZM19.3703 10C19.3703 8.70625 19.382 7.42422 19.3094 6.13281C19.2367 4.63281 18.8945 3.30156 17.7976 2.20469C16.6984 1.10547 15.3695 0.765623 13.8695 0.692967C12.5758 0.620311 11.2937 0.63203 10.0023 0.63203C8.70858 0.63203 7.42655 0.620311 6.13515 0.692967C4.63515 0.765623 3.3039 1.10781 2.20702 2.20469C1.1078 3.3039 0.767958 4.63281 0.695302 6.13281C0.622645 7.42656 0.634364 8.70859 0.634364 10C0.634364 11.2914 0.622645 12.5758 0.695302 13.8672C0.767958 15.3672 1.11015 16.6984 2.20702 17.7953C3.30624 18.8945 4.63515 19.2344 6.13515 19.307C7.4289 19.3797 8.71093 19.368 10.0023 19.368C11.2961 19.368 12.5781 19.3797 13.8695 19.307C15.3695 19.2344 16.7008 18.8922 17.7976 17.7953C18.8969 16.6961 19.2367 15.3672 19.3094 13.8672C19.3844 12.5758 19.3703 11.2937 19.3703 10ZM9.99999 14.807C7.33983 14.807 5.19296 12.6602 5.19296 10C5.19296 7.33984 7.33983 5.19297 9.99999 5.19297C12.6601 5.19297 14.807 7.33984 14.807 10C14.807 12.6602 12.6601 14.807 9.99999 14.807ZM15.0039 6.11875C14.3828 6.11875 13.8812 5.61719 13.8812 4.99609C13.8812 4.375 14.3828 3.87344 15.0039 3.87344C15.625 3.87344 16.1266 4.375 16.1266 4.99609C16.1267 5.14357 16.0978 5.28964 16.0415 5.42593C15.9851 5.56222 15.9024 5.68606 15.7981 5.79034C15.6939 5.89463 15.57 5.97731 15.4337 6.03367C15.2974 6.09002 15.1514 6.11893 15.0039 6.11875Z" fill="#939393"/>
</svg>
