<svg width="17" height="17" viewBox="0 0 17 17" fill="none" xmlns="http://www.w3.org/2000/svg">
<path d="M8.5 16C7.01664 16 5.56659 15.5601 4.33323 14.736C3.09986 13.9119 2.13856 12.7406 1.57091 11.3701C1.00325 9.99968 0.854725 8.49168 1.14411 7.03682C1.4335 5.58197 2.14781 4.2456 3.1967 3.1967C4.2456 2.14781 5.58197 1.4335 7.03682 1.14411C8.49168 0.854725 9.99968 1.00325 11.3701 1.57091C12.7406 2.13856 13.9119 3.09986 14.736 4.33323C15.5601 5.56659 16 7.01664 16 8.5C16 10.4891 15.2098 12.3968 13.8033 13.8033C12.3968 15.2098 10.4891 16 8.5 16ZM8.5 2.25C7.26387 2.25 6.0555 2.61656 5.02769 3.30332C3.99988 3.99008 3.1988 4.96619 2.72576 6.10823C2.25271 7.25027 2.12894 8.50693 2.3701 9.71932C2.61125 10.9317 3.20651 12.0453 4.08059 12.9194C4.95466 13.7935 6.06831 14.3888 7.28069 14.6299C8.49307 14.8711 9.74973 14.7473 10.8918 14.2742C12.0338 13.8012 13.0099 13.0001 13.6967 11.9723C14.3834 10.9445 14.75 9.73613 14.75 8.5C14.75 6.8424 14.0915 5.25269 12.9194 4.08059C11.7473 2.90848 10.1576 2.25 8.5 2.25Z" fill="#FF2F54" stroke="#FF2F54"/>
<path d="M8.49988 9.33323C8.33479 9.33107 8.17707 9.26453 8.06032 9.14779C7.94358 9.03104 7.87704 8.87332 7.87488 8.70823V5.79156C7.87488 5.6258 7.94073 5.46683 8.05794 5.34962C8.17515 5.23241 8.33412 5.16656 8.49988 5.16656C8.66564 5.16656 8.82461 5.23241 8.94182 5.34962C9.05903 5.46683 9.12488 5.6258 9.12488 5.79156V8.70823C9.12272 8.87332 9.05618 9.03104 8.93943 9.14779C8.82269 9.26453 8.66497 9.33107 8.49988 9.33323ZM8.49988 11.8332C8.33479 11.8311 8.17707 11.7645 8.06032 11.6478C7.94358 11.531 7.87704 11.3733 7.87488 11.2082V10.7916C7.87488 10.6258 7.94073 10.4668 8.05794 10.3496C8.17515 10.2324 8.33412 10.1666 8.49988 10.1666C8.66564 10.1666 8.82461 10.2324 8.94182 10.3496C9.05903 10.4668 9.12488 10.6258 9.12488 10.7916V11.2082C9.12272 11.3733 9.05618 11.531 8.93943 11.6478C8.82269 11.7645 8.66497 11.8311 8.49988 11.8332Z" fill="#FF2F54"/>
</svg>
