<svg width="149" height="32" viewBox="0 0 149 32" fill="none" xmlns="http://www.w3.org/2000/svg">
<path d="M46.0016 30.8266C42.9357 30.8266 40.4201 29.9619 38.4548 28.2324C36.4895 26.5029 35.5068 24.1839 35.5068 21.2752V2.76196H40.8918V20.8428C40.8918 22.2841 41.298 23.4239 42.1103 24.2625C42.9488 25.101 44.2459 25.5203 46.0016 25.5203C47.7573 25.5203 49.0413 25.101 49.8536 24.2625C50.6922 23.4239 51.1114 22.2841 51.1114 20.8428V2.76196H56.5357V21.2752C56.5357 24.1839 55.553 26.5029 53.5877 28.2324C51.6224 29.9619 49.0937 30.8266 46.0016 30.8266Z" fill="#0E0D11"/>
<path d="M81.5864 2.76196V7.95039H74.1575V30.2763H68.7332V7.95039H61.3436V2.76196H81.5864Z" fill="#0E0D11"/>
<path d="M103.206 16.0082C105.617 17.397 106.823 19.4933 106.823 22.2972C106.823 24.6293 105.997 26.5422 104.346 28.0359C102.695 29.5295 100.665 30.2763 98.2537 30.2763H86.5798V2.76196H97.4283C99.7867 2.76196 101.765 3.49568 103.364 4.96311C104.988 6.40434 105.801 8.25174 105.801 10.5053C105.801 12.7851 104.936 14.6193 103.206 16.0082ZM97.4283 7.83247H92.004V13.8856H97.4283C98.2668 13.8856 98.9613 13.5974 99.5115 13.0209C100.088 12.4444 100.376 11.7238 100.376 10.8591C100.376 9.99431 100.101 9.2737 99.5508 8.69721C99.0006 8.12071 98.293 7.83247 97.4283 7.83247ZM98.2537 25.2058C99.1709 25.2058 99.9308 24.9045 100.534 24.3018C101.136 23.6729 101.438 22.8868 101.438 21.9434C101.438 21.0263 101.136 20.2663 100.534 19.6637C99.9308 19.0348 99.1709 18.7203 98.2537 18.7203H92.004V25.2058H98.2537Z" fill="#0E0D11"/>
<path d="M112.344 2.76196H117.768V30.2763H112.344V2.76196Z" fill="#0E0D11"/>
<path d="M135.754 2.76196C139.527 2.76196 142.672 4.08527 145.187 6.73189C147.729 9.37852 149 12.6409 149 16.5192C149 20.3974 147.729 23.6598 145.187 26.3064C142.672 28.953 139.527 30.2763 135.754 30.2763H124.827V2.76196H135.754ZM135.754 25.0879C138.138 25.0879 140.077 24.3018 141.571 22.7295C143.065 21.1311 143.812 19.061 143.812 16.5192C143.812 13.9773 143.065 11.9203 141.571 10.3481C140.077 8.74962 138.138 7.95039 135.754 7.95039H130.251V25.0879H135.754Z" fill="#0E0D11"/>
<path fill-rule="evenodd" clip-rule="evenodd" d="M15.018 26.012C20.5474 26.012 25.0299 21.5295 25.0299 16C25.0299 10.4706 20.5474 5.98804 15.018 5.98804C9.4885 5.98804 5.00598 10.4706 5.00598 16C5.00598 21.5295 9.4885 26.012 15.018 26.012ZM15.018 31.018C23.3121 31.018 30.0359 24.2942 30.0359 16C30.0359 7.70582 23.3121 0.982056 15.018 0.982056C6.72377 0.982056 0 7.70582 0 16C0 24.2942 6.72377 31.018 15.018 31.018Z" fill="#0082CB"/>
</svg>
