<svg width="333" height="334" viewBox="0 0 333 334" fill="none" xmlns="http://www.w3.org/2000/svg">
<g clip-path="url(#clip0_85_56663)">
<path opacity="0.9" d="M24.5 77C38.031 77 49 66.031 49 52.5C49 38.969 38.031 28 24.5 28C10.969 28 0 38.969 0 52.5C0 66.031 10.969 77 24.5 77Z" fill="url(#paint0_linear_85_56663)" fill-opacity="0.7"/>
</g>
<g opacity="0.2" clip-path="url(#clip1_85_56663)">
<path d="M120.273 167.002C120.273 154.121 130.72 143.638 143.566 143.638C156.412 143.638 166.859 154.117 166.859 167.002C166.859 179.886 156.412 190.365 143.566 190.365C130.72 190.365 120.273 179.886 120.273 167.002ZM166.143 167.002C166.143 154.516 156.015 144.357 143.566 144.357C131.117 144.357 120.989 154.516 120.989 167.002C120.989 179.488 131.117 189.647 143.566 189.647C156.015 189.647 166.143 179.488 166.143 167.002Z" fill="url(#paint1_radial_85_56663)"/>
<path d="M115.576 171.491C115.576 152.893 130.66 137.763 149.202 137.763C167.744 137.763 182.828 152.893 182.828 171.491C182.828 190.089 167.744 205.218 149.202 205.218C130.66 205.218 115.576 190.089 115.576 171.491ZM182.467 171.491C182.467 153.094 167.544 138.123 149.198 138.123C130.853 138.123 115.93 153.09 115.93 171.491C115.93 189.891 130.853 204.859 149.198 204.859C167.544 204.859 182.467 189.891 182.467 171.491Z" fill="url(#paint2_radial_85_56663)"/>
<path d="M96.3818 167.002C96.3818 140.906 117.549 119.679 143.563 119.679C169.577 119.679 190.744 140.909 190.744 167.002C190.744 193.094 169.577 214.325 143.563 214.325C117.549 214.325 96.3818 193.094 96.3818 167.002ZM190.032 167.002C190.032 141.304 169.187 120.397 143.567 120.397C117.946 120.397 97.1014 141.304 97.1014 167.002C97.1014 192.699 117.946 213.606 143.567 213.606C169.187 213.606 190.032 192.699 190.032 167.002Z" fill="url(#paint3_radial_85_56663)"/>
<path d="M89.2393 165.142C89.2393 131.978 116.138 104.999 149.202 104.999C182.266 104.999 209.165 131.978 209.165 165.142C209.165 198.305 182.266 225.285 149.202 225.285C116.138 225.285 89.2393 198.305 89.2393 165.142ZM207.733 165.142C207.733 132.772 181.475 106.435 149.202 106.435C116.929 106.435 90.6715 132.772 90.6715 165.142C90.6715 197.511 116.929 223.848 149.202 223.848C181.475 223.848 207.733 197.511 207.733 165.142Z" fill="url(#paint4_radial_85_56663)"/>
<path d="M63.1134 171.491C63.1134 130.01 96.7575 96.2617 138.117 96.2617C179.477 96.2617 213.117 130.007 213.117 171.491C213.117 212.974 179.473 246.72 138.117 246.72C96.7611 246.72 63.1134 212.974 63.1134 171.491ZM212.401 171.491C212.401 130.405 179.076 96.9799 138.117 96.9799C97.1585 96.9799 63.8295 130.405 63.8295 171.491C63.8295 212.576 97.1549 246.001 138.117 246.001C179.079 246.001 212.401 212.576 212.401 171.491Z" fill="url(#paint5_radial_85_56663)"/>
<path d="M53.7976 167.002C53.7976 142.953 63.1351 120.343 80.0878 103.336C97.0441 86.3289 119.586 76.967 143.563 76.967C167.54 76.967 190.082 86.3324 207.038 103.336C223.994 120.343 233.328 142.953 233.328 167.002C233.328 191.051 223.991 213.66 207.038 230.668C190.082 247.675 167.54 257.04 143.563 257.04C119.586 257.04 97.0441 247.675 80.0878 230.668C63.1351 213.66 53.7976 191.051 53.7976 167.002ZM231.542 167.002C231.542 118.347 192.076 78.7625 143.566 78.7625C95.057 78.7625 55.5914 118.347 55.5914 167.002C55.5914 215.657 95.057 255.241 143.566 255.241C192.076 255.241 231.542 215.657 231.542 167.002Z" fill="url(#paint6_radial_85_56663)"/>
<path d="M36.2144 181.133C36.2144 150.864 47.9685 122.405 69.3071 100.998C90.6456 79.5956 119.02 67.8062 149.201 67.8062C179.383 67.8062 207.754 79.5956 229.096 100.998C250.434 122.401 262.188 150.86 262.188 181.133C262.188 211.405 250.434 239.861 229.096 261.267C207.757 282.67 179.383 294.459 149.201 294.459C119.02 294.459 90.6492 282.67 69.3071 261.267C47.9685 239.861 36.2144 211.405 36.2144 181.133ZM260.04 181.133C260.04 119.833 210.317 69.9608 149.201 69.9608C88.0857 69.9608 38.3625 119.833 38.3625 181.133C38.3625 242.432 88.0857 292.304 149.201 292.304C210.317 292.304 260.04 242.432 260.04 181.133Z" fill="url(#paint7_radial_85_56663)"/>
<path d="M8.95813 167.002C8.95813 148.777 12.517 131.095 19.5379 114.45C26.319 98.3732 36.0216 83.9336 48.3844 71.5373C60.7471 59.1374 75.14 49.4021 91.1689 42.6042C107.764 35.5622 125.393 31.9927 143.563 31.9927C161.733 31.9927 179.362 35.5622 195.957 42.6042C211.986 49.4057 226.383 59.1374 238.742 71.5373C251.104 83.9372 260.811 98.3732 267.588 114.45C274.609 131.095 278.168 148.777 278.168 167.002C278.168 185.226 274.609 202.909 267.588 219.553C260.807 235.63 251.104 250.07 238.742 262.466C226.379 274.866 211.986 284.602 195.957 291.399C179.362 298.441 161.733 302.011 143.563 302.011C125.393 302.011 107.764 298.441 91.1689 291.399C75.14 284.598 60.7436 274.866 48.3844 262.466C36.0216 250.066 26.3154 235.627 19.5379 219.553C12.517 202.909 8.95813 185.226 8.95813 167.002ZM276.739 167.002C276.739 93.3494 216.999 33.4255 143.563 33.4255C70.1275 33.4255 10.3867 93.3458 10.3867 167.002C10.3867 240.658 70.1276 300.578 143.563 300.578C216.999 300.578 276.739 240.654 276.739 167.002Z" fill="url(#paint8_radial_85_56663)"/>
<path d="M1.99148e-06 167.002C1.72263e-06 144.457 4.40381 122.588 13.086 101.997C21.4711 82.1094 33.4758 64.2511 48.7673 48.9137C64.0587 33.5763 81.8635 21.5355 101.691 13.1253C122.217 4.41699 144.021 2.25355e-06 166.498 1.98551e-06C188.975 1.71748e-06 210.779 4.41699 231.309 13.1253C251.136 21.5355 268.941 33.5763 284.233 48.9137C299.524 64.2511 311.529 82.1094 319.914 101.997C328.596 122.584 333 144.457 333 167.002C333 189.546 328.596 211.416 319.914 232.007C311.529 251.894 299.524 269.753 284.233 285.09C268.941 300.427 251.136 312.468 231.309 320.878C210.779 329.587 188.975 334.004 166.498 334.004C144.021 334.004 122.217 329.587 101.688 320.878C81.86 312.468 64.0551 300.427 48.7637 285.09C33.4722 269.753 21.4675 251.894 13.0824 232.007C4.40021 211.416 -0.00353778 189.546 -0.00353805 167.002L1.99148e-06 167.002ZM330.852 167.002C330.852 76.1051 257.123 2.15463 166.498 2.15463C75.8737 2.15463 2.14462 76.1051 2.14462 167.002C2.14463 257.898 75.8737 331.849 166.498 331.849C257.123 331.849 330.852 257.898 330.852 167.002Z" fill="url(#paint9_radial_85_56663)"/>
</g>
<defs>
<linearGradient id="paint0_linear_85_56663" x1="41.766" y1="69.766" x2="6.84343" y2="34.8434" gradientUnits="userSpaceOnUse">
<stop stop-color="#010101" stop-opacity="0.4"/>
<stop offset="0.09" stop-color="#020507" stop-opacity="0.42"/>
<stop offset="0.22" stop-color="#051119" stop-opacity="0.48"/>
<stop offset="0.38" stop-color="#0A2637" stop-opacity="0.58"/>
<stop offset="0.54" stop-color="#114261" stop-opacity="0.71"/>
<stop offset="0.72" stop-color="#1A6696" stop-opacity="0.89"/>
<stop offset="0.81" stop-color="#207AB3" stop-opacity="0.98"/>
<stop offset="1" stop-color="#0D82C6"/>
</linearGradient>
<radialGradient id="paint1_radial_85_56663" cx="0" cy="0" r="1" gradientUnits="userSpaceOnUse" gradientTransform="translate(143.877 163.834) rotate(90) scale(197.605 197.013)">
<stop stop-color="white"/>
<stop offset="0.09" stop-color="#F7F7F7"/>
<stop offset="0.22" stop-color="#E2E2E2"/>
<stop offset="0.38" stop-color="#C0C0C0"/>
<stop offset="0.56" stop-color="#909090"/>
<stop offset="0.76" stop-color="#535353"/>
<stop offset="0.97" stop-color="#0A0A0A" stop-opacity="0"/>
<stop offset="1" stop-opacity="0"/>
</radialGradient>
<radialGradient id="paint2_radial_85_56663" cx="0" cy="0" r="1" gradientUnits="userSpaceOnUse" gradientTransform="translate(143.878 163.835) rotate(90) scale(197.605 197.013)">
<stop stop-color="white"/>
<stop offset="0.09" stop-color="#F7F7F7"/>
<stop offset="0.22" stop-color="#E2E2E2"/>
<stop offset="0.38" stop-color="#C0C0C0"/>
<stop offset="0.56" stop-color="#909090"/>
<stop offset="0.76" stop-color="#535353"/>
<stop offset="0.97" stop-color="#0A0A0A" stop-opacity="0"/>
<stop offset="1" stop-opacity="0"/>
</radialGradient>
<radialGradient id="paint3_radial_85_56663" cx="0" cy="0" r="1" gradientUnits="userSpaceOnUse" gradientTransform="translate(143.878 163.834) rotate(90) scale(197.605 197.013)">
<stop stop-color="white"/>
<stop offset="0.09" stop-color="#F7F7F7"/>
<stop offset="0.22" stop-color="#E2E2E2"/>
<stop offset="0.38" stop-color="#C0C0C0"/>
<stop offset="0.56" stop-color="#909090"/>
<stop offset="0.76" stop-color="#535353"/>
<stop offset="0.97" stop-color="#0A0A0A" stop-opacity="0"/>
<stop offset="1"/>
<stop offset="1" stop-opacity="0"/>
</radialGradient>
<radialGradient id="paint4_radial_85_56663" cx="0" cy="0" r="1" gradientUnits="userSpaceOnUse" gradientTransform="translate(332.821 163.834) rotate(90) scale(197.605 197.013)">
<stop stop-color="white"/>
<stop offset="0.09" stop-color="#F7F7F7"/>
<stop offset="0.22" stop-color="#E2E2E2"/>
<stop offset="0.38" stop-color="#C0C0C0"/>
<stop offset="0.56" stop-color="#909090"/>
<stop offset="0.76" stop-color="#535353"/>
<stop offset="0.97" stop-color="#0A0A0A" stop-opacity="0"/>
<stop offset="1" stop-opacity="0"/>
</radialGradient>
<radialGradient id="paint5_radial_85_56663" cx="0" cy="0" r="1" gradientUnits="userSpaceOnUse" gradientTransform="translate(332.821 163.835) rotate(90) scale(197.605 197.013)">
<stop stop-color="white"/>
<stop offset="0.09" stop-color="#F7F7F7"/>
<stop offset="0.22" stop-color="#E2E2E2"/>
<stop offset="0.38" stop-color="#C0C0C0"/>
<stop offset="0.56" stop-color="#909090"/>
<stop offset="0.76" stop-color="#535353"/>
<stop offset="0.97" stop-color="#0A0A0A" stop-opacity="0"/>
<stop offset="1" stop-opacity="0"/>
</radialGradient>
<radialGradient id="paint6_radial_85_56663" cx="0" cy="0" r="1" gradientUnits="userSpaceOnUse" gradientTransform="translate(143.878 163.834) rotate(90) scale(197.605 197.013)">
<stop stop-color="white"/>
<stop offset="0.09" stop-color="#F7F7F7"/>
<stop offset="0.22" stop-color="#E2E2E2"/>
<stop offset="0.38" stop-color="#C0C0C0"/>
<stop offset="0.56" stop-color="#909090"/>
<stop offset="0.76" stop-color="#535353"/>
<stop offset="0.97" stop-color="#0A0A0A" stop-opacity="0"/>
<stop offset="1" stop-opacity="0"/>
</radialGradient>
<radialGradient id="paint7_radial_85_56663" cx="0" cy="0" r="1" gradientUnits="userSpaceOnUse" gradientTransform="translate(332.821 163.834) rotate(90) scale(197.605 197.013)">
<stop stop-color="white"/>
<stop offset="0.09" stop-color="#F7F7F7"/>
<stop offset="0.22" stop-color="#E2E2E2"/>
<stop offset="0.38" stop-color="#C0C0C0"/>
<stop offset="0.56" stop-color="#909090"/>
<stop offset="0.76" stop-color="#535353"/>
<stop offset="0.97" stop-color="#0A0A0A" stop-opacity="0"/>
<stop offset="1" stop-opacity="0"/>
</radialGradient>
<radialGradient id="paint8_radial_85_56663" cx="0" cy="0" r="1" gradientUnits="userSpaceOnUse" gradientTransform="translate(143.878 163.835) rotate(90) scale(197.605 197.013)">
<stop stop-color="white"/>
<stop offset="0.09" stop-color="#F7F7F7"/>
<stop offset="0.22" stop-color="#E2E2E2"/>
<stop offset="0.38" stop-color="#C0C0C0"/>
<stop offset="0.56" stop-color="#909090"/>
<stop offset="0.76" stop-color="#535353"/>
<stop offset="0.97" stop-color="#0A0A0A" stop-opacity="0"/>
<stop offset="1" stop-opacity="0"/>
</radialGradient>
<radialGradient id="paint9_radial_85_56663" cx="0" cy="0" r="1" gradientUnits="userSpaceOnUse" gradientTransform="translate(332.821 163.834) rotate(90) scale(197.605 197.013)">
<stop stop-color="white"/>
<stop offset="0.09" stop-color="#F7F7F7"/>
<stop offset="0.22" stop-color="#E2E2E2"/>
<stop offset="0.38" stop-color="#C0C0C0"/>
<stop offset="0.56" stop-color="#909090"/>
<stop offset="0.76" stop-color="#535353"/>
<stop offset="0.97" stop-color="#0A0A0A" stop-opacity="0"/>
<stop offset="1" stop-opacity="0"/>
</radialGradient>
<clipPath id="clip0_85_56663">
<rect width="49" height="49" fill="white" transform="translate(0 28)"/>
</clipPath>
<clipPath id="clip1_85_56663">
<rect width="334" height="333" fill="white" transform="translate(333) rotate(90)"/>
</clipPath>
</defs>
</svg>
