<svg width="215" height="43" viewBox="0 0 215 43" fill="none" xmlns="http://www.w3.org/2000/svg">
<path d="M66.7023 42.7261C62.3131 42.7261 58.7117 41.4881 55.8981 39.0122C53.0845 36.5362 51.6777 33.2162 51.6777 29.0521V2.54817H59.3869V28.4331C59.3869 30.4964 59.9684 32.1283 61.1314 33.3287C62.3318 34.5292 64.1888 35.1294 66.7023 35.1294C69.2157 35.1294 71.0539 34.5292 72.2169 33.3287C73.4173 32.1283 74.0176 30.4964 74.0176 28.4331V2.54817H81.783V29.0521C81.783 33.2162 80.3763 36.5362 77.5627 39.0122C74.7491 41.4881 71.129 42.7261 66.7023 42.7261Z" fill="white"/>
<path d="M117.646 2.54817V9.97603H107.011V41.9383H99.2453V9.97603H88.6662V2.54817H117.646Z" fill="white"/>
<path d="M148.598 21.5117C152.049 23.5 153.775 26.5011 153.775 30.5152C153.775 33.8539 152.593 36.5925 150.23 38.7308C147.866 40.8691 144.959 41.9383 141.507 41.9383H124.795V2.54817H140.326C143.702 2.54817 146.534 3.59857 148.823 5.69938C151.149 7.76267 152.312 10.4074 152.312 13.6337C152.312 16.8974 151.074 19.5234 148.598 21.5117ZM140.326 9.80721H132.56V18.473H140.326C141.526 18.473 142.52 18.0604 143.308 17.2351C144.133 16.4097 144.546 15.3781 144.546 14.1401C144.546 12.9021 144.152 11.8705 143.364 11.0452C142.577 10.2199 141.564 9.80721 140.326 9.80721ZM141.507 34.6793C142.82 34.6793 143.908 34.2478 144.771 33.385C145.634 32.4847 146.065 31.3592 146.065 30.0087C146.065 28.6957 145.634 27.6078 144.771 26.745C143.908 25.8446 142.82 25.3944 141.507 25.3944H132.56V34.6793H141.507Z" fill="white"/>
<path d="M161.679 2.54817H169.445V41.9383H161.679V2.54817Z" fill="white"/>
<path d="M195.193 2.54817C200.595 2.54817 205.097 4.44265 208.698 8.2316C212.337 12.0206 214.157 16.6911 214.157 22.2432C214.157 27.7954 212.337 32.4659 208.698 36.2549C205.097 40.0438 200.595 41.9383 195.193 41.9383H179.55V2.54817H195.193ZM195.193 34.5104C198.607 34.5104 201.383 33.385 203.521 31.1341C205.66 28.8458 206.729 25.8821 206.729 22.2432C206.729 18.6043 205.66 15.6595 203.521 13.4086C201.383 11.1202 198.607 9.97603 195.193 9.97603H187.315V34.5104H195.193Z" fill="white"/>
<path fill-rule="evenodd" clip-rule="evenodd" d="M22.3438 35.8333C30.2598 35.8333 36.6771 29.4161 36.6771 21.5C36.6771 13.5839 30.2598 7.16667 22.3438 7.16667C14.4277 7.16667 8.01042 13.5839 8.01042 21.5C8.01042 29.4161 14.4277 35.8333 22.3438 35.8333ZM22.3438 43C34.2179 43 43.8438 33.3741 43.8438 21.5C43.8438 9.62588 34.2179 0 22.3438 0C10.4696 0 0.84375 9.62588 0.84375 21.5C0.84375 33.3741 10.4696 43 22.3438 43Z" fill="white"/>
</svg>
