<svg width="71" height="58" viewBox="0 0 71 58" fill="none" xmlns="http://www.w3.org/2000/svg">
<g clip-path="url(#clip0_237_122019)">
<path d="M22.0061 40.9184C20.577 40.0487 19.145 39.4458 17.7072 39.0979C19.2784 38.4283 20.5944 37.2224 21.3974 35.6281C21.9163 34.5903 22.1801 33.4743 22.1801 32.3177C22.1801 28.2536 18.8696 24.946 14.8026 24.946C10.7356 24.946 7.43391 28.2507 7.43391 32.3177C7.43391 33.4772 7.6977 34.5903 8.21658 35.631C9.01665 37.2311 10.3356 38.437 11.9154 39.1066C10.4863 39.4545 9.06013 40.0574 7.63972 40.9213C2.70018 43.9186 0.5 48.69 0.5 56.3805C0.5 57.0907 1.07396 57.6647 1.78416 57.6647C2.49437 57.6647 3.06833 57.0907 3.06833 56.3805C3.06833 47.8523 6.05118 44.8868 8.97027 43.1128C12.9619 40.6865 16.681 40.6865 20.6727 43.1128C21.2785 43.4838 22.0699 43.2896 22.438 42.6837C22.8062 42.0779 22.6149 41.2894 22.009 40.9184H22.0061ZM10.5124 34.4802C10.1733 33.8019 10.0022 33.0743 10.0022 32.3177C10.0022 29.6711 12.156 27.5173 14.8026 27.5173C17.4492 27.5173 19.6117 29.6711 19.6117 32.3177C19.6117 33.0743 19.4407 33.8019 19.1015 34.4773C18.2783 36.1093 16.6318 37.1239 14.8026 37.1239C12.9735 37.1239 11.327 36.1093 10.5124 34.4802Z" fill="url(#paint0_linear_237_122019)"/>
<path d="M63.363 40.9184C61.9426 40.0546 60.5164 39.4545 59.0873 39.1038C60.6642 38.4342 61.9861 37.2283 62.7861 35.6281C63.305 34.5904 63.5688 33.4743 63.5688 32.3148C63.5688 28.2507 60.2642 24.9432 56.2001 24.9432C52.136 24.9432 48.8226 28.2478 48.8226 32.3148C48.8226 33.4743 49.0864 34.5875 49.6053 35.631C50.4083 37.2225 51.7214 38.4255 53.2926 39.0951C51.8548 39.4429 50.4228 40.0459 48.9937 40.9155C48.3878 41.2837 48.1965 42.0721 48.5647 42.6809C48.9328 43.2867 49.7242 43.4809 50.33 43.1099C54.3217 40.6807 58.0408 40.6807 62.0324 43.1099C64.9515 44.884 67.9344 47.8494 67.9344 56.3777C67.9344 57.0879 68.5083 57.6618 69.2185 57.6618C69.9287 57.6618 70.5027 57.0879 70.5027 56.3777C70.5027 48.6843 68.3025 43.9158 63.3688 40.9155L63.363 40.9184ZM51.8983 34.4802C51.5591 33.8019 51.3881 33.0743 51.3881 32.3177C51.3881 29.6711 53.5448 27.5173 56.1972 27.5173C58.8496 27.5173 60.9976 29.6711 60.9976 32.3177C60.9976 33.0743 60.8265 33.8019 60.4874 34.4802C59.6728 36.1122 58.0292 37.1239 56.1972 37.1239C54.3651 37.1239 52.7215 36.1093 51.9012 34.4802H51.8983Z" fill="url(#paint1_linear_237_122019)"/>
<path d="M42.7064 40.9184C41.2773 40.0487 39.8424 39.4458 38.4075 39.0979C39.9786 38.4283 41.2947 37.2224 42.0976 35.6281C42.6165 34.5903 42.8803 33.4743 42.8803 32.3177C42.8803 28.2536 39.5699 24.946 35.5029 24.946C31.4359 24.946 28.1342 28.2507 28.1342 32.3177C28.1342 33.4772 28.398 34.5903 28.9168 35.631C29.7169 37.2311 31.0359 38.437 32.6157 39.1066C31.1866 39.4545 29.7604 40.0574 28.34 40.9213C23.4062 43.9215 21.2061 48.69 21.2061 56.3834C21.2061 57.0936 21.78 57.6676 22.4902 57.6676C23.2004 57.6676 23.7744 57.0936 23.7744 56.3834C23.7744 47.8552 26.7572 44.8897 29.6763 43.1157C33.668 40.6865 37.3871 40.6865 41.3787 43.1157C44.2978 44.8897 47.2807 47.8552 47.2807 56.3834C47.2807 57.0936 47.8546 57.6676 48.5648 57.6676C49.275 57.6676 49.849 57.0936 49.849 56.3834C49.849 48.69 47.6488 43.9215 42.7122 40.9213L42.7064 40.9184ZM31.2127 34.4802C30.8735 33.8019 30.7025 33.0743 30.7025 32.3177C30.7025 29.6711 32.8563 27.5173 35.5029 27.5173C38.1495 27.5173 40.312 29.6711 40.312 32.3177C40.312 33.0743 40.141 33.8019 39.8018 34.4773C38.9785 36.1093 37.332 37.1239 35.5029 37.1239C33.6738 37.1239 32.0272 36.1093 31.2127 34.4802Z" fill="url(#paint2_linear_237_122019)"/>
<path d="M58.328 2.61089C58.3049 2.5732 58.273 2.53842 58.2411 2.50653C58.0382 2.27463 57.757 2.12099 57.4439 2.08331L56.9105 2.01663L49.2085 1.03105C48.504 0.944082 47.8605 1.43977 47.7707 2.14418C47.6837 2.84859 48.1794 3.49212 48.8838 3.58198L53.7509 4.19942L44.1559 11.2087L36.5581 0.860017C36.1552 0.315044 35.4015 0.173003 34.8304 0.535352L14.1186 13.6669C13.5185 14.0466 13.3417 14.8438 13.7215 15.4409C13.965 15.8265 14.3824 16.0352 14.8056 16.0352C15.0433 16.0352 15.2839 15.9743 15.4926 15.8381L35.1928 3.34428L42.8514 13.7712C43.2746 14.3394 44.0747 14.464 44.6458 14.0466L55.3829 6.1851L54.2552 11.6203C54.1132 12.3131 54.5625 12.9915 55.2524 13.1393C55.3452 13.1567 55.4293 13.1625 55.5162 13.1625C56.1105 13.1625 56.6496 12.7451 56.7714 12.1392L58.5397 3.61097C58.6121 3.26311 58.5339 2.89497 58.3251 2.60799L58.328 2.61089Z" fill="url(#paint3_linear_237_122019)"/>
</g>
<defs>
<linearGradient id="paint0_linear_237_122019" x1="30.7379" y1="47.9008" x2="-12.2207" y2="48.1496" gradientUnits="userSpaceOnUse">
<stop stop-color="#0082CB"/>
<stop offset="1" stop-color="#041A26"/>
</linearGradient>
<linearGradient id="paint1_linear_237_122019" x1="78.6154" y1="47.8979" x2="35.6567" y2="48.1467" gradientUnits="userSpaceOnUse">
<stop stop-color="#0082CB"/>
<stop offset="1" stop-color="#041A26"/>
</linearGradient>
<linearGradient id="paint2_linear_237_122019" x1="60.3515" y1="47.9028" x2="4.73931" y2="48.3197" gradientUnits="userSpaceOnUse">
<stop stop-color="#0082CB"/>
<stop offset="1" stop-color="#041A26"/>
</linearGradient>
<linearGradient id="paint3_linear_237_122019" x1="75.0826" y1="11.35" x2="-12.3267" y2="13.4976" gradientUnits="userSpaceOnUse">
<stop stop-color="#0082CB"/>
<stop offset="1" stop-color="#041A26"/>
</linearGradient>
<clipPath id="clip0_237_122019">
<rect width="70" height="57.3294" fill="white" transform="translate(0.5 0.335327)"/>
</clipPath>
</defs>
</svg>
