<svg width="71" height="70" viewBox="0 0 71 70" fill="none" xmlns="http://www.w3.org/2000/svg">
<path d="M61.3054 34.552C62.7895 34.0282 64.2107 33.4699 65.6684 33.0375C66.3059 32.8487 67.0225 32.869 67.7006 32.8771C69.4182 32.8954 70.4983 33.9612 70.5023 35.691C70.5084 38.5434 69.5948 41.0609 67.5829 43.1236C66.716 44.0108 65.8186 44.8716 64.8969 45.7C64.4665 46.0877 64.2878 46.4836 64.3142 47.0744C64.5984 53.2219 64.8644 59.3715 65.1182 65.521C65.1974 67.4355 63.9061 68.7633 62.1378 68.6435C60.938 68.5623 59.998 67.7624 59.6143 66.463C58.5464 62.8492 57.4866 59.2354 56.4207 55.6216C56.2806 55.1445 56.1263 54.6715 55.9497 54.103C54.6158 55.3537 53.3652 56.5332 52.1065 57.7026C51.067 58.669 50.0032 59.607 48.9881 60.5957C48.7932 60.7865 48.6612 61.1601 48.6815 61.4362C48.8175 63.2025 48.9982 64.9668 49.1789 66.729C49.3251 68.142 48.7668 69.2241 47.6096 69.7094C46.4604 70.1905 45.2403 69.8535 44.4099 68.6821C43.4293 67.3015 42.5157 65.8682 41.6184 64.4308C40.9342 63.3324 40.0592 62.4675 38.9608 61.7834C37.5661 60.9124 36.1936 60.0029 34.8395 59.069C33.9076 58.4274 33.3269 57.5544 33.5198 56.3606C33.7452 54.9679 34.9044 54.0523 36.3439 54.1619C38.1101 54.2939 39.8785 54.4401 41.6326 54.6796C42.4934 54.7974 42.9441 54.434 43.3867 53.6442H42.4284C29.5609 53.6442 16.6954 53.6442 3.82783 53.6442C1.97424 53.6442 0.75814 52.692 0.528725 51.0699C0.490151 50.7958 0.498272 50.5136 0.498272 50.2355C0.504362 38.5779 0.504362 26.9265 0.504362 15.2751C0.504362 12.9647 1.6555 11.8054 3.94762 11.8054C7.06198 11.8054 10.1763 11.8054 13.4044 11.8054C13.4044 11.5049 13.4044 11.237 13.4044 10.971C13.4044 8.43728 13.4003 5.90559 13.4044 3.37188C13.4105 1.26045 14.5941 0.0788574 16.7035 0.0788574C26.1501 0.0788574 35.5988 0.0788574 45.0454 0.0788574C47.2685 0.0788574 48.4115 1.21984 48.4156 3.44293C48.4196 5.92589 48.4156 8.40885 48.4156 10.8898C48.4156 11.1618 48.4156 11.4359 48.4156 11.8034C48.7627 11.8034 49.0327 11.8034 49.3028 11.8034C52.1897 11.8034 55.0767 11.7993 57.9657 11.8034C60.1299 11.8074 61.3034 12.9769 61.3034 15.1309C61.3054 21.3373 61.3034 27.5437 61.3034 33.7501C61.3034 34.0526 61.3034 34.3551 61.3034 34.55L61.3054 34.552ZM2.66249 29.1496C2.64828 29.4013 2.63406 29.5252 2.63406 29.649C2.63406 36.564 2.63 43.4809 2.63406 50.3959C2.63406 51.2912 2.88175 51.5104 3.85829 51.5104C17.5359 51.5125 31.2155 51.5145 44.8931 51.4942C45.2423 51.4942 45.6748 51.2973 45.9265 51.0496C46.8665 50.1279 47.7476 49.1473 48.649 48.187C48.8602 47.9616 49.0612 47.7261 49.3109 47.4419C48.2795 47.1353 47.3842 46.8694 46.4868 46.6054C43.3583 45.6857 40.2277 44.7661 37.0991 43.8464C35.3957 43.3449 34.5187 42.074 34.807 40.5249C35.079 39.053 36.3012 38.1942 38.0168 38.2693C43.608 38.515 49.2073 38.6673 54.7884 39.0611C56.5892 39.189 57.8642 38.781 58.8103 37.3131C59.0255 36.9781 59.2326 36.5619 59.2407 36.1782C59.2833 34.1013 59.261 32.0244 59.259 29.9475C59.259 29.7099 59.2305 29.4724 59.2082 29.1476C51.4304 31.1717 43.6141 32.2802 35.6779 32.6213C35.6637 32.9299 35.6556 33.1309 35.6475 33.3298C35.5703 35.2179 34.3827 36.3772 32.4966 36.3914C31.4328 36.3995 30.3689 36.4117 29.3051 36.3873C27.5185 36.3488 26.3146 35.1631 26.2273 33.3907C26.2151 33.1471 26.1988 32.9014 26.1806 32.605C18.2302 32.2254 10.4342 31.0844 2.66452 29.1496H2.66249ZM26.1745 30.4043C26.1988 30.1911 26.2151 30.0673 26.2252 29.9434C26.4019 27.9193 27.5124 26.896 29.5487 26.8859C30.2836 26.8818 31.0206 26.9326 31.7515 26.8757C34.0781 26.6951 35.8058 27.8868 35.6861 30.3373C35.6861 30.3576 35.7145 30.3779 35.7835 30.4692C43.6933 30.1566 51.5137 28.9628 59.2184 26.9509C59.2346 26.7702 59.2569 26.6443 59.2569 26.5205C59.2569 22.7219 59.263 18.9213 59.2569 15.1228C59.2569 14.197 58.9646 13.9331 58.0023 13.9331C39.9942 13.9331 21.9882 13.9331 3.9801 13.9331C2.87566 13.9331 2.63609 14.1727 2.63406 15.2608C2.63406 18.9092 2.63406 22.5554 2.63406 26.2037C2.63406 26.4494 2.63406 26.693 2.63406 26.9488C10.4078 28.8308 18.1896 30.047 26.1765 30.4063L26.1745 30.4043ZM48.8114 40.8457C44.2759 40.6427 41.0621 40.5006 37.8483 40.3544C37.3854 40.3341 36.9387 40.3767 36.8575 40.931C36.7763 41.4872 37.1965 41.6436 37.6412 41.7694C38.638 42.0517 39.6288 42.3562 40.6236 42.6506C44.1399 43.688 47.6583 44.7194 51.1726 45.7629C52.4455 46.1425 52.6567 46.9059 51.7796 47.8764C51.3553 48.3453 50.9148 48.8001 50.4864 49.2671C48.2958 51.6566 46.0991 54.0381 43.9267 56.4419C43.5146 56.8987 43.0456 56.9636 42.4914 56.9149C40.5484 56.7464 38.6055 56.5779 36.6606 56.45C36.3621 56.4297 36.0474 56.6225 35.7409 56.7159C35.9134 56.988 36.0231 57.3494 36.2687 57.5179C37.9356 58.667 39.643 59.7572 41.3057 60.9124C41.7909 61.2494 42.2437 61.6859 42.5848 62.1671C43.7663 63.842 44.8789 65.5657 46.0524 67.2467C46.2209 67.4883 46.5823 67.5979 46.8543 67.7685C46.9579 67.4639 47.169 67.1513 47.1467 66.8589C46.9883 64.916 46.7833 62.9771 46.5823 61.0383C46.5234 60.4698 46.5173 59.9602 47.0066 59.5156C49.8347 56.9433 52.6465 54.3528 55.4564 51.7581C56.5628 50.7369 57.3323 50.9237 57.7546 52.351C58.5301 54.9699 59.2975 57.591 60.067 60.212C60.6314 62.1285 61.1735 64.0511 61.7805 65.9534C61.8597 66.1991 62.2637 66.3412 62.5175 66.53C62.7083 66.2742 62.956 66.0428 63.0677 65.7585C63.1509 65.5433 63.0595 65.2611 63.0474 65.0074C62.7611 58.7076 62.4789 52.4058 62.1784 46.106C62.1541 45.5781 62.3084 45.2005 62.7022 44.8452C63.7518 43.8931 64.7771 42.9104 65.7983 41.9278C67.4468 40.3422 68.2853 38.3871 68.3848 36.1112C68.4254 35.1895 68.2711 35.0291 67.3717 35.0413C65.3151 35.0718 63.4818 35.7438 61.9835 37.1487C60.8405 38.2206 59.7828 39.388 58.725 40.5473C58.2357 41.0832 57.6896 41.2781 56.977 41.2396C53.8159 41.069 50.6529 40.9289 48.8135 40.8416L48.8114 40.8457ZM41.996 6.59384C41.8417 6.56338 41.7219 6.52075 41.6021 6.52075C34.5349 6.51669 27.4677 6.52075 20.4026 6.50857C19.9681 6.50857 19.83 6.66489 19.8361 7.08718C19.8544 8.40479 19.8747 9.72241 19.828 11.038C19.8057 11.6856 19.962 11.9049 20.6584 11.9029C27.5225 11.8765 34.3867 11.8866 41.2509 11.8846C41.4925 11.8846 41.7341 11.8602 41.996 11.846V6.59384ZM46.3731 11.777C46.3731 8.98747 46.3731 6.28118 46.3731 3.5749C46.3731 2.4197 46.1559 2.20653 45.0028 2.20653C35.682 2.20653 26.3613 2.20653 17.0405 2.20653C16.8375 2.20653 16.6324 2.18623 16.4335 2.21668C15.9259 2.2918 15.6417 2.51918 15.6478 3.11607C15.6782 5.7249 15.6661 8.33374 15.6681 10.9426C15.6681 11.2106 15.6681 11.4785 15.6681 11.7607H17.7612C17.7734 11.4765 17.7958 11.2288 17.7958 10.9832C17.7978 9.23515 17.7917 7.48713 17.7998 5.73911C17.8039 4.78897 18.1815 4.39105 19.1357 4.38902C27.0637 4.3809 34.9897 4.3809 42.9177 4.38902C43.8902 4.38902 44.2374 4.75446 44.2414 5.73708C44.2495 7.4851 44.2434 9.23312 44.2434 10.9811C44.2434 11.2451 44.2434 11.511 44.2434 11.777H46.3711H46.3731ZM33.5178 31.6265H33.5137C33.5137 31.0458 33.53 30.4652 33.5097 29.8845C33.4894 29.3506 33.1869 29.0318 32.6489 29.0237C31.514 29.0075 30.377 28.9994 29.2421 29.0298C28.7305 29.044 28.3752 29.3404 28.3651 29.8866C28.3468 31.0215 28.3407 32.1584 28.3712 33.2933C28.3834 33.7988 28.6493 34.1663 29.2137 34.1724C30.375 34.1825 31.5363 34.1845 32.6976 34.1703C33.2539 34.1642 33.5117 33.8313 33.5178 33.2933C33.5239 32.737 33.5178 32.1827 33.5178 31.6265Z" fill="url(#paint0_linear_237_122213)"/>
<defs>
<linearGradient id="paint0_linear_237_122213" x1="96.1711" y1="49.0789" x2="-39.7456" y2="50.2455" gradientUnits="userSpaceOnUse">
<stop stop-color="#0082CB"/>
<stop offset="1" stop-color="#041A26"/>
</linearGradient>
</defs>
</svg>
