<svg width="66" height="54" viewBox="0 0 66 54" fill="none" xmlns="http://www.w3.org/2000/svg">
<path d="M14.9926 16.4233C15.1993 16.6074 15.4683 16.7065 15.743 16.7065C15.7769 16.7065 15.8109 16.7065 15.8421 16.7008C16.1507 16.6725 16.4367 16.5196 16.6292 16.2761L24.6987 6.08586C25.0866 5.59603 25.0045 4.88251 24.5147 4.49461C24.022 4.10671 23.3113 4.18882 22.9234 4.67865L15.5957 13.9345L12.1697 10.9106C11.6997 10.4972 10.9834 10.5397 10.57 11.0097C10.1566 11.4797 10.1991 12.196 10.6691 12.6094L14.9898 16.4233H14.9926Z" fill="url(#paint0_linear_237_122184)"/>
<path d="M5.75608 21.8001H23.8205L30.2704 26.118C30.4601 26.2454 30.681 26.3105 30.9018 26.3105C31.0859 26.3105 31.2671 26.2652 31.4341 26.1775C31.8022 25.9793 32.0344 25.597 32.0344 25.178V2.71924C32.0344 1.3092 30.8877 0.162476 29.4776 0.162476H5.75608C4.34887 0.162476 3.20215 1.3092 3.20215 2.71924V19.2462C3.20215 20.6534 4.34887 21.8001 5.75608 21.8001ZM5.46728 2.71924C5.46728 2.55785 5.59752 2.4276 5.75608 2.4276H29.4748C29.6362 2.4276 29.7664 2.55785 29.7664 2.71924V23.0573L24.7945 19.7275C24.6076 19.6029 24.3896 19.535 24.1631 19.535H5.75608C5.59752 19.535 5.46728 19.4047 5.46728 19.2462V2.71924Z" fill="url(#paint1_linear_237_122184)"/>
<path d="M41.0779 47.1611H15.7679L4.72542 25.3706C4.52722 24.9827 4.12516 24.7193 3.68912 24.7505L3.30405 24.759C3.13417 24.7618 2.96995 24.8043 2.81705 24.8807C1.3164 25.6424 -0.221051 29.1873 0.86621 31.5034L10.4675 50.7145C10.6657 51.1109 11.0649 51.3402 11.4812 51.3402C11.6369 51.3402 11.7954 51.3091 11.9483 51.2383L13.9615 50.3266V52.705C13.9615 53.3307 14.4683 53.8375 15.094 53.8375H38.3173C40.4408 53.8375 42.2104 49.8254 42.2104 48.2908C42.2104 47.6651 41.7036 47.1583 41.0779 47.1583V47.1611ZM12.0078 48.7297L2.90482 30.5152C2.53674 29.7309 2.89633 28.4257 3.31821 27.6074L13.6444 47.9822L12.005 48.724L12.0078 48.7297ZM38.2323 51.5753H16.2294V49.4262H39.6339C39.2545 50.3209 38.6174 51.3572 38.2351 51.5753H38.2323Z" fill="url(#paint2_linear_237_122184)"/>
<path d="M48.2463 26.6672C48.8891 26.6672 49.5233 26.5851 50.132 26.4237C55.6646 24.9513 58.0741 17.3773 56.531 11.5927C55.3079 7.00302 51.7544 4.15179 47.2553 4.15179C46.287 4.15179 45.2932 4.28487 44.3078 4.54819C41.6548 5.25604 39.4746 6.7935 38.1722 8.88025C36.7706 11.1284 36.4365 13.8465 37.2067 16.7402C38.6648 22.2162 43.617 26.67 48.2492 26.67L48.2463 26.6672ZM40.089 10.0779C41.0857 8.48102 42.7902 7.29466 44.8883 6.73687C45.6839 6.52452 46.4795 6.41692 47.2553 6.41692C50.7323 6.41692 53.3825 8.56879 54.3424 12.176C55.5825 16.8337 53.7591 23.1137 49.5488 24.235C49.1297 24.3454 48.6909 24.402 48.2463 24.402C44.6363 24.402 40.5817 20.6249 39.3925 16.1541C38.7866 13.8805 39.0273 11.7768 40.0919 10.0751L40.089 10.0779Z" fill="url(#paint3_linear_237_122184)"/>
<path d="M43.2612 32.0469C43.1932 32.6698 43.6434 33.2276 44.2635 33.2956C44.306 33.3012 44.3456 33.3012 44.3881 33.3012C44.9572 33.3012 45.4499 32.8708 45.5121 32.2904C45.7925 29.7223 46.019 29.1107 46.0275 29.0881C45.9991 29.1645 45.9765 29.19 45.9765 29.19L44.0115 28.0631C43.751 28.5161 43.499 29.8582 43.2583 32.0469H43.2612Z" fill="url(#paint4_linear_237_122184)"/>
<path d="M64.726 37.5398C64.7231 37.4917 64.7146 37.4379 64.7033 37.3812L64.6807 37.2312C64.6665 37.1406 64.6552 37.0528 64.6382 36.965C64.6382 36.948 64.6269 36.8971 64.6212 36.8801L64.6071 36.8065C64.4315 35.7787 64.2305 34.8131 63.9926 33.859C63.2989 31.0445 62.3589 28.6831 61.2009 26.8456C60.1646 25.2033 58.2336 24.3511 56.3563 24.7277L55.7957 24.8466C54.329 25.1524 53.0719 26.0075 52.2508 27.2618C51.4297 28.5161 51.1522 30.0111 51.4608 31.4721L52.0045 34.0798H34.1411C30.9218 34.0798 28.3027 36.6989 28.3027 39.9182V40.0144C28.3027 43.2366 30.9246 45.8613 34.1496 45.8613H43.5895C43.8273 47.9169 44.1331 50.0603 44.5097 52.266C44.6032 52.8181 45.0845 53.2088 45.6253 53.2088C45.6876 53.2088 45.7527 53.2031 45.8178 53.1918C46.4351 53.0871 46.8485 52.501 46.7437 51.8837C46.3898 49.814 46.101 47.7952 45.8716 45.8613H53.2927C54.7622 45.8613 56.2402 45.7084 57.6814 45.4054L59.2132 45.0827C59.9494 44.9298 60.6459 44.6636 61.2915 44.2899C61.8323 43.9756 62.0163 43.2819 61.702 42.7411C61.3877 42.2003 60.694 42.0162 60.1532 42.3305C59.72 42.5825 59.2472 42.7609 58.7489 42.8657L57.2171 43.1885C55.9288 43.4603 54.6094 43.5962 53.2956 43.5962H34.1496C32.1761 43.5962 30.5679 41.9908 30.5679 40.0144V39.9182C30.5679 37.9475 32.1704 36.3449 34.1411 36.3449H53.3975C53.7373 36.3449 54.0601 36.192 54.2752 35.9259C54.4904 35.6597 54.5754 35.3143 54.5046 34.9802L53.675 31.0077C53.4909 30.1357 53.658 29.2466 54.145 28.5019C54.632 27.7573 55.3795 27.2476 56.2572 27.0636L56.8405 26.939C57.7635 26.7521 58.746 27.2023 59.284 28.0546C60.3146 29.6883 61.1584 31.8232 61.7926 34.4054C62.0163 35.3058 62.206 36.2147 62.3731 37.1859C62.3759 37.2029 62.3872 37.2567 62.3901 37.2736L62.4693 37.755C62.4693 37.7805 62.475 37.8088 62.4778 37.8343C63.1092 41.8011 63.3471 46.5777 63.1857 52.0394C63.1659 52.6652 63.6585 53.1862 64.2843 53.206C64.2956 53.206 64.3069 53.206 64.3183 53.206C64.9298 53.206 65.431 52.719 65.4508 52.1074C65.615 46.5352 65.3687 41.634 64.7231 37.5426L64.726 37.5398Z" fill="url(#paint5_linear_237_122184)"/>
<defs>
<linearGradient id="paint0_linear_237_122184" x1="30.3178" y1="12.9892" x2="1.86102" y2="13.276" gradientUnits="userSpaceOnUse">
<stop stop-color="#0082CB"/>
<stop offset="1" stop-color="#041A26"/>
</linearGradient>
<linearGradient id="paint1_linear_237_122184" x1="42.6063" y1="18.5074" x2="-13.3716" y2="19.036" gradientUnits="userSpaceOnUse">
<stop stop-color="#0082CB"/>
<stop offset="1" stop-color="#041A26"/>
</linearGradient>
<linearGradient id="paint2_linear_237_122184" x1="57.5044" y1="45.1567" x2="-23.4715" y2="46.151" gradientUnits="userSpaceOnUse">
<stop stop-color="#0082CB"/>
<stop offset="1" stop-color="#041A26"/>
</linearGradient>
<linearGradient id="paint3_linear_237_122184" x1="64.3912" y1="19.9501" x2="25.1969" y2="20.251" gradientUnits="userSpaceOnUse">
<stop stop-color="#0082CB"/>
<stop offset="1" stop-color="#041A26"/>
</linearGradient>
<linearGradient id="paint4_linear_237_122184" x1="47.0443" y1="31.7381" x2="41.66" y2="31.7625" gradientUnits="userSpaceOnUse">
<stop stop-color="#0082CB"/>
<stop offset="1" stop-color="#041A26"/>
</linearGradient>
<linearGradient id="paint5_linear_237_122184" x1="79.1394" y1="44.6832" x2="6.92296" y2="45.4884" gradientUnits="userSpaceOnUse">
<stop stop-color="#0082CB"/>
<stop offset="1" stop-color="#041A26"/>
</linearGradient>
</defs>
</svg>
