<svg width="71" height="70" viewBox="0 0 71 70" fill="none" xmlns="http://www.w3.org/2000/svg">
<path d="M64.8033 9.53438L48.6946 2.85845V1.7286C48.6946 1.10454 48.1873 0.598755 47.5613 0.598755C46.9354 0.598755 46.428 1.10454 46.428 1.7286V31.0468H38.8204C38.1945 31.0468 37.6871 31.5526 37.6871 32.1766V43.0801H22.5578C21.9318 43.0801 21.4244 43.5859 21.4244 44.2099V55.1083H6.63331C6.00734 55.1083 5.5 55.6141 5.5 56.2382V68.2714C5.5 68.8955 6.00734 69.4013 6.63331 69.4013H56.8575C57.4835 69.4013 57.9908 68.8955 57.9908 68.2714V32.1766C57.9908 31.5526 57.4835 31.0468 56.8575 31.0468H48.6946V17.7302L64.7705 11.6305C65.2047 11.4669 65.4924 11.0543 65.5 10.5912C65.5076 10.1282 65.2299 9.708 64.8033 9.53186V9.53438ZM55.7267 67.1416H7.76663V57.368H22.5578C23.1837 57.368 23.6911 56.8622 23.6911 56.2382V45.3398H38.8204C39.4464 45.3398 39.9537 44.834 39.9537 44.2099V33.3065H55.7267V67.1416ZM48.6946 15.3145V5.30436L61.305 10.5309L48.6946 15.3145Z" fill="url(#paint0_linear_237_122206)"/>
<defs>
<linearGradient id="paint0_linear_237_122206" x1="87.5004" y1="48.8693" x2="-28.9939" y2="49.7393" gradientUnits="userSpaceOnUse">
<stop stop-color="#0082CB"/>
<stop offset="1" stop-color="#041A26"/>
</linearGradient>
</defs>
</svg>
