<svg width="65" height="66" viewBox="0 0 65 66" fill="none" xmlns="http://www.w3.org/2000/svg">
<g clip-path="url(#clip0_237_122045)">
<path d="M48.8782 0.5C49.3853 0.5 49.8941 0.5 50.4012 0.5C50.4503 0.535616 50.4944 0.588191 50.5487 0.605151C52.706 1.27845 53.7388 2.65219 53.7643 4.89088C53.7694 5.30809 53.7643 5.7253 53.7643 6.21205C54.6241 6.21205 55.4229 6.20527 56.2201 6.21205C60.0937 6.25445 63.5229 8.84081 64.6202 12.5516C64.7695 13.0553 64.8746 13.5709 65.0001 14.0797V57.6273C64.9645 57.7256 64.9119 57.8206 64.895 57.9224C64.0843 62.4998 60.5278 65.4966 55.8809 65.4966C40.2694 65.5 24.6596 65.5017 9.04816 65.4966C3.91275 65.4949 0.0052165 61.5891 0.00352053 56.4621C0.000128574 42.7332 0.000128574 29.006 0.00352053 15.277C0.0052165 10.106 3.90087 6.22392 9.08208 6.21205C9.77574 6.21205 10.4694 6.21205 11.2665 6.21205C11.2665 5.52348 11.2156 4.89088 11.2767 4.26846C11.448 2.5233 12.3977 1.35477 14.0292 0.728957C14.2209 0.65603 14.4108 0.576319 14.6008 0.5C15.1079 0.5 15.6167 0.5 16.1238 0.5C16.1526 0.528832 16.1764 0.572927 16.212 0.584799C18.5609 1.37004 19.4835 2.6488 19.4886 5.1368C19.4886 5.48448 19.4886 5.83045 19.4886 6.17643H22.6872C22.6872 5.53196 22.6414 4.91972 22.6957 4.31595C22.8551 2.54704 23.8049 1.36325 25.455 0.730653C25.6467 0.65603 25.8366 0.576319 26.0266 0.5C26.5337 0.5 27.0425 0.5 27.5496 0.5C27.5784 0.528832 27.6021 0.572927 27.6378 0.584799C29.9867 1.37004 30.9093 2.6488 30.9144 5.1368C30.9144 5.48448 30.9144 5.83045 30.9144 6.17643H34.113C34.113 5.53196 34.0672 4.91972 34.1215 4.31595C34.2809 2.54704 35.2306 1.36325 36.8808 0.730653C37.0725 0.65603 37.2624 0.576319 37.4524 0.5C37.9595 0.5 38.4683 0.5 38.9754 0.5C39.0042 0.528832 39.0279 0.572927 39.0636 0.584799C41.4125 1.37004 42.3351 2.6488 42.3402 5.1368C42.3402 5.48448 42.3402 5.83045 42.3402 6.17643H45.5388C45.5388 5.53196 45.493 4.91972 45.5473 4.31595C45.7067 2.54704 46.6564 1.36325 48.3066 0.730653C48.4983 0.657726 48.6882 0.578015 48.8782 0.501696V0.5ZM19.4615 8.77467C19.4615 9.4361 19.4903 10.0483 19.4547 10.6555C19.3885 11.8393 18.8662 12.8162 17.9402 13.5421C16.6733 14.5342 15.252 14.7632 13.7647 14.1255C12.262 13.4793 11.4073 12.3057 11.2699 10.664C11.2173 10.045 11.2614 9.41745 11.2614 8.75262C10.4592 8.75262 9.78591 8.75093 9.11261 8.75262C5.29327 8.76619 2.5424 11.4967 2.5407 15.3076C2.53561 29.0145 2.53392 42.723 2.5407 56.4299C2.5424 60.1984 5.30175 62.956 9.0753 62.9577C24.6868 62.9645 40.2982 62.9628 55.9097 62.951C56.5152 62.951 57.141 62.8865 57.7244 62.7305C60.6109 61.9605 62.4528 59.5081 62.4562 56.4435C62.4629 47.3056 62.4596 38.1659 62.4596 29.028C62.4596 24.4167 62.4833 19.8053 62.4511 15.1939C62.4324 12.4617 61.1282 10.4842 58.6741 9.29873C57.1257 8.5508 55.462 8.75941 53.7643 8.77467C53.7643 9.2241 53.8202 9.63283 53.7524 10.0195C53.6167 10.7997 53.5506 11.6358 53.2114 12.3277C52.4058 13.9661 50.547 14.7513 48.7662 14.3629C46.977 13.9711 45.6813 12.5058 45.5473 10.6708C45.5015 10.05 45.5405 9.42253 45.5405 8.75601C44.5093 8.75601 43.602 8.75601 42.6963 8.75771C42.5946 8.75771 42.4945 8.78654 42.3402 8.81029C42.3402 9.2258 42.3961 9.63453 42.3283 10.0212C42.1926 10.8014 42.1265 11.6375 41.7856 12.3294C40.9783 13.9678 39.1212 14.753 37.3404 14.3629C35.5512 13.9711 34.2555 12.5058 34.1215 10.6691C34.0757 10.0483 34.1147 9.42084 34.1147 8.79163H30.9127C30.9127 9.3106 30.9178 9.79395 30.9127 10.2773C30.8991 11.5764 30.4327 12.6839 29.4185 13.5031C28.1449 14.5308 26.7084 14.775 25.1956 14.1272C23.6929 13.4844 22.8365 12.3091 22.6991 10.6674C22.6465 10.0483 22.6906 9.41914 22.6906 8.77637H19.4632L19.4615 8.77467ZM13.7782 7.43485C13.7782 8.36424 13.7596 9.29364 13.7833 10.2213C13.8088 11.244 14.4566 11.9207 15.3623 11.919C16.2679 11.919 16.926 11.2423 16.9378 10.2179C16.9599 8.40156 16.9582 6.58516 16.9378 4.77047C16.9277 3.73592 16.2951 3.05923 15.3894 3.04227C14.46 3.02361 13.802 3.71557 13.7782 4.77386C13.7596 5.66086 13.7749 6.54785 13.7749 7.43485H13.7782ZM28.3721 7.51286C28.3721 6.62587 28.3823 5.73887 28.3687 4.85188C28.3518 3.73592 27.7226 3.03379 26.7711 3.04227C25.8434 3.05075 25.2159 3.74271 25.2057 4.81965C25.1905 6.59364 25.1905 8.36764 25.2057 10.1416C25.2142 11.2203 25.8434 11.9105 26.7694 11.9207C27.7175 11.9309 28.3518 11.222 28.3687 10.1111C28.3823 9.24615 28.3721 8.37951 28.3721 7.51456V7.51286ZM39.7979 7.54509C39.7979 6.65809 39.8115 5.7711 39.7911 4.8841C39.7843 4.57374 39.7453 4.24472 39.63 3.95979C39.357 3.29158 38.6039 2.92525 37.9154 3.06601C37.1641 3.22035 36.6519 3.81055 36.64 4.65854C36.6146 6.47493 36.6213 8.29132 36.6332 10.106C36.64 11.2203 37.2811 11.9275 38.2291 11.9173C39.1755 11.9071 39.7826 11.2033 39.7979 10.0755C39.8081 9.23089 39.7996 8.38629 39.7996 7.5417L39.7979 7.54509ZM48.0522 7.45011C48.0522 8.33711 48.0421 9.2241 48.0556 10.1111C48.0726 11.2237 48.7069 11.9309 49.6549 11.919C50.5809 11.9071 51.2084 11.2169 51.2186 10.1382C51.2339 8.36424 51.2339 6.59025 51.2186 4.81626C51.2084 3.74101 50.5792 3.04905 49.6515 3.04057C48.7018 3.03209 48.0709 3.73592 48.0539 4.85188C48.0421 5.71682 48.0522 6.58347 48.0522 7.44842V7.45011Z" fill="url(#paint0_linear_237_122045)"/>
<path d="M32.4371 59.7863C24.7357 59.7863 17.0343 59.7863 9.33455 59.7863C6.95509 59.7863 5.71533 58.5364 5.71533 56.1399C5.71533 44.5038 5.71533 32.8677 5.71533 21.2316C5.71533 18.8878 6.96866 17.6413 9.32607 17.6396C11.251 17.6396 13.1759 17.6362 15.1026 17.6396C16.0353 17.6413 16.6137 18.1178 16.6289 18.8827C16.6442 19.6697 16.0506 20.1751 15.089 20.1767C13.142 20.1801 11.1967 20.1768 9.24975 20.1784C8.44925 20.1784 8.2559 20.3599 8.2559 21.1265C8.2559 32.8474 8.2559 44.5683 8.2559 56.2892C8.2559 57.0609 8.44755 57.2457 9.24127 57.2457C24.7493 57.2457 40.2573 57.2457 55.7653 57.2457C56.5556 57.2457 56.7473 57.0592 56.7473 56.2858C56.7473 44.5852 56.7473 32.8864 56.7473 21.1859C56.7473 20.3345 56.5794 20.1784 55.6856 20.1784C46.2288 20.1784 36.7721 20.1784 27.3136 20.1784C26.1213 20.1784 25.504 19.7307 25.5226 18.881C25.5413 18.0517 26.1315 17.6396 27.3051 17.6396C36.7839 17.6396 46.261 17.6396 55.7399 17.6396C58.0057 17.6396 59.2861 18.9132 59.2861 21.1672C59.2861 32.8677 59.2861 44.5666 59.2861 56.2671C59.2861 58.5177 58.0023 59.7863 55.7297 59.7863C47.9655 59.7863 40.2013 59.7863 32.4354 59.7863H32.4371Z" fill="url(#paint1_linear_237_122045)"/>
<path d="M38.3968 50.2124C37.983 50.07 37.5505 49.9665 37.157 49.78C35.8002 49.1406 34.4485 48.4927 33.1172 47.8042C32.7102 47.5939 32.3964 47.6176 32.0029 47.8126C30.6207 48.4961 29.2148 49.1304 27.8308 49.8088C26.915 50.2582 26.0314 50.2769 25.2038 49.6545C24.3778 49.0337 24.1523 48.1824 24.3134 47.1749C24.5576 45.652 24.773 44.1239 24.9579 42.5941C24.9867 42.3499 24.8595 42.0158 24.6882 41.8275C23.6197 40.6556 22.5258 39.5057 21.4234 38.366C20.7162 37.6351 20.4109 36.8007 20.7434 35.8204C21.0656 34.8723 21.7796 34.3788 22.7633 34.216C24.3049 33.9616 25.8449 33.6902 27.378 33.3867C27.6222 33.3392 27.9089 33.1306 28.031 32.9135C28.8247 31.5177 29.5845 30.1032 30.3426 28.6888C30.8107 27.8154 31.506 27.293 32.5134 27.2964C33.5208 27.3015 34.2128 27.8272 34.6724 28.7075C35.3559 30.0184 36.0733 31.3125 36.7381 32.6319C36.9688 33.0899 37.2622 33.312 37.7777 33.3951C39.3194 33.6461 40.8509 33.965 42.3874 34.2482C43.3236 34.4212 43.9731 34.9453 44.2666 35.8424C44.5701 36.7684 44.3191 37.5927 43.6458 38.2897C42.5434 39.4294 41.4292 40.5606 40.3505 41.7207C40.1826 41.9022 40.0707 42.2363 40.0978 42.4805C40.2776 44.0967 40.4998 45.7096 40.7152 47.3225C40.917 48.8387 39.8791 50.1158 38.3951 50.2107L38.3968 50.2124ZM41.6276 36.7192C41.3698 36.6531 41.1917 36.5971 41.0086 36.5632C39.411 36.2647 37.8151 35.9595 36.2141 35.6779C35.6713 35.5812 35.288 35.3167 35.0353 34.8265C34.5808 33.9446 34.1093 33.0712 33.6446 32.1961C33.2834 31.516 32.9188 30.8393 32.4982 30.0558C31.8316 31.2735 31.2313 32.3809 30.6207 33.4816C29.23 35.9917 29.8965 35.5151 26.9625 36.0527C25.7923 36.2681 24.6204 36.475 23.3501 36.704C24.5915 38.0133 25.7346 39.2547 26.9201 40.4555C27.4696 41.0118 27.7579 41.5884 27.5646 42.3821C27.4459 42.8723 27.4102 43.3827 27.3424 43.8848C27.1847 45.0278 27.0303 46.1709 26.8573 47.4361C27.1643 47.3004 27.3526 47.2207 27.5374 47.1325C28.9485 46.4626 30.3646 45.8046 31.7655 45.1143C32.3269 44.8379 32.8425 44.8396 33.397 45.116C34.7742 45.8063 36.1615 46.4762 37.5471 47.1512C37.7082 47.2292 37.8795 47.2903 38.1441 47.3988C37.9355 45.7503 37.8032 44.1917 37.5217 42.662C37.3249 41.5935 37.5607 40.815 38.3646 40.0705C39.4907 39.0275 40.5134 37.8742 41.6259 36.7192H41.6276Z" fill="url(#paint2_linear_237_122045)"/>
<path d="M22.3413 18.8929C22.3498 19.5933 21.7596 20.1818 21.0591 20.1716C20.3824 20.1615 19.8194 19.5967 19.8126 18.92C19.8041 18.2179 20.3926 17.6311 21.0947 17.6412C21.7714 17.6514 22.3345 18.2162 22.343 18.8912L22.3413 18.8929Z" fill="url(#paint3_linear_237_122045)"/>
</g>
<defs>
<linearGradient id="paint0_linear_237_122045" x1="88.8334" y1="46.1026" x2="-37.3647" y2="47.1833" gradientUnits="userSpaceOnUse">
<stop stop-color="#0082CB"/>
<stop offset="1" stop-color="#041A26"/>
</linearGradient>
<linearGradient id="paint1_linear_237_122045" x1="78.929" y1="47.2084" x2="-25.0759" y2="48.3405" gradientUnits="userSpaceOnUse">
<stop stop-color="#0082CB"/>
<stop offset="1" stop-color="#041A26"/>
</linearGradient>
<linearGradient id="paint2_linear_237_122045" x1="53.1154" y1="43.3738" x2="6.93593" y2="43.7843" gradientUnits="userSpaceOnUse">
<stop stop-color="#0082CB"/>
<stop offset="1" stop-color="#041A26"/>
</linearGradient>
<linearGradient id="paint3_linear_237_122045" x1="23.2708" y1="19.4166" x2="18.3578" y2="19.4586" gradientUnits="userSpaceOnUse">
<stop stop-color="#0082CB"/>
<stop offset="1" stop-color="#041A26"/>
</linearGradient>
<clipPath id="clip0_237_122045">
<rect width="65" height="65" fill="white" transform="translate(0 0.5)"/>
</clipPath>
</defs>
</svg>
