<svg width="66" height="66" viewBox="0 0 66 66" fill="none" xmlns="http://www.w3.org/2000/svg">
<g clip-path="url(#clip0_237_122197)">
<path d="M0.500231 39.2258C0.949583 37.9438 1.69568 36.9468 3.0963 36.628C3.52191 36.5313 3.96957 36.533 4.463 36.4839C4.47487 36.2465 4.49522 36.0209 4.49522 35.7954C4.49861 34.3354 4.45961 32.8738 4.51896 31.4172C4.53761 30.9696 4.73092 30.4642 5.00223 30.1065C5.76697 29.0958 6.60633 28.1395 7.43212 27.1763C7.64577 26.9271 7.7136 26.749 7.5542 26.4082C6.8115 24.8245 7.01329 23.3255 8.09682 21.9554C8.50378 21.4416 8.926 20.938 9.36687 20.453C10.8353 18.832 13.3076 18.6404 14.9846 20.0037C16.7006 21.3992 17.0279 23.8528 15.707 25.635C15.2424 26.2624 14.7404 26.8711 14.1995 27.4324C13.0956 28.577 11.7357 28.9534 10.1994 28.5651C9.78231 28.46 9.55509 28.5431 9.30413 28.8686C8.81408 29.5045 8.32065 30.1472 7.75429 30.7135C7.16759 31.3002 6.97089 31.9463 7.02007 32.7619C7.08111 33.7742 7.03363 34.7916 7.03703 35.8073C7.03703 36.0345 7.05568 36.26 7.06755 36.4991H17.1805C17.2924 35.012 17.3552 33.5571 17.5213 32.1141C17.852 29.2603 18.7473 26.6659 21.1602 24.8499C21.5977 24.5192 22.0403 24.1665 22.5371 23.9495C23.8156 23.3916 24.56 22.2572 25.513 21.3992C24.9348 20.5599 24.2769 19.8188 23.8716 18.9591C23.4663 18.0994 23.1323 17.1312 23.0831 16.1952C22.9729 14.1078 22.9746 12.0052 23.0865 9.91615C23.3459 5.02584 27.2341 1.11733 32.1753 0.666284C36.9588 0.228802 41.5065 3.47431 42.6325 8.18318C42.8427 9.05814 42.9072 9.97889 42.9377 10.8827C42.9869 12.341 42.9004 13.8043 42.9631 15.2609C43.0564 17.4229 42.2645 19.2203 40.869 20.8057C40.7435 20.9482 40.6214 21.094 40.4976 21.2381C40.4857 21.2534 40.4841 21.2754 40.4518 21.3738C41.3675 22.1775 42.0627 23.239 43.2429 23.8359C46.2798 25.3722 47.867 27.9614 48.3299 31.2612C48.569 32.9738 48.669 34.7068 48.8386 36.4889H58.9329C58.9329 34.8798 58.9431 33.2977 58.9176 31.7173C58.9143 31.5393 58.7311 31.3477 58.6006 31.19C57.9426 30.3896 57.2627 29.6062 56.6132 28.7991C56.403 28.5397 56.2249 28.4617 55.8739 28.5515C54.1562 28.9924 52.6895 28.5363 51.5483 27.1746C50.7937 26.2742 49.9069 25.4603 49.6017 24.2479C49.1404 22.4149 49.9544 20.4954 51.6059 19.5967C53.2338 18.7099 55.2889 19.0287 56.5522 20.392C57.0541 20.9346 57.5374 21.4993 57.9816 22.0893C58.9702 23.4001 59.1483 24.838 58.4649 26.3285C58.2767 26.7389 58.353 26.9559 58.6141 27.2577C59.4043 28.1666 60.1504 29.1162 60.9474 30.02C61.3374 30.4625 61.4968 30.939 61.4883 31.5206C61.4696 32.9382 61.4815 34.3558 61.4815 35.7734C61.4815 36.0023 61.4815 36.2312 61.4815 36.55C61.7935 36.55 62.0394 36.5415 62.2852 36.55C64.0097 36.6263 65.4053 38.0015 65.4748 39.7277C65.507 40.5518 65.5036 41.3776 65.4765 42.2016C65.4205 43.9533 64.0233 45.359 62.27 45.4387C61.7223 45.4641 61.1729 45.4421 60.5726 45.4421C60.091 47.3226 59.6146 49.1759 59.1398 51.031C58.0868 55.143 57.0372 59.2567 55.9808 63.367C55.5806 64.9236 54.9871 65.3746 53.3779 65.3746C39.7753 65.3746 26.1743 65.3746 12.5717 65.3746C11.0015 65.3746 10.3961 64.9134 10.0095 63.3992C8.53091 57.6305 7.05568 51.8602 5.57875 46.0915C5.52788 45.8897 5.46684 45.6896 5.39901 45.4472C4.94796 45.4472 4.50709 45.4488 4.06452 45.4472C2.34003 45.4353 1.19715 44.6163 0.622319 42.9867C0.596884 42.9138 0.540927 42.8511 0.498535 42.7833C0.498535 41.598 0.498535 40.4144 0.498535 39.2291L0.500231 39.2258ZM8.04086 45.4455C9.52966 51.2735 10.9998 57.0336 12.4733 62.804H53.5153C54.9905 57.0235 56.4606 51.2667 57.946 45.4455H57.0829C51.1379 45.4455 45.1946 45.4455 39.2496 45.4455C39.0173 45.4455 38.7816 45.459 38.5527 45.4285C37.8693 45.342 37.4047 44.7892 37.4319 44.1178C37.4573 43.4768 37.9372 42.9749 38.5985 42.9138C38.7867 42.8969 38.9783 42.907 39.1699 42.907C45.2201 42.907 51.2702 42.907 57.3203 42.907C58.8227 42.907 60.3234 42.9104 61.8257 42.907C62.6803 42.9037 62.9449 42.6307 62.9499 41.7591C62.9516 41.3369 62.9499 40.9129 62.9499 40.489C62.9499 39.2291 62.7973 39.0765 61.5256 39.0765C42.5087 39.0765 23.4918 39.0765 4.47318 39.0765C4.30361 39.0765 4.13404 39.0714 3.96617 39.0799C3.33708 39.1104 3.0573 39.3902 3.04204 40.0346C3.03017 40.5636 3.03864 41.0927 3.03864 41.6217C3.03864 42.6883 3.26078 42.9087 4.34431 42.9087C11.812 42.9087 19.278 42.9087 26.7458 42.9087C26.9577 42.9087 27.1697 42.8969 27.3799 42.9172C28.0345 42.98 28.5228 43.4921 28.5483 44.1262C28.5737 44.7825 28.0904 45.3488 27.4139 45.4319C27.1849 45.4607 26.9492 45.4472 26.7169 45.4472C20.7719 45.4472 14.8286 45.4472 8.88361 45.4472H8.04086V45.4455ZM46.2001 36.5059C46.1611 34.3558 46.0831 32.2888 45.5253 30.2743C45.0335 28.499 43.9754 27.1611 42.3798 26.2302C42.0322 26.0267 41.8185 26.0267 41.5133 26.3149C40.0211 27.7223 38.5103 29.1094 36.9944 30.4897C36.1533 31.2544 35.2902 31.095 34.7747 30.0878C34.2559 29.0721 33.759 28.0462 33.2469 27.0271C33.1791 26.8898 33.0808 26.7677 32.957 26.5812C32.372 27.7563 31.8311 28.8551 31.2817 29.9471C30.6797 31.1459 29.8607 31.2934 28.8721 30.3845C27.4088 29.0399 25.9386 27.702 24.4973 26.3353C24.1717 26.0267 23.9513 26.0216 23.5783 26.242C21.9674 27.195 20.8381 28.5414 20.4582 30.3676C20.1327 31.931 20.0055 33.5385 19.819 35.1307C19.7664 35.5801 19.8105 36.0396 19.8105 36.5059H46.2001ZM40.3365 14.0892C37.6014 13.8942 35.0834 12.9751 32.567 12.0357C31.5818 11.6678 30.5695 11.3524 29.5436 11.1235C28.4855 10.8878 27.5461 11.2676 26.7407 11.9781C25.9929 12.6394 25.3536 13.3363 25.5605 14.4639C25.6283 14.8319 25.5842 15.2236 25.569 15.6034C25.5232 16.6649 25.8623 17.6009 26.4812 18.4437C27.6902 20.0918 29.2825 21.233 31.1698 21.9927C32.3872 22.4827 33.5895 22.4793 34.8104 21.9978C36.3314 21.3992 37.6319 20.492 38.7833 19.339C40.2348 17.8875 40.6604 16.1426 40.3365 14.0892ZM25.6843 9.5838C27.7326 8.1747 29.8234 8.37479 31.9379 9.10562C33.2724 9.56684 34.5882 10.0806 35.921 10.5486C37.3505 11.0505 38.8121 11.4219 40.3314 11.5304C40.869 7.83217 38.2848 3.82362 33.832 3.21487C30.054 2.69769 26.1574 5.64137 25.686 9.58549L25.6843 9.5838ZM13.974 23.3747C13.9587 22.5743 13.6806 22.0792 13.0889 21.8011C12.4784 21.5145 11.8612 21.5671 11.3864 22.0486C10.854 22.5879 10.3588 23.1729 9.91966 23.7918C9.44996 24.4548 9.63309 25.3298 10.2588 25.8368C10.8506 26.3149 11.7374 26.3099 12.2851 25.7503C12.8006 25.2229 13.2635 24.6413 13.7078 24.0529C13.8757 23.8308 13.9214 23.5188 13.9757 23.3764L13.974 23.3747ZM53.5526 21.6434C52.9591 21.6722 52.4894 21.9232 52.2079 22.4522C51.9179 22.9982 51.9145 23.568 52.2876 24.0682C52.7166 24.643 53.1829 25.1924 53.6679 25.7198C54.0935 26.1827 54.6581 26.2776 55.2431 26.0928C55.8638 25.8961 56.2148 25.4315 56.3114 24.7956C56.4691 23.7596 54.5954 21.6315 53.5526 21.6417V21.6434ZM29.608 27.6104C30.1151 26.5913 30.5881 25.6418 31.0392 24.7363C29.837 24.153 28.6737 23.59 27.6428 23.0898C27.1239 23.5324 26.6305 23.9529 26.1167 24.3904C27.3019 25.4841 28.4296 26.5218 29.6097 27.6104H29.608ZM38.4086 23.0627C37.2657 23.6137 36.1143 24.1682 34.9443 24.7329C35.4055 25.6536 35.8786 26.6015 36.3822 27.6087C37.5743 26.5099 38.6985 25.4722 39.8736 24.387C39.3581 23.9207 38.8783 23.4866 38.4086 23.0627Z" fill="url(#paint0_linear_237_122197)"/>
<path d="M32.9922 49.0233C36.9261 49.0233 40.8601 49.0233 44.794 49.0233C46.9238 49.0233 48.0734 50.1831 48.0768 52.3298C48.0785 53.5982 48.0836 54.8682 48.0768 56.1366C48.0633 58.0527 46.8526 59.2549 44.9246 59.2549C36.9719 59.2583 29.0192 59.2583 21.0665 59.2549C19.1386 59.2549 17.9262 58.0493 17.9126 56.1383C17.9041 54.8055 17.9041 53.4727 17.9126 52.1416C17.9245 50.2289 19.1352 49.0267 21.0632 49.025C25.0395 49.0199 29.0158 49.025 32.9922 49.025V49.0233ZM33.0583 51.5617C29.1244 51.5617 25.1904 51.5719 21.2565 51.5515C20.6579 51.5481 20.4188 51.7211 20.4375 52.3468C20.4748 53.5727 20.4646 54.8004 20.4408 56.0264C20.4307 56.5554 20.6443 56.7267 21.1564 56.7267C29.0447 56.7165 36.9346 56.7165 44.8229 56.7267C45.3926 56.7267 45.5554 56.4961 45.5452 55.9653C45.5215 54.7818 45.5384 53.5965 45.5367 52.4129C45.5367 51.599 45.4977 51.5617 44.6685 51.5617C40.799 51.5617 36.9278 51.5617 33.0583 51.5617Z" fill="url(#paint1_linear_237_122197)"/>
<path d="M32.9892 45.4386C32.2872 45.4386 31.709 44.8451 31.7259 44.1414C31.7429 43.4615 32.3076 42.9104 32.9875 42.9087C33.6895 42.9087 34.2745 43.5056 34.2542 44.2025C34.2355 44.8774 33.6624 45.4369 32.9875 45.4369L32.9892 45.4386Z" fill="url(#paint2_linear_237_122197)"/>
</g>
<defs>
<linearGradient id="paint0_linear_237_122197" x1="89.3313" y1="46.0526" x2="-36.8672" y2="47.1376" gradientUnits="userSpaceOnUse">
<stop stop-color="#0082CB"/>
<stop offset="1" stop-color="#041A26"/>
</linearGradient>
<linearGradient id="paint1_linear_237_122197" x1="59.1442" y1="56.2032" x2="0.593338" y2="57.6815" gradientUnits="userSpaceOnUse">
<stop stop-color="#0082CB"/>
<stop offset="1" stop-color="#041A26"/>
</linearGradient>
<linearGradient id="paint2_linear_237_122197" x1="35.1821" y1="44.6836" x2="30.2717" y2="44.7257" gradientUnits="userSpaceOnUse">
<stop stop-color="#0082CB"/>
<stop offset="1" stop-color="#041A26"/>
</linearGradient>
<clipPath id="clip0_237_122197">
<rect width="65" height="64.7457" fill="white" transform="translate(0.5 0.627197)"/>
</clipPath>
</defs>
</svg>
