<svg width="396" height="396" viewBox="0 0 396 396" fill="none" xmlns="http://www.w3.org/2000/svg">
<path opacity="0.55" d="M198 396C307.352 396 396 307.352 396 198C396 88.6476 307.352 0 198 0C88.6476 0 0 88.6476 0 198C0 307.352 88.6476 396 198 396Z" fill="url(#paint0_linear_293_57793)"/>
<mask id="mask0_293_57793" style="mask-type:alpha" maskUnits="userSpaceOnUse" x="213" y="64" width="124" height="123">
<ellipse cx="274.551" cy="125.5" rx="61.5506" ry="61.5" fill="#D9D9D9"/>
</mask>
<g mask="url(#mask0_293_57793)">
<g style="mix-blend-mode:overlay" opacity="0.6">
<path d="M214.81 63.3223C214.81 63.9605 214.293 64.4784 213.654 64.4784C213.015 64.4784 212.498 63.9605 212.498 63.3223C212.498 62.6841 213.016 62.1662 213.654 62.1662C214.293 62.1662 214.81 62.6833 214.81 63.3223Z" fill="#0082CB"/>
<path d="M223.429 63.3223C223.429 63.9605 222.911 64.4784 222.273 64.4784C221.635 64.4784 221.117 63.9605 221.117 63.3223C221.117 62.6841 221.635 62.1662 222.273 62.1662C222.911 62.1662 223.429 62.6833 223.429 63.3223Z" fill="#0082CB"/>
<path d="M232.048 63.3223C232.048 63.9605 231.53 64.4784 230.891 64.4784C230.253 64.4784 229.735 63.9605 229.735 63.3223C229.735 62.6841 230.252 62.1662 230.891 62.1662C231.53 62.1662 232.048 62.6833 232.048 63.3223Z" fill="#0082CB"/>
<path d="M240.666 63.3223C240.666 63.9605 240.149 64.4784 239.51 64.4784C238.871 64.4784 238.354 63.9605 238.354 63.3223C238.354 62.6841 238.871 62.1662 239.51 62.1662C240.149 62.1662 240.666 62.6833 240.666 63.3223Z" fill="#0082CB"/>
<path d="M249.286 63.3223C249.286 63.9605 248.768 64.4784 248.129 64.4784C247.49 64.4784 246.973 63.9605 246.973 63.3223C246.973 62.6841 247.49 62.1662 248.129 62.1662C248.768 62.1662 249.286 62.6833 249.286 63.3223Z" fill="#0082CB"/>
<path d="M257.904 63.3223C257.904 63.9605 257.387 64.4784 256.748 64.4784C256.109 64.4784 255.592 63.9605 255.592 63.3223C255.592 62.6841 256.11 62.1662 256.748 62.1662C257.387 62.1662 257.904 62.6833 257.904 63.3223Z" fill="#0082CB"/>
<path d="M266.523 63.3223C266.523 63.9605 266.005 64.4784 265.367 64.4784C264.729 64.4784 264.211 63.9605 264.211 63.3223C264.211 62.6841 264.729 62.1662 265.367 62.1662C266.005 62.1662 266.523 62.6833 266.523 63.3223Z" fill="#0082CB"/>
<path d="M275.142 63.3223C275.142 63.9605 274.625 64.4784 273.986 64.4784C273.348 64.4784 272.83 63.9605 272.83 63.3223C272.83 62.6841 273.347 62.1662 273.986 62.1662C274.625 62.1662 275.142 62.6833 275.142 63.3223Z" fill="#0082CB"/>
<path d="M283.761 63.3223C283.761 63.9605 283.244 64.4784 282.605 64.4784C281.966 64.4784 281.449 63.9605 281.449 63.3223C281.449 62.6841 281.966 62.1662 282.605 62.1662C283.244 62.1662 283.761 62.6833 283.761 63.3223Z" fill="#0082CB"/>
<path d="M292.38 63.3223C292.38 63.9605 291.862 64.4784 291.223 64.4784C290.584 64.4784 290.067 63.9605 290.067 63.3223C290.067 62.6841 290.584 62.1662 291.223 62.1662C291.862 62.1662 292.38 62.6833 292.38 63.3223Z" fill="#0082CB"/>
<path d="M300.998 63.3223C300.998 63.9605 300.481 64.4784 299.842 64.4784C299.203 64.4784 298.686 63.9605 298.686 63.3223C298.686 62.6841 299.204 62.1662 299.842 62.1662C300.48 62.1662 300.998 62.6833 300.998 63.3223Z" fill="#0082CB"/>
<path d="M309.618 63.3223C309.618 63.9605 309.1 64.4784 308.462 64.4784C307.823 64.4784 307.305 63.9605 307.305 63.3223C307.305 62.6841 307.823 62.1662 308.462 62.1662C309.1 62.1662 309.618 62.6833 309.618 63.3223Z" fill="#0082CB"/>
<path d="M318.236 63.3223C318.236 63.9605 317.718 64.4784 317.08 64.4784C316.442 64.4784 315.924 63.9605 315.924 63.3223C315.924 62.6841 316.441 62.1662 317.08 62.1662C317.719 62.1662 318.236 62.6833 318.236 63.3223Z" fill="#0082CB"/>
<path d="M326.855 63.3223C326.855 63.9605 326.338 64.4784 325.699 64.4784C325.06 64.4784 324.543 63.9605 324.543 63.3223C324.543 62.6841 325.06 62.1662 325.699 62.1662C326.338 62.1662 326.855 62.6833 326.855 63.3223Z" fill="#0082CB"/>
<path d="M335.474 63.3223C335.474 63.9605 334.957 64.4784 334.318 64.4784C333.679 64.4784 333.162 63.9605 333.162 63.3223C333.162 62.6841 333.679 62.1662 334.318 62.1662C334.957 62.1662 335.474 62.6833 335.474 63.3223Z" fill="#0082CB"/>
<path d="M214.81 70.5523C214.81 71.1905 214.293 71.7084 213.654 71.7084C213.015 71.7084 212.498 71.1905 212.498 70.5523C212.498 69.9141 213.016 69.3962 213.654 69.3962C214.293 69.3962 214.81 69.9132 214.81 70.5523Z" fill="#0082CB"/>
<path d="M223.429 70.5523C223.429 71.1905 222.911 71.7084 222.273 71.7084C221.635 71.7084 221.117 71.1905 221.117 70.5523C221.117 69.9141 221.635 69.3962 222.273 69.3962C222.911 69.3962 223.429 69.9132 223.429 70.5523Z" fill="#0082CB"/>
<path d="M232.048 70.5523C232.048 71.1905 231.53 71.7084 230.891 71.7084C230.253 71.7084 229.735 71.1905 229.735 70.5523C229.735 69.9141 230.252 69.3962 230.891 69.3962C231.53 69.3962 232.048 69.9132 232.048 70.5523Z" fill="#0082CB"/>
<path d="M240.666 70.5523C240.666 71.1905 240.149 71.7084 239.51 71.7084C238.871 71.7084 238.354 71.1905 238.354 70.5523C238.354 69.9141 238.871 69.3962 239.51 69.3962C240.149 69.3962 240.666 69.9132 240.666 70.5523Z" fill="#0082CB"/>
<path d="M249.286 70.5523C249.286 71.1905 248.768 71.7084 248.129 71.7084C247.49 71.7084 246.973 71.1905 246.973 70.5523C246.973 69.9141 247.49 69.3962 248.129 69.3962C248.768 69.3962 249.286 69.9132 249.286 70.5523Z" fill="#0082CB"/>
<path d="M257.904 70.5523C257.904 71.1905 257.387 71.7084 256.748 71.7084C256.109 71.7084 255.592 71.1905 255.592 70.5523C255.592 69.9141 256.11 69.3962 256.748 69.3962C257.387 69.3962 257.904 69.9132 257.904 70.5523Z" fill="#0082CB"/>
<path d="M266.523 70.5523C266.523 71.1905 266.005 71.7084 265.367 71.7084C264.729 71.7084 264.211 71.1905 264.211 70.5523C264.211 69.9141 264.729 69.3962 265.367 69.3962C266.005 69.3962 266.523 69.9132 266.523 70.5523Z" fill="#0082CB"/>
<path d="M275.142 70.5523C275.142 71.1905 274.625 71.7084 273.986 71.7084C273.348 71.7084 272.83 71.1905 272.83 70.5523C272.83 69.9141 273.347 69.3962 273.986 69.3962C274.625 69.3962 275.142 69.9132 275.142 70.5523Z" fill="#0082CB"/>
<path d="M283.761 70.5523C283.761 71.1905 283.244 71.7084 282.605 71.7084C281.966 71.7084 281.449 71.1905 281.449 70.5523C281.449 69.9141 281.966 69.3962 282.605 69.3962C283.244 69.3962 283.761 69.9132 283.761 70.5523Z" fill="#0082CB"/>
<path d="M292.38 70.5523C292.38 71.1905 291.862 71.7084 291.223 71.7084C290.584 71.7084 290.067 71.1905 290.067 70.5523C290.067 69.9141 290.584 69.3962 291.223 69.3962C291.862 69.3962 292.38 69.9132 292.38 70.5523Z" fill="#0082CB"/>
<path d="M300.998 70.5523C300.998 71.1905 300.481 71.7084 299.842 71.7084C299.203 71.7084 298.686 71.1905 298.686 70.5523C298.686 69.9141 299.204 69.3962 299.842 69.3962C300.48 69.3962 300.998 69.9132 300.998 70.5523Z" fill="#0082CB"/>
<path d="M309.618 70.5523C309.618 71.1905 309.1 71.7084 308.462 71.7084C307.823 71.7084 307.305 71.1905 307.305 70.5523C307.305 69.9141 307.823 69.3962 308.462 69.3962C309.1 69.3962 309.618 69.9132 309.618 70.5523Z" fill="#0082CB"/>
<path d="M318.236 70.5523C318.236 71.1905 317.718 71.7084 317.08 71.7084C316.442 71.7084 315.924 71.1905 315.924 70.5523C315.924 69.9141 316.441 69.3962 317.08 69.3962C317.719 69.3962 318.236 69.9132 318.236 70.5523Z" fill="#0082CB"/>
<path d="M326.855 70.5523C326.855 71.1905 326.338 71.7084 325.699 71.7084C325.06 71.7084 324.543 71.1905 324.543 70.5523C324.543 69.9141 325.06 69.3962 325.699 69.3962C326.338 69.3962 326.855 69.9132 326.855 70.5523Z" fill="#0082CB"/>
<path d="M335.474 70.5523C335.474 71.1905 334.957 71.7084 334.318 71.7084C333.679 71.7084 333.162 71.1905 333.162 70.5523C333.162 69.9141 333.679 69.3962 334.318 69.3962C334.957 69.3962 335.474 69.9132 335.474 70.5523Z" fill="#0082CB"/>
<path d="M214.81 77.7831C214.81 78.4213 214.293 78.9392 213.654 78.9392C213.015 78.9392 212.498 78.4213 212.498 77.7831C212.498 77.1449 213.016 76.627 213.654 76.627C214.293 76.627 214.81 77.1441 214.81 77.7831Z" fill="#0082CB"/>
<path d="M223.429 77.7831C223.429 78.4213 222.911 78.9392 222.273 78.9392C221.635 78.9392 221.117 78.4213 221.117 77.7831C221.117 77.1449 221.635 76.627 222.273 76.627C222.911 76.627 223.429 77.1441 223.429 77.7831Z" fill="#0082CB"/>
<path d="M232.048 77.7831C232.048 78.4213 231.53 78.9392 230.891 78.9392C230.253 78.9392 229.735 78.4213 229.735 77.7831C229.735 77.1449 230.252 76.627 230.891 76.627C231.53 76.627 232.048 77.1441 232.048 77.7831Z" fill="#0082CB"/>
<path d="M240.666 77.7831C240.666 78.4213 240.149 78.9392 239.51 78.9392C238.871 78.9392 238.354 78.4213 238.354 77.7831C238.354 77.1449 238.871 76.627 239.51 76.627C240.149 76.627 240.666 77.1441 240.666 77.7831Z" fill="#0082CB"/>
<path d="M249.286 77.7831C249.286 78.4213 248.768 78.9392 248.129 78.9392C247.49 78.9392 246.973 78.4213 246.973 77.7831C246.973 77.1449 247.49 76.627 248.129 76.627C248.768 76.627 249.286 77.1441 249.286 77.7831Z" fill="#0082CB"/>
<path d="M257.904 77.7831C257.904 78.4213 257.387 78.9392 256.748 78.9392C256.109 78.9392 255.592 78.4213 255.592 77.7831C255.592 77.1449 256.11 76.627 256.748 76.627C257.387 76.627 257.904 77.1441 257.904 77.7831Z" fill="#0082CB"/>
<path d="M266.523 77.7831C266.523 78.4213 266.005 78.9392 265.367 78.9392C264.729 78.9392 264.211 78.4213 264.211 77.7831C264.211 77.1449 264.729 76.627 265.367 76.627C266.005 76.627 266.523 77.1441 266.523 77.7831Z" fill="#0082CB"/>
<path d="M275.142 77.7831C275.142 78.4213 274.625 78.9392 273.986 78.9392C273.348 78.9392 272.83 78.4213 272.83 77.7831C272.83 77.1449 273.347 76.627 273.986 76.627C274.625 76.627 275.142 77.1441 275.142 77.7831Z" fill="#0082CB"/>
<path d="M283.761 77.7831C283.761 78.4213 283.244 78.9392 282.605 78.9392C281.966 78.9392 281.449 78.4213 281.449 77.7831C281.449 77.1449 281.966 76.627 282.605 76.627C283.244 76.627 283.761 77.1441 283.761 77.7831Z" fill="#0082CB"/>
<path d="M292.38 77.7831C292.38 78.4213 291.862 78.9392 291.223 78.9392C290.584 78.9392 290.067 78.4213 290.067 77.7831C290.067 77.1449 290.584 76.627 291.223 76.627C291.862 76.627 292.38 77.1441 292.38 77.7831Z" fill="#0082CB"/>
<path d="M300.998 77.7831C300.998 78.4213 300.481 78.9392 299.842 78.9392C299.203 78.9392 298.686 78.4213 298.686 77.7831C298.686 77.1449 299.204 76.627 299.842 76.627C300.48 76.627 300.998 77.1441 300.998 77.7831Z" fill="#0082CB"/>
<path d="M309.618 77.7831C309.618 78.4213 309.1 78.9392 308.462 78.9392C307.823 78.9392 307.305 78.4213 307.305 77.7831C307.305 77.1449 307.823 76.627 308.462 76.627C309.1 76.627 309.618 77.1441 309.618 77.7831Z" fill="#0082CB"/>
<path d="M318.236 77.7831C318.236 78.4213 317.718 78.9392 317.08 78.9392C316.442 78.9392 315.924 78.4213 315.924 77.7831C315.924 77.1449 316.441 76.627 317.08 76.627C317.719 76.627 318.236 77.1441 318.236 77.7831Z" fill="#0082CB"/>
<path d="M326.855 77.7831C326.855 78.4213 326.338 78.9392 325.699 78.9392C325.06 78.9392 324.543 78.4213 324.543 77.7831C324.543 77.1449 325.06 76.627 325.699 76.627C326.338 76.627 326.855 77.1441 326.855 77.7831Z" fill="#0082CB"/>
<path d="M335.474 77.7831C335.474 78.4213 334.957 78.9392 334.318 78.9392C333.679 78.9392 333.162 78.4213 333.162 77.7831C333.162 77.1449 333.679 76.627 334.318 76.627C334.957 76.627 335.474 77.1441 335.474 77.7831Z" fill="#0082CB"/>
<path d="M214.81 85.0132C214.81 85.6514 214.293 86.1693 213.654 86.1693C213.015 86.1693 212.498 85.6514 212.498 85.0132C212.498 84.375 213.016 83.8571 213.654 83.8571C214.293 83.8571 214.81 84.3742 214.81 85.0132Z" fill="#0082CB"/>
<path d="M223.429 85.0132C223.429 85.6514 222.911 86.1693 222.273 86.1693C221.635 86.1693 221.117 85.6514 221.117 85.0132C221.117 84.375 221.635 83.8571 222.273 83.8571C222.911 83.8571 223.429 84.3742 223.429 85.0132Z" fill="#0082CB"/>
<path d="M232.048 85.0132C232.048 85.6514 231.53 86.1693 230.891 86.1693C230.253 86.1693 229.735 85.6514 229.735 85.0132C229.735 84.375 230.252 83.8571 230.891 83.8571C231.53 83.8571 232.048 84.3742 232.048 85.0132Z" fill="#0082CB"/>
<path d="M240.666 85.0132C240.666 85.6514 240.149 86.1693 239.51 86.1693C238.871 86.1693 238.354 85.6514 238.354 85.0132C238.354 84.375 238.871 83.8571 239.51 83.8571C240.149 83.8571 240.666 84.3742 240.666 85.0132Z" fill="#0082CB"/>
<path d="M249.286 85.0132C249.286 85.6514 248.768 86.1693 248.129 86.1693C247.49 86.1693 246.973 85.6514 246.973 85.0132C246.973 84.375 247.49 83.8571 248.129 83.8571C248.768 83.8571 249.286 84.3742 249.286 85.0132Z" fill="#0082CB"/>
<path d="M257.904 85.0132C257.904 85.6514 257.387 86.1693 256.748 86.1693C256.109 86.1693 255.592 85.6514 255.592 85.0132C255.592 84.375 256.11 83.8571 256.748 83.8571C257.387 83.8571 257.904 84.3742 257.904 85.0132Z" fill="#0082CB"/>
<path d="M266.523 85.0132C266.523 85.6514 266.005 86.1693 265.367 86.1693C264.729 86.1693 264.211 85.6514 264.211 85.0132C264.211 84.375 264.729 83.8571 265.367 83.8571C266.005 83.8571 266.523 84.3742 266.523 85.0132Z" fill="#0082CB"/>
<path d="M275.142 85.0132C275.142 85.6514 274.625 86.1693 273.986 86.1693C273.348 86.1693 272.83 85.6514 272.83 85.0132C272.83 84.375 273.347 83.8571 273.986 83.8571C274.625 83.8571 275.142 84.3742 275.142 85.0132Z" fill="#0082CB"/>
<path d="M283.761 85.0132C283.761 85.6514 283.244 86.1693 282.605 86.1693C281.966 86.1693 281.449 85.6514 281.449 85.0132C281.449 84.375 281.966 83.8571 282.605 83.8571C283.244 83.8571 283.761 84.3742 283.761 85.0132Z" fill="#0082CB"/>
<path d="M292.38 85.0132C292.38 85.6514 291.862 86.1693 291.223 86.1693C290.584 86.1693 290.067 85.6514 290.067 85.0132C290.067 84.375 290.584 83.8571 291.223 83.8571C291.862 83.8571 292.38 84.3742 292.38 85.0132Z" fill="#0082CB"/>
<path d="M300.998 85.0132C300.998 85.6514 300.481 86.1693 299.842 86.1693C299.203 86.1693 298.686 85.6514 298.686 85.0132C298.686 84.375 299.204 83.8571 299.842 83.8571C300.48 83.8571 300.998 84.3742 300.998 85.0132Z" fill="#0082CB"/>
<path d="M309.618 85.0132C309.618 85.6514 309.1 86.1693 308.462 86.1693C307.823 86.1693 307.305 85.6514 307.305 85.0132C307.305 84.375 307.823 83.8571 308.462 83.8571C309.1 83.8571 309.618 84.3742 309.618 85.0132Z" fill="#0082CB"/>
<path d="M318.236 85.0132C318.236 85.6514 317.718 86.1693 317.08 86.1693C316.442 86.1693 315.924 85.6514 315.924 85.0132C315.924 84.375 316.441 83.8571 317.08 83.8571C317.719 83.8571 318.236 84.3742 318.236 85.0132Z" fill="#0082CB"/>
<path d="M326.855 85.0132C326.855 85.6514 326.338 86.1693 325.699 86.1693C325.06 86.1693 324.543 85.6514 324.543 85.0132C324.543 84.375 325.06 83.8571 325.699 83.8571C326.338 83.8571 326.855 84.3742 326.855 85.0132Z" fill="#0082CB"/>
<path d="M335.474 85.0132C335.474 85.6514 334.957 86.1693 334.318 86.1693C333.679 86.1693 333.162 85.6514 333.162 85.0132C333.162 84.375 333.679 83.8571 334.318 83.8571C334.957 83.8571 335.474 84.3742 335.474 85.0132Z" fill="#0082CB"/>
<path d="M214.81 92.244C214.81 92.8822 214.293 93.4001 213.654 93.4001C213.015 93.4001 212.498 92.8822 212.498 92.244C212.498 91.6058 213.016 91.088 213.654 91.088C214.293 91.088 214.81 91.605 214.81 92.244Z" fill="#0082CB"/>
<path d="M223.429 92.244C223.429 92.8822 222.911 93.4001 222.273 93.4001C221.635 93.4001 221.117 92.8822 221.117 92.244C221.117 91.6058 221.635 91.088 222.273 91.088C222.911 91.088 223.429 91.605 223.429 92.244Z" fill="#0082CB"/>
<path d="M232.048 92.244C232.048 92.8822 231.53 93.4001 230.891 93.4001C230.253 93.4001 229.735 92.8822 229.735 92.244C229.735 91.6058 230.252 91.088 230.891 91.088C231.53 91.088 232.048 91.605 232.048 92.244Z" fill="#0082CB"/>
<path d="M240.666 92.244C240.666 92.8822 240.149 93.4001 239.51 93.4001C238.871 93.4001 238.354 92.8822 238.354 92.244C238.354 91.6058 238.871 91.088 239.51 91.088C240.149 91.088 240.666 91.605 240.666 92.244Z" fill="#0082CB"/>
<path d="M249.286 92.244C249.286 92.8822 248.768 93.4001 248.129 93.4001C247.49 93.4001 246.973 92.8822 246.973 92.244C246.973 91.6058 247.49 91.088 248.129 91.088C248.768 91.088 249.286 91.605 249.286 92.244Z" fill="#0082CB"/>
<path d="M257.904 92.244C257.904 92.8822 257.387 93.4001 256.748 93.4001C256.109 93.4001 255.592 92.8822 255.592 92.244C255.592 91.6058 256.11 91.088 256.748 91.088C257.387 91.088 257.904 91.605 257.904 92.244Z" fill="#0082CB"/>
<path d="M266.523 92.244C266.523 92.8822 266.005 93.4001 265.367 93.4001C264.729 93.4001 264.211 92.8822 264.211 92.244C264.211 91.6058 264.729 91.088 265.367 91.088C266.005 91.088 266.523 91.605 266.523 92.244Z" fill="#0082CB"/>
<path d="M275.142 92.244C275.142 92.8822 274.625 93.4001 273.986 93.4001C273.348 93.4001 272.83 92.8822 272.83 92.244C272.83 91.6058 273.347 91.088 273.986 91.088C274.625 91.088 275.142 91.605 275.142 92.244Z" fill="#0082CB"/>
<path d="M283.761 92.244C283.761 92.8822 283.244 93.4001 282.605 93.4001C281.966 93.4001 281.449 92.8822 281.449 92.244C281.449 91.6058 281.966 91.088 282.605 91.088C283.244 91.088 283.761 91.605 283.761 92.244Z" fill="#0082CB"/>
<path d="M292.38 92.244C292.38 92.8822 291.862 93.4001 291.223 93.4001C290.584 93.4001 290.067 92.8822 290.067 92.244C290.067 91.6058 290.584 91.088 291.223 91.088C291.862 91.088 292.38 91.605 292.38 92.244Z" fill="#0082CB"/>
<path d="M300.998 92.244C300.998 92.8822 300.481 93.4001 299.842 93.4001C299.203 93.4001 298.686 92.8822 298.686 92.244C298.686 91.6058 299.204 91.088 299.842 91.088C300.48 91.088 300.998 91.605 300.998 92.244Z" fill="#0082CB"/>
<path d="M309.618 92.244C309.618 92.8822 309.1 93.4001 308.462 93.4001C307.823 93.4001 307.305 92.8822 307.305 92.244C307.305 91.6058 307.823 91.088 308.462 91.088C309.1 91.088 309.618 91.605 309.618 92.244Z" fill="#0082CB"/>
<path d="M318.236 92.244C318.236 92.8822 317.718 93.4001 317.08 93.4001C316.442 93.4001 315.924 92.8822 315.924 92.244C315.924 91.6058 316.441 91.088 317.08 91.088C317.719 91.088 318.236 91.605 318.236 92.244Z" fill="#0082CB"/>
<path d="M326.855 92.244C326.855 92.8822 326.338 93.4001 325.699 93.4001C325.06 93.4001 324.543 92.8822 324.543 92.244C324.543 91.6058 325.06 91.088 325.699 91.088C326.338 91.088 326.855 91.605 326.855 92.244Z" fill="#0082CB"/>
<path d="M335.474 92.244C335.474 92.8822 334.957 93.4001 334.318 93.4001C333.679 93.4001 333.162 92.8822 333.162 92.244C333.162 91.6058 333.679 91.088 334.318 91.088C334.957 91.088 335.474 91.605 335.474 92.244Z" fill="#0082CB"/>
<path d="M214.81 99.474C214.81 100.112 214.293 100.63 213.654 100.63C213.015 100.63 212.498 100.113 212.498 99.474C212.498 98.8349 213.016 98.3179 213.654 98.3179C214.293 98.3179 214.81 98.8349 214.81 99.474Z" fill="#0082CB"/>
<path d="M223.429 99.474C223.429 100.112 222.911 100.63 222.273 100.63C221.635 100.63 221.117 100.113 221.117 99.474C221.117 98.8349 221.635 98.3179 222.273 98.3179C222.911 98.3179 223.429 98.8349 223.429 99.474Z" fill="#0082CB"/>
<path d="M232.048 99.474C232.048 100.112 231.53 100.63 230.891 100.63C230.253 100.63 229.735 100.113 229.735 99.474C229.735 98.8349 230.252 98.3179 230.891 98.3179C231.53 98.3179 232.048 98.8349 232.048 99.474Z" fill="#0082CB"/>
<path d="M239.51 100.63C240.149 100.63 240.666 100.112 240.666 99.474C240.666 98.8355 240.149 98.3179 239.51 98.3179C238.872 98.3179 238.354 98.8355 238.354 99.474C238.354 100.112 238.872 100.63 239.51 100.63Z" fill="#0082CB"/>
<path d="M248.129 100.63C248.768 100.63 249.286 100.112 249.286 99.474C249.286 98.8355 248.768 98.3179 248.129 98.3179C247.491 98.3179 246.973 98.8355 246.973 99.474C246.973 100.112 247.491 100.63 248.129 100.63Z" fill="#0082CB"/>
<path d="M257.904 99.474C257.904 100.112 257.387 100.63 256.748 100.63C256.109 100.63 255.592 100.113 255.592 99.474C255.592 98.8349 256.11 98.3179 256.748 98.3179C257.387 98.3179 257.904 98.8349 257.904 99.474Z" fill="#0082CB"/>
<path d="M266.523 99.474C266.523 100.112 266.005 100.63 265.367 100.63C264.729 100.63 264.211 100.113 264.211 99.474C264.211 98.8349 264.729 98.3179 265.367 98.3179C266.005 98.3179 266.523 98.8349 266.523 99.474Z" fill="#0082CB"/>
<path d="M275.142 99.474C275.142 100.112 274.625 100.63 273.986 100.63C273.348 100.63 272.83 100.113 272.83 99.474C272.83 98.8349 273.347 98.3179 273.986 98.3179C274.625 98.3179 275.142 98.8349 275.142 99.474Z" fill="#0082CB"/>
<path d="M282.605 100.63C283.244 100.63 283.761 100.112 283.761 99.474C283.761 98.8355 283.244 98.3179 282.605 98.3179C281.967 98.3179 281.449 98.8355 281.449 99.474C281.449 100.112 281.967 100.63 282.605 100.63Z" fill="#0082CB"/>
<path d="M291.223 100.63C291.862 100.63 292.38 100.112 292.38 99.474C292.38 98.8355 291.862 98.3179 291.223 98.3179C290.585 98.3179 290.067 98.8355 290.067 99.474C290.067 100.112 290.585 100.63 291.223 100.63Z" fill="#0082CB"/>
<path d="M300.998 99.474C300.998 100.112 300.481 100.63 299.842 100.63C299.203 100.63 298.686 100.113 298.686 99.474C298.686 98.8349 299.204 98.3179 299.842 98.3179C300.48 98.3179 300.998 98.8349 300.998 99.474Z" fill="#0082CB"/>
<path d="M309.618 99.474C309.618 100.112 309.1 100.63 308.462 100.63C307.823 100.63 307.305 100.113 307.305 99.474C307.305 98.8349 307.823 98.3179 308.462 98.3179C309.1 98.3179 309.618 98.8349 309.618 99.474Z" fill="#0082CB"/>
<path d="M318.236 99.474C318.236 100.112 317.718 100.63 317.08 100.63C316.442 100.63 315.924 100.113 315.924 99.474C315.924 98.8349 316.441 98.3179 317.08 98.3179C317.719 98.3179 318.236 98.8349 318.236 99.474Z" fill="#0082CB"/>
<path d="M325.699 100.63C326.338 100.63 326.855 100.112 326.855 99.474C326.855 98.8355 326.338 98.3179 325.699 98.3179C325.061 98.3179 324.543 98.8355 324.543 99.474C324.543 100.112 325.061 100.63 325.699 100.63Z" fill="#0082CB"/>
<path d="M334.318 100.63C334.957 100.63 335.474 100.112 335.474 99.474C335.474 98.8355 334.957 98.3179 334.318 98.3179C333.68 98.3179 333.162 98.8355 333.162 99.474C333.162 100.112 333.68 100.63 334.318 100.63Z" fill="#0082CB"/>
<path d="M214.81 106.705C214.81 107.343 214.293 107.861 213.654 107.861C213.015 107.861 212.498 107.344 212.498 106.705C212.498 106.066 213.016 105.549 213.654 105.549C214.293 105.549 214.81 106.067 214.81 106.705Z" fill="#0082CB"/>
<path d="M223.429 106.705C223.429 107.343 222.911 107.861 222.273 107.861C221.635 107.861 221.117 107.344 221.117 106.705C221.117 106.066 221.635 105.549 222.273 105.549C222.911 105.549 223.429 106.067 223.429 106.705Z" fill="#0082CB"/>
<path d="M232.048 106.705C232.048 107.343 231.53 107.861 230.891 107.861C230.253 107.861 229.735 107.344 229.735 106.705C229.735 106.066 230.252 105.549 230.891 105.549C231.53 105.549 232.048 106.067 232.048 106.705Z" fill="#0082CB"/>
<path d="M240.666 106.705C240.666 107.343 240.149 107.861 239.51 107.861C238.871 107.861 238.354 107.344 238.354 106.705C238.354 106.066 238.871 105.549 239.51 105.549C240.149 105.549 240.666 106.067 240.666 106.705Z" fill="#0082CB"/>
<path d="M249.286 106.705C249.286 107.343 248.768 107.861 248.129 107.861C247.49 107.861 246.973 107.344 246.973 106.705C246.973 106.066 247.49 105.549 248.129 105.549C248.768 105.549 249.286 106.067 249.286 106.705Z" fill="#0082CB"/>
<path d="M257.904 106.705C257.904 107.343 257.387 107.861 256.748 107.861C256.109 107.861 255.592 107.344 255.592 106.705C255.592 106.066 256.11 105.549 256.748 105.549C257.387 105.549 257.904 106.067 257.904 106.705Z" fill="#0082CB"/>
<path d="M266.523 106.705C266.523 107.343 266.005 107.861 265.367 107.861C264.729 107.861 264.211 107.344 264.211 106.705C264.211 106.066 264.729 105.549 265.367 105.549C266.005 105.549 266.523 106.067 266.523 106.705Z" fill="#0082CB"/>
<path d="M275.142 106.705C275.142 107.343 274.625 107.861 273.986 107.861C273.348 107.861 272.83 107.344 272.83 106.705C272.83 106.066 273.347 105.549 273.986 105.549C274.625 105.549 275.142 106.067 275.142 106.705Z" fill="#0082CB"/>
<path d="M283.761 106.705C283.761 107.343 283.244 107.861 282.605 107.861C281.966 107.861 281.449 107.344 281.449 106.705C281.449 106.066 281.966 105.549 282.605 105.549C283.244 105.549 283.761 106.067 283.761 106.705Z" fill="#0082CB"/>
<path d="M292.38 106.705C292.38 107.343 291.862 107.861 291.223 107.861C290.584 107.861 290.067 107.344 290.067 106.705C290.067 106.066 290.584 105.549 291.223 105.549C291.862 105.549 292.38 106.067 292.38 106.705Z" fill="#0082CB"/>
<path d="M300.998 106.705C300.998 107.343 300.481 107.861 299.842 107.861C299.203 107.861 298.686 107.344 298.686 106.705C298.686 106.066 299.204 105.549 299.842 105.549C300.48 105.549 300.998 106.067 300.998 106.705Z" fill="#0082CB"/>
<path d="M309.618 106.705C309.618 107.343 309.1 107.861 308.462 107.861C307.823 107.861 307.305 107.344 307.305 106.705C307.305 106.066 307.823 105.549 308.462 105.549C309.1 105.549 309.618 106.067 309.618 106.705Z" fill="#0082CB"/>
<path d="M318.236 106.705C318.236 107.343 317.718 107.861 317.08 107.861C316.442 107.861 315.924 107.344 315.924 106.705C315.924 106.066 316.441 105.549 317.08 105.549C317.719 105.549 318.236 106.067 318.236 106.705Z" fill="#0082CB"/>
<path d="M326.855 106.705C326.855 107.343 326.338 107.861 325.699 107.861C325.06 107.861 324.543 107.344 324.543 106.705C324.543 106.066 325.06 105.549 325.699 105.549C326.338 105.549 326.855 106.067 326.855 106.705Z" fill="#0082CB"/>
<path d="M335.474 106.705C335.474 107.343 334.957 107.861 334.318 107.861C333.679 107.861 333.162 107.344 333.162 106.705C333.162 106.066 333.679 105.549 334.318 105.549C334.957 105.549 335.474 106.067 335.474 106.705Z" fill="#0082CB"/>
<path d="M214.81 113.935C214.81 114.573 214.293 115.091 213.654 115.091C213.015 115.091 212.498 114.574 212.498 113.935C212.498 113.296 213.016 112.779 213.654 112.779C214.293 112.779 214.81 113.296 214.81 113.935Z" fill="#0082CB"/>
<path d="M223.429 113.935C223.429 114.573 222.911 115.091 222.273 115.091C221.635 115.091 221.117 114.574 221.117 113.935C221.117 113.296 221.635 112.779 222.273 112.779C222.911 112.779 223.429 113.296 223.429 113.935Z" fill="#0082CB"/>
<path d="M232.048 113.935C232.048 114.573 231.53 115.091 230.891 115.091C230.253 115.091 229.735 114.574 229.735 113.935C229.735 113.296 230.252 112.779 230.891 112.779C231.53 112.779 232.048 113.296 232.048 113.935Z" fill="#0082CB"/>
<path d="M239.51 115.091C240.149 115.091 240.666 114.573 240.666 113.935C240.666 113.296 240.149 112.779 239.51 112.779C238.872 112.779 238.354 113.296 238.354 113.935C238.354 114.573 238.872 115.091 239.51 115.091Z" fill="#0082CB"/>
<path d="M248.129 115.091C248.768 115.091 249.286 114.573 249.286 113.935C249.286 113.296 248.768 112.779 248.129 112.779C247.491 112.779 246.973 113.296 246.973 113.935C246.973 114.573 247.491 115.091 248.129 115.091Z" fill="#0082CB"/>
<path d="M257.904 113.935C257.904 114.573 257.387 115.091 256.748 115.091C256.109 115.091 255.592 114.574 255.592 113.935C255.592 113.296 256.11 112.779 256.748 112.779C257.387 112.779 257.904 113.296 257.904 113.935Z" fill="#0082CB"/>
<path d="M266.523 113.935C266.523 114.573 266.005 115.091 265.367 115.091C264.729 115.091 264.211 114.574 264.211 113.935C264.211 113.296 264.729 112.779 265.367 112.779C266.005 112.779 266.523 113.296 266.523 113.935Z" fill="#0082CB"/>
<path d="M275.142 113.935C275.142 114.573 274.625 115.091 273.986 115.091C273.348 115.091 272.83 114.574 272.83 113.935C272.83 113.296 273.347 112.779 273.986 112.779C274.625 112.779 275.142 113.296 275.142 113.935Z" fill="#0082CB"/>
<path d="M282.605 115.091C283.244 115.091 283.761 114.573 283.761 113.935C283.761 113.296 283.244 112.779 282.605 112.779C281.967 112.779 281.449 113.296 281.449 113.935C281.449 114.573 281.967 115.091 282.605 115.091Z" fill="#0082CB"/>
<path d="M291.223 115.091C291.862 115.091 292.38 114.573 292.38 113.935C292.38 113.296 291.862 112.779 291.223 112.779C290.585 112.779 290.067 113.296 290.067 113.935C290.067 114.573 290.585 115.091 291.223 115.091Z" fill="#0082CB"/>
<path d="M300.998 113.935C300.998 114.573 300.481 115.091 299.842 115.091C299.203 115.091 298.686 114.574 298.686 113.935C298.686 113.296 299.204 112.779 299.842 112.779C300.48 112.779 300.998 113.296 300.998 113.935Z" fill="#0082CB"/>
<path d="M309.618 113.935C309.618 114.573 309.1 115.091 308.462 115.091C307.823 115.091 307.305 114.574 307.305 113.935C307.305 113.296 307.823 112.779 308.462 112.779C309.1 112.779 309.618 113.296 309.618 113.935Z" fill="#0082CB"/>
<path d="M318.236 113.935C318.236 114.573 317.718 115.091 317.08 115.091C316.442 115.091 315.924 114.574 315.924 113.935C315.924 113.296 316.441 112.779 317.08 112.779C317.719 112.779 318.236 113.296 318.236 113.935Z" fill="#0082CB"/>
<path d="M325.699 115.091C326.338 115.091 326.855 114.573 326.855 113.935C326.855 113.296 326.338 112.779 325.699 112.779C325.061 112.779 324.543 113.296 324.543 113.935C324.543 114.573 325.061 115.091 325.699 115.091Z" fill="#0082CB"/>
<path d="M334.318 115.091C334.957 115.091 335.474 114.573 335.474 113.935C335.474 113.296 334.957 112.779 334.318 112.779C333.68 112.779 333.162 113.296 333.162 113.935C333.162 114.573 333.68 115.091 334.318 115.091Z" fill="#0082CB"/>
<path d="M214.81 121.166C214.81 121.804 214.293 122.322 213.654 122.322C213.015 122.322 212.498 121.805 212.498 121.166C212.498 120.527 213.016 120.01 213.654 120.01C214.293 120.01 214.81 120.527 214.81 121.166Z" fill="#0082CB"/>
<path d="M223.429 121.166C223.429 121.804 222.911 122.322 222.273 122.322C221.635 122.322 221.117 121.805 221.117 121.166C221.117 120.527 221.635 120.01 222.273 120.01C222.911 120.01 223.429 120.527 223.429 121.166Z" fill="#0082CB"/>
<path d="M232.048 121.166C232.048 121.804 231.53 122.322 230.891 122.322C230.253 122.322 229.735 121.805 229.735 121.166C229.735 120.527 230.252 120.01 230.891 120.01C231.53 120.01 232.048 120.527 232.048 121.166Z" fill="#0082CB"/>
<path d="M239.51 122.322C240.149 122.322 240.666 121.804 240.666 121.166C240.666 120.527 240.149 120.01 239.51 120.01C238.872 120.01 238.354 120.527 238.354 121.166C238.354 121.804 238.872 122.322 239.51 122.322Z" fill="#0082CB"/>
<path d="M248.129 122.322C248.768 122.322 249.286 121.804 249.286 121.166C249.286 120.527 248.768 120.01 248.129 120.01C247.491 120.01 246.973 120.527 246.973 121.166C246.973 121.804 247.491 122.322 248.129 122.322Z" fill="#0082CB"/>
<path d="M257.904 121.166C257.904 121.804 257.387 122.322 256.748 122.322C256.109 122.322 255.592 121.805 255.592 121.166C255.592 120.527 256.11 120.01 256.748 120.01C257.387 120.01 257.904 120.527 257.904 121.166Z" fill="#0082CB"/>
<path d="M266.523 121.166C266.523 121.804 266.005 122.322 265.367 122.322C264.729 122.322 264.211 121.805 264.211 121.166C264.211 120.527 264.729 120.01 265.367 120.01C266.005 120.01 266.523 120.527 266.523 121.166Z" fill="#0082CB"/>
<path d="M275.142 121.166C275.142 121.804 274.625 122.322 273.986 122.322C273.348 122.322 272.83 121.805 272.83 121.166C272.83 120.527 273.347 120.01 273.986 120.01C274.625 120.01 275.142 120.527 275.142 121.166Z" fill="#0082CB"/>
<path d="M282.605 122.322C283.244 122.322 283.761 121.804 283.761 121.166C283.761 120.527 283.244 120.01 282.605 120.01C281.967 120.01 281.449 120.527 281.449 121.166C281.449 121.804 281.967 122.322 282.605 122.322Z" fill="#0082CB"/>
<path d="M291.223 122.322C291.862 122.322 292.38 121.804 292.38 121.166C292.38 120.527 291.862 120.01 291.223 120.01C290.585 120.01 290.067 120.527 290.067 121.166C290.067 121.804 290.585 122.322 291.223 122.322Z" fill="#0082CB"/>
<path d="M300.998 121.166C300.998 121.804 300.481 122.322 299.842 122.322C299.203 122.322 298.686 121.805 298.686 121.166C298.686 120.527 299.204 120.01 299.842 120.01C300.48 120.01 300.998 120.527 300.998 121.166Z" fill="#0082CB"/>
<path d="M309.618 121.166C309.618 121.804 309.1 122.322 308.462 122.322C307.823 122.322 307.305 121.805 307.305 121.166C307.305 120.527 307.823 120.01 308.462 120.01C309.1 120.01 309.618 120.527 309.618 121.166Z" fill="#0082CB"/>
<path d="M318.236 121.166C318.236 121.804 317.718 122.322 317.08 122.322C316.442 122.322 315.924 121.805 315.924 121.166C315.924 120.527 316.441 120.01 317.08 120.01C317.719 120.01 318.236 120.527 318.236 121.166Z" fill="#0082CB"/>
<path d="M325.699 122.322C326.338 122.322 326.855 121.804 326.855 121.166C326.855 120.527 326.338 120.01 325.699 120.01C325.061 120.01 324.543 120.527 324.543 121.166C324.543 121.804 325.061 122.322 325.699 122.322Z" fill="#0082CB"/>
<path d="M334.318 122.322C334.957 122.322 335.474 121.804 335.474 121.166C335.474 120.527 334.957 120.01 334.318 120.01C333.68 120.01 333.162 120.527 333.162 121.166C333.162 121.804 333.68 122.322 334.318 122.322Z" fill="#0082CB"/>
<path d="M214.81 128.396C214.81 129.034 214.293 129.552 213.654 129.552C213.015 129.552 212.498 129.035 212.498 128.396C212.498 127.757 213.016 127.24 213.654 127.24C214.293 127.24 214.81 127.757 214.81 128.396Z" fill="#0082CB"/>
<path d="M223.429 128.396C223.429 129.034 222.911 129.552 222.273 129.552C221.635 129.552 221.117 129.035 221.117 128.396C221.117 127.757 221.635 127.24 222.273 127.24C222.911 127.24 223.429 127.757 223.429 128.396Z" fill="#0082CB"/>
<path d="M232.048 128.396C232.048 129.034 231.53 129.552 230.891 129.552C230.253 129.552 229.735 129.035 229.735 128.396C229.735 127.757 230.252 127.24 230.891 127.24C231.53 127.24 232.048 127.757 232.048 128.396Z" fill="#0082CB"/>
<path d="M239.51 129.552C240.149 129.552 240.666 129.034 240.666 128.396C240.666 127.757 240.149 127.24 239.51 127.24C238.872 127.24 238.354 127.757 238.354 128.396C238.354 129.034 238.872 129.552 239.51 129.552Z" fill="#0082CB"/>
<path d="M248.129 129.552C248.768 129.552 249.286 129.034 249.286 128.396C249.286 127.757 248.768 127.24 248.129 127.24C247.491 127.24 246.973 127.757 246.973 128.396C246.973 129.034 247.491 129.552 248.129 129.552Z" fill="#0082CB"/>
<path d="M257.904 128.396C257.904 129.034 257.387 129.552 256.748 129.552C256.109 129.552 255.592 129.035 255.592 128.396C255.592 127.757 256.11 127.24 256.748 127.24C257.387 127.24 257.904 127.757 257.904 128.396Z" fill="#0082CB"/>
<path d="M266.523 128.396C266.523 129.034 266.005 129.552 265.367 129.552C264.729 129.552 264.211 129.035 264.211 128.396C264.211 127.757 264.729 127.24 265.367 127.24C266.005 127.24 266.523 127.757 266.523 128.396Z" fill="#0082CB"/>
<path d="M275.142 128.396C275.142 129.034 274.625 129.552 273.986 129.552C273.348 129.552 272.83 129.035 272.83 128.396C272.83 127.757 273.347 127.24 273.986 127.24C274.625 127.24 275.142 127.757 275.142 128.396Z" fill="#0082CB"/>
<path d="M282.605 129.552C283.244 129.552 283.761 129.034 283.761 128.396C283.761 127.757 283.244 127.24 282.605 127.24C281.967 127.24 281.449 127.757 281.449 128.396C281.449 129.034 281.967 129.552 282.605 129.552Z" fill="#0082CB"/>
<path d="M291.223 129.552C291.862 129.552 292.38 129.034 292.38 128.396C292.38 127.757 291.862 127.24 291.223 127.24C290.585 127.24 290.067 127.757 290.067 128.396C290.067 129.034 290.585 129.552 291.223 129.552Z" fill="#0082CB"/>
<path d="M300.998 128.396C300.998 129.034 300.481 129.552 299.842 129.552C299.203 129.552 298.686 129.035 298.686 128.396C298.686 127.757 299.204 127.24 299.842 127.24C300.48 127.24 300.998 127.757 300.998 128.396Z" fill="#0082CB"/>
<path d="M309.618 128.396C309.618 129.034 309.1 129.552 308.462 129.552C307.823 129.552 307.305 129.035 307.305 128.396C307.305 127.757 307.823 127.24 308.462 127.24C309.1 127.24 309.618 127.757 309.618 128.396Z" fill="#0082CB"/>
<path d="M318.236 128.396C318.236 129.034 317.718 129.552 317.08 129.552C316.442 129.552 315.924 129.035 315.924 128.396C315.924 127.757 316.441 127.24 317.08 127.24C317.719 127.24 318.236 127.757 318.236 128.396Z" fill="#0082CB"/>
<path d="M325.699 129.552C326.338 129.552 326.855 129.034 326.855 128.396C326.855 127.757 326.338 127.24 325.699 127.24C325.061 127.24 324.543 127.757 324.543 128.396C324.543 129.034 325.061 129.552 325.699 129.552Z" fill="#0082CB"/>
<path d="M334.318 129.552C334.957 129.552 335.474 129.034 335.474 128.396C335.474 127.757 334.957 127.24 334.318 127.24C333.68 127.24 333.162 127.757 333.162 128.396C333.162 129.034 333.68 129.552 334.318 129.552Z" fill="#0082CB"/>
<path d="M214.81 135.627C214.81 136.265 214.293 136.783 213.654 136.783C213.015 136.783 212.498 136.266 212.498 135.627C212.498 134.988 213.016 134.47 213.654 134.47C214.293 134.47 214.81 134.988 214.81 135.627Z" fill="#0082CB"/>
<path d="M223.429 135.627C223.429 136.265 222.911 136.783 222.273 136.783C221.635 136.783 221.117 136.266 221.117 135.627C221.117 134.988 221.635 134.47 222.273 134.47C222.911 134.47 223.429 134.988 223.429 135.627Z" fill="#0082CB"/>
<path d="M232.048 135.627C232.048 136.265 231.53 136.783 230.891 136.783C230.253 136.783 229.735 136.266 229.735 135.627C229.735 134.988 230.252 134.47 230.891 134.47C231.53 134.47 232.048 134.988 232.048 135.627Z" fill="#0082CB"/>
<path d="M240.666 135.627C240.666 136.265 240.149 136.783 239.51 136.783C238.871 136.783 238.354 136.266 238.354 135.627C238.354 134.988 238.871 134.47 239.51 134.47C240.149 134.47 240.666 134.988 240.666 135.627Z" fill="#0082CB"/>
<path d="M249.286 135.627C249.286 136.265 248.768 136.783 248.129 136.783C247.49 136.783 246.973 136.266 246.973 135.627C246.973 134.988 247.49 134.47 248.129 134.47C248.768 134.47 249.286 134.988 249.286 135.627Z" fill="#0082CB"/>
<path d="M257.904 135.627C257.904 136.265 257.387 136.783 256.748 136.783C256.109 136.783 255.592 136.266 255.592 135.627C255.592 134.988 256.11 134.47 256.748 134.47C257.387 134.47 257.904 134.988 257.904 135.627Z" fill="#0082CB"/>
<path d="M266.523 135.627C266.523 136.265 266.005 136.783 265.367 136.783C264.729 136.783 264.211 136.266 264.211 135.627C264.211 134.988 264.729 134.47 265.367 134.47C266.005 134.47 266.523 134.988 266.523 135.627Z" fill="#0082CB"/>
<path d="M275.142 135.627C275.142 136.265 274.625 136.783 273.986 136.783C273.348 136.783 272.83 136.266 272.83 135.627C272.83 134.988 273.347 134.47 273.986 134.47C274.625 134.47 275.142 134.988 275.142 135.627Z" fill="#0082CB"/>
<path d="M283.761 135.627C283.761 136.265 283.244 136.783 282.605 136.783C281.966 136.783 281.449 136.266 281.449 135.627C281.449 134.988 281.966 134.47 282.605 134.47C283.244 134.47 283.761 134.988 283.761 135.627Z" fill="#0082CB"/>
<path d="M292.38 135.627C292.38 136.265 291.862 136.783 291.223 136.783C290.584 136.783 290.067 136.266 290.067 135.627C290.067 134.988 290.584 134.47 291.223 134.47C291.862 134.47 292.38 134.988 292.38 135.627Z" fill="#0082CB"/>
<path d="M300.998 135.627C300.998 136.265 300.481 136.783 299.842 136.783C299.203 136.783 298.686 136.266 298.686 135.627C298.686 134.988 299.204 134.47 299.842 134.47C300.48 134.47 300.998 134.988 300.998 135.627Z" fill="#0082CB"/>
<path d="M309.618 135.627C309.618 136.265 309.1 136.783 308.462 136.783C307.823 136.783 307.305 136.266 307.305 135.627C307.305 134.988 307.823 134.47 308.462 134.47C309.1 134.47 309.618 134.988 309.618 135.627Z" fill="#0082CB"/>
<path d="M318.236 135.627C318.236 136.265 317.718 136.783 317.08 136.783C316.442 136.783 315.924 136.266 315.924 135.627C315.924 134.988 316.441 134.47 317.08 134.47C317.719 134.47 318.236 134.988 318.236 135.627Z" fill="#0082CB"/>
<path d="M326.855 135.627C326.855 136.265 326.338 136.783 325.699 136.783C325.06 136.783 324.543 136.266 324.543 135.627C324.543 134.988 325.06 134.47 325.699 134.47C326.338 134.47 326.855 134.988 326.855 135.627Z" fill="#0082CB"/>
<path d="M335.474 135.627C335.474 136.265 334.957 136.783 334.318 136.783C333.679 136.783 333.162 136.266 333.162 135.627C333.162 134.988 333.679 134.47 334.318 134.47C334.957 134.47 335.474 134.988 335.474 135.627Z" fill="#0082CB"/>
<path d="M214.81 142.858C214.81 143.496 214.293 144.014 213.654 144.014C213.015 144.014 212.498 143.497 212.498 142.858C212.498 142.218 213.016 141.701 213.654 141.701C214.293 141.701 214.81 142.218 214.81 142.858Z" fill="#0082CB"/>
<path d="M223.429 142.858C223.429 143.496 222.911 144.014 222.273 144.014C221.635 144.014 221.117 143.497 221.117 142.858C221.117 142.218 221.635 141.701 222.273 141.701C222.911 141.701 223.429 142.218 223.429 142.858Z" fill="#0082CB"/>
<path d="M232.048 142.858C232.048 143.496 231.53 144.014 230.891 144.014C230.253 144.014 229.735 143.497 229.735 142.858C229.735 142.218 230.252 141.701 230.891 141.701C231.53 141.701 232.048 142.218 232.048 142.858Z" fill="#0082CB"/>
<path d="M239.51 144.014C240.149 144.014 240.666 143.496 240.666 142.858C240.666 142.219 240.149 141.701 239.51 141.701C238.872 141.701 238.354 142.219 238.354 142.858C238.354 143.496 238.872 144.014 239.51 144.014Z" fill="#0082CB"/>
<path d="M248.129 144.014C248.768 144.014 249.286 143.496 249.286 142.858C249.286 142.219 248.768 141.701 248.129 141.701C247.491 141.701 246.973 142.219 246.973 142.858C246.973 143.496 247.491 144.014 248.129 144.014Z" fill="#0082CB"/>
<path d="M257.904 142.858C257.904 143.496 257.387 144.014 256.748 144.014C256.109 144.014 255.592 143.497 255.592 142.858C255.592 142.218 256.11 141.701 256.748 141.701C257.387 141.701 257.904 142.218 257.904 142.858Z" fill="#0082CB"/>
<path d="M266.523 142.858C266.523 143.496 266.005 144.014 265.367 144.014C264.729 144.014 264.211 143.497 264.211 142.858C264.211 142.218 264.729 141.701 265.367 141.701C266.005 141.701 266.523 142.218 266.523 142.858Z" fill="#0082CB"/>
<path d="M275.142 142.858C275.142 143.496 274.625 144.014 273.986 144.014C273.348 144.014 272.83 143.497 272.83 142.858C272.83 142.218 273.347 141.701 273.986 141.701C274.625 141.701 275.142 142.218 275.142 142.858Z" fill="#0082CB"/>
<path d="M282.605 144.014C283.244 144.014 283.761 143.496 283.761 142.858C283.761 142.219 283.244 141.701 282.605 141.701C281.967 141.701 281.449 142.219 281.449 142.858C281.449 143.496 281.967 144.014 282.605 144.014Z" fill="#0082CB"/>
<path d="M291.223 144.014C291.862 144.014 292.38 143.496 292.38 142.858C292.38 142.219 291.862 141.701 291.223 141.701C290.585 141.701 290.067 142.219 290.067 142.858C290.067 143.496 290.585 144.014 291.223 144.014Z" fill="#0082CB"/>
<path d="M300.998 142.858C300.998 143.496 300.481 144.014 299.842 144.014C299.203 144.014 298.686 143.497 298.686 142.858C298.686 142.218 299.204 141.701 299.842 141.701C300.48 141.701 300.998 142.218 300.998 142.858Z" fill="#0082CB"/>
<path d="M309.618 142.858C309.618 143.496 309.1 144.014 308.462 144.014C307.823 144.014 307.305 143.497 307.305 142.858C307.305 142.218 307.823 141.701 308.462 141.701C309.1 141.701 309.618 142.218 309.618 142.858Z" fill="#0082CB"/>
<path d="M318.236 142.858C318.236 143.496 317.718 144.014 317.08 144.014C316.442 144.014 315.924 143.497 315.924 142.858C315.924 142.218 316.441 141.701 317.08 141.701C317.719 141.701 318.236 142.218 318.236 142.858Z" fill="#0082CB"/>
<path d="M325.699 144.014C326.338 144.014 326.855 143.496 326.855 142.858C326.855 142.219 326.338 141.701 325.699 141.701C325.061 141.701 324.543 142.219 324.543 142.858C324.543 143.496 325.061 144.014 325.699 144.014Z" fill="#0082CB"/>
<path d="M334.318 144.014C334.957 144.014 335.474 143.496 335.474 142.858C335.474 142.219 334.957 141.701 334.318 141.701C333.68 141.701 333.162 142.219 333.162 142.858C333.162 143.496 333.68 144.014 334.318 144.014Z" fill="#0082CB"/>
<path d="M214.81 150.087C214.81 150.726 214.293 151.244 213.654 151.244C213.015 151.244 212.498 150.726 212.498 150.087C212.498 149.449 213.016 148.931 213.654 148.931C214.293 148.931 214.81 149.448 214.81 150.087Z" fill="#0082CB"/>
<path d="M223.429 150.087C223.429 150.726 222.911 151.244 222.273 151.244C221.635 151.244 221.117 150.726 221.117 150.087C221.117 149.449 221.635 148.931 222.273 148.931C222.911 148.931 223.429 149.448 223.429 150.087Z" fill="#0082CB"/>
<path d="M232.048 150.087C232.048 150.726 231.53 151.244 230.891 151.244C230.253 151.244 229.735 150.726 229.735 150.087C229.735 149.449 230.252 148.931 230.891 148.931C231.53 148.931 232.048 149.448 232.048 150.087Z" fill="#0082CB"/>
<path d="M239.51 151.244C240.149 151.244 240.666 150.726 240.666 150.087C240.666 149.449 240.149 148.931 239.51 148.931C238.872 148.931 238.354 149.449 238.354 150.087C238.354 150.726 238.872 151.244 239.51 151.244Z" fill="#0082CB"/>
<path d="M248.129 151.244C248.768 151.244 249.286 150.726 249.286 150.087C249.286 149.449 248.768 148.931 248.129 148.931C247.491 148.931 246.973 149.449 246.973 150.087C246.973 150.726 247.491 151.244 248.129 151.244Z" fill="#0082CB"/>
<path d="M257.904 150.087C257.904 150.726 257.387 151.244 256.748 151.244C256.109 151.244 255.592 150.726 255.592 150.087C255.592 149.449 256.11 148.931 256.748 148.931C257.387 148.931 257.904 149.448 257.904 150.087Z" fill="#0082CB"/>
<path d="M266.523 150.087C266.523 150.726 266.005 151.244 265.367 151.244C264.729 151.244 264.211 150.726 264.211 150.087C264.211 149.449 264.729 148.931 265.367 148.931C266.005 148.931 266.523 149.448 266.523 150.087Z" fill="#0082CB"/>
<path d="M275.142 150.087C275.142 150.726 274.625 151.244 273.986 151.244C273.348 151.244 272.83 150.726 272.83 150.087C272.83 149.449 273.347 148.931 273.986 148.931C274.625 148.931 275.142 149.448 275.142 150.087Z" fill="#0082CB"/>
<path d="M282.605 151.244C283.244 151.244 283.761 150.726 283.761 150.087C283.761 149.449 283.244 148.931 282.605 148.931C281.967 148.931 281.449 149.449 281.449 150.087C281.449 150.726 281.967 151.244 282.605 151.244Z" fill="#0082CB"/>
<path d="M291.223 151.244C291.862 151.244 292.38 150.726 292.38 150.087C292.38 149.449 291.862 148.931 291.223 148.931C290.585 148.931 290.067 149.449 290.067 150.087C290.067 150.726 290.585 151.244 291.223 151.244Z" fill="#0082CB"/>
<path d="M300.998 150.087C300.998 150.726 300.481 151.244 299.842 151.244C299.203 151.244 298.686 150.726 298.686 150.087C298.686 149.449 299.204 148.931 299.842 148.931C300.48 148.931 300.998 149.448 300.998 150.087Z" fill="#0082CB"/>
<path d="M309.618 150.087C309.618 150.726 309.1 151.244 308.462 151.244C307.823 151.244 307.305 150.726 307.305 150.087C307.305 149.449 307.823 148.931 308.462 148.931C309.1 148.931 309.618 149.448 309.618 150.087Z" fill="#0082CB"/>
<path d="M318.236 150.087C318.236 150.726 317.718 151.244 317.08 151.244C316.442 151.244 315.924 150.726 315.924 150.087C315.924 149.449 316.441 148.931 317.08 148.931C317.719 148.931 318.236 149.448 318.236 150.087Z" fill="#0082CB"/>
<path d="M325.699 151.244C326.338 151.244 326.855 150.726 326.855 150.087C326.855 149.449 326.338 148.931 325.699 148.931C325.061 148.931 324.543 149.449 324.543 150.087C324.543 150.726 325.061 151.244 325.699 151.244Z" fill="#0082CB"/>
<path d="M334.318 151.244C334.957 151.244 335.474 150.726 335.474 150.087C335.474 149.449 334.957 148.931 334.318 148.931C333.68 148.931 333.162 149.449 333.162 150.087C333.162 150.726 333.68 151.244 334.318 151.244Z" fill="#0082CB"/>
<path d="M214.81 157.318C214.81 157.956 214.293 158.474 213.654 158.474C213.015 158.474 212.498 157.957 212.498 157.318C212.498 156.679 213.016 156.162 213.654 156.162C214.293 156.162 214.81 156.679 214.81 157.318Z" fill="#0082CB"/>
<path d="M223.429 157.318C223.429 157.956 222.911 158.474 222.273 158.474C221.635 158.474 221.117 157.957 221.117 157.318C221.117 156.679 221.635 156.162 222.273 156.162C222.911 156.162 223.429 156.679 223.429 157.318Z" fill="#0082CB"/>
<path d="M232.048 157.318C232.048 157.956 231.53 158.474 230.891 158.474C230.253 158.474 229.735 157.957 229.735 157.318C229.735 156.679 230.252 156.162 230.891 156.162C231.53 156.162 232.048 156.679 232.048 157.318Z" fill="#0082CB"/>
<path d="M240.666 157.318C240.666 157.956 240.149 158.474 239.51 158.474C238.871 158.474 238.354 157.957 238.354 157.318C238.354 156.679 238.871 156.162 239.51 156.162C240.149 156.162 240.666 156.679 240.666 157.318Z" fill="#0082CB"/>
<path d="M249.286 157.318C249.286 157.956 248.768 158.474 248.129 158.474C247.49 158.474 246.973 157.957 246.973 157.318C246.973 156.679 247.49 156.162 248.129 156.162C248.768 156.162 249.286 156.679 249.286 157.318Z" fill="#0082CB"/>
<path d="M257.904 157.318C257.904 157.956 257.387 158.474 256.748 158.474C256.109 158.474 255.592 157.957 255.592 157.318C255.592 156.679 256.11 156.162 256.748 156.162C257.387 156.162 257.904 156.679 257.904 157.318Z" fill="#0082CB"/>
<path d="M266.523 157.318C266.523 157.956 266.005 158.474 265.367 158.474C264.729 158.474 264.211 157.957 264.211 157.318C264.211 156.679 264.729 156.162 265.367 156.162C266.005 156.162 266.523 156.679 266.523 157.318Z" fill="#0082CB"/>
<path d="M275.142 157.318C275.142 157.956 274.625 158.474 273.986 158.474C273.348 158.474 272.83 157.957 272.83 157.318C272.83 156.679 273.347 156.162 273.986 156.162C274.625 156.162 275.142 156.679 275.142 157.318Z" fill="#0082CB"/>
<path d="M283.761 157.318C283.761 157.956 283.244 158.474 282.605 158.474C281.966 158.474 281.449 157.957 281.449 157.318C281.449 156.679 281.966 156.162 282.605 156.162C283.244 156.162 283.761 156.679 283.761 157.318Z" fill="#0082CB"/>
<path d="M292.38 157.318C292.38 157.956 291.862 158.474 291.223 158.474C290.584 158.474 290.067 157.957 290.067 157.318C290.067 156.679 290.584 156.162 291.223 156.162C291.862 156.162 292.38 156.679 292.38 157.318Z" fill="#0082CB"/>
<path d="M300.998 157.318C300.998 157.956 300.481 158.474 299.842 158.474C299.203 158.474 298.686 157.957 298.686 157.318C298.686 156.679 299.204 156.162 299.842 156.162C300.48 156.162 300.998 156.679 300.998 157.318Z" fill="#0082CB"/>
<path d="M309.618 157.318C309.618 157.956 309.1 158.474 308.462 158.474C307.823 158.474 307.305 157.957 307.305 157.318C307.305 156.679 307.823 156.162 308.462 156.162C309.1 156.162 309.618 156.679 309.618 157.318Z" fill="#0082CB"/>
<path d="M318.236 157.318C318.236 157.956 317.718 158.474 317.08 158.474C316.442 158.474 315.924 157.957 315.924 157.318C315.924 156.679 316.441 156.162 317.08 156.162C317.719 156.162 318.236 156.679 318.236 157.318Z" fill="#0082CB"/>
<path d="M326.855 157.318C326.855 157.956 326.338 158.474 325.699 158.474C325.06 158.474 324.543 157.957 324.543 157.318C324.543 156.679 325.06 156.162 325.699 156.162C326.338 156.162 326.855 156.679 326.855 157.318Z" fill="#0082CB"/>
<path d="M335.474 157.318C335.474 157.956 334.957 158.474 334.318 158.474C333.679 158.474 333.162 157.957 333.162 157.318C333.162 156.679 333.679 156.162 334.318 156.162C334.957 156.162 335.474 156.679 335.474 157.318Z" fill="#0082CB"/>
<path d="M214.81 164.548C214.81 165.187 214.293 165.704 213.654 165.704C213.015 165.704 212.498 165.187 212.498 164.548C212.498 163.909 213.016 163.392 213.654 163.392C214.293 163.392 214.81 163.909 214.81 164.548Z" fill="#0082CB"/>
<path d="M223.429 164.548C223.429 165.187 222.911 165.704 222.273 165.704C221.635 165.704 221.117 165.187 221.117 164.548C221.117 163.909 221.635 163.392 222.273 163.392C222.911 163.392 223.429 163.909 223.429 164.548Z" fill="#0082CB"/>
<path d="M232.048 164.548C232.048 165.187 231.53 165.704 230.891 165.704C230.253 165.704 229.735 165.187 229.735 164.548C229.735 163.909 230.252 163.392 230.891 163.392C231.53 163.392 232.048 163.909 232.048 164.548Z" fill="#0082CB"/>
<path d="M239.51 165.704C240.149 165.704 240.666 165.187 240.666 164.548C240.666 163.91 240.149 163.392 239.51 163.392C238.872 163.392 238.354 163.91 238.354 164.548C238.354 165.187 238.872 165.704 239.51 165.704Z" fill="#0082CB"/>
<path d="M248.129 165.704C248.768 165.704 249.286 165.187 249.286 164.548C249.286 163.91 248.768 163.392 248.129 163.392C247.491 163.392 246.973 163.91 246.973 164.548C246.973 165.187 247.491 165.704 248.129 165.704Z" fill="#0082CB"/>
<path d="M257.904 164.548C257.904 165.187 257.387 165.704 256.748 165.704C256.109 165.704 255.592 165.187 255.592 164.548C255.592 163.909 256.11 163.392 256.748 163.392C257.387 163.392 257.904 163.909 257.904 164.548Z" fill="#0082CB"/>
<path d="M266.523 164.548C266.523 165.187 266.005 165.704 265.367 165.704C264.729 165.704 264.211 165.187 264.211 164.548C264.211 163.909 264.729 163.392 265.367 163.392C266.005 163.392 266.523 163.909 266.523 164.548Z" fill="#0082CB"/>
<path d="M275.142 164.548C275.142 165.187 274.625 165.704 273.986 165.704C273.348 165.704 272.83 165.187 272.83 164.548C272.83 163.909 273.347 163.392 273.986 163.392C274.625 163.392 275.142 163.909 275.142 164.548Z" fill="#0082CB"/>
<path d="M282.605 165.704C283.244 165.704 283.761 165.187 283.761 164.548C283.761 163.91 283.244 163.392 282.605 163.392C281.967 163.392 281.449 163.91 281.449 164.548C281.449 165.187 281.967 165.704 282.605 165.704Z" fill="#0082CB"/>
<path d="M291.223 165.704C291.862 165.704 292.38 165.187 292.38 164.548C292.38 163.91 291.862 163.392 291.223 163.392C290.585 163.392 290.067 163.91 290.067 164.548C290.067 165.187 290.585 165.704 291.223 165.704Z" fill="#0082CB"/>
<path d="M300.998 164.548C300.998 165.187 300.481 165.704 299.842 165.704C299.203 165.704 298.686 165.187 298.686 164.548C298.686 163.909 299.204 163.392 299.842 163.392C300.48 163.392 300.998 163.909 300.998 164.548Z" fill="#0082CB"/>
<path d="M309.618 164.548C309.618 165.187 309.1 165.704 308.462 165.704C307.823 165.704 307.305 165.187 307.305 164.548C307.305 163.909 307.823 163.392 308.462 163.392C309.1 163.392 309.618 163.909 309.618 164.548Z" fill="#0082CB"/>
<path d="M318.236 164.548C318.236 165.187 317.718 165.704 317.08 165.704C316.442 165.704 315.924 165.187 315.924 164.548C315.924 163.909 316.441 163.392 317.08 163.392C317.719 163.392 318.236 163.909 318.236 164.548Z" fill="#0082CB"/>
<path d="M325.699 165.704C326.338 165.704 326.855 165.187 326.855 164.548C326.855 163.91 326.338 163.392 325.699 163.392C325.061 163.392 324.543 163.91 324.543 164.548C324.543 165.187 325.061 165.704 325.699 165.704Z" fill="#0082CB"/>
<path d="M334.318 165.704C334.957 165.704 335.474 165.187 335.474 164.548C335.474 163.91 334.957 163.392 334.318 163.392C333.68 163.392 333.162 163.91 333.162 164.548C333.162 165.187 333.68 165.704 334.318 165.704Z" fill="#0082CB"/>
<path d="M214.81 171.779C214.81 172.417 214.293 172.935 213.654 172.935C213.015 172.935 212.498 172.418 212.498 171.779C212.498 171.14 213.016 170.623 213.654 170.623C214.293 170.623 214.81 171.14 214.81 171.779Z" fill="#0082CB"/>
<path d="M223.429 171.779C223.429 172.417 222.911 172.935 222.273 172.935C221.635 172.935 221.117 172.418 221.117 171.779C221.117 171.14 221.635 170.623 222.273 170.623C222.911 170.623 223.429 171.14 223.429 171.779Z" fill="#0082CB"/>
<path d="M232.048 171.779C232.048 172.417 231.53 172.935 230.891 172.935C230.253 172.935 229.735 172.418 229.735 171.779C229.735 171.14 230.252 170.623 230.891 170.623C231.53 170.623 232.048 171.14 232.048 171.779Z" fill="#0082CB"/>
<path d="M239.51 172.935C240.149 172.935 240.666 172.418 240.666 171.779C240.666 171.141 240.149 170.623 239.51 170.623C238.872 170.623 238.354 171.141 238.354 171.779C238.354 172.418 238.872 172.935 239.51 172.935Z" fill="#0082CB"/>
<path d="M248.129 172.935C248.768 172.935 249.286 172.418 249.286 171.779C249.286 171.141 248.768 170.623 248.129 170.623C247.491 170.623 246.973 171.141 246.973 171.779C246.973 172.418 247.491 172.935 248.129 172.935Z" fill="#0082CB"/>
<path d="M257.904 171.779C257.904 172.417 257.387 172.935 256.748 172.935C256.109 172.935 255.592 172.418 255.592 171.779C255.592 171.14 256.11 170.623 256.748 170.623C257.387 170.623 257.904 171.14 257.904 171.779Z" fill="#0082CB"/>
<path d="M266.523 171.779C266.523 172.417 266.005 172.935 265.367 172.935C264.729 172.935 264.211 172.418 264.211 171.779C264.211 171.14 264.729 170.623 265.367 170.623C266.005 170.623 266.523 171.14 266.523 171.779Z" fill="#0082CB"/>
<path d="M275.142 171.779C275.142 172.417 274.625 172.935 273.986 172.935C273.348 172.935 272.83 172.418 272.83 171.779C272.83 171.14 273.347 170.623 273.986 170.623C274.625 170.623 275.142 171.14 275.142 171.779Z" fill="#0082CB"/>
<path d="M282.605 172.935C283.244 172.935 283.761 172.418 283.761 171.779C283.761 171.141 283.244 170.623 282.605 170.623C281.967 170.623 281.449 171.141 281.449 171.779C281.449 172.418 281.967 172.935 282.605 172.935Z" fill="#0082CB"/>
<path d="M291.223 172.935C291.862 172.935 292.38 172.418 292.38 171.779C292.38 171.141 291.862 170.623 291.223 170.623C290.585 170.623 290.067 171.141 290.067 171.779C290.067 172.418 290.585 172.935 291.223 172.935Z" fill="#0082CB"/>
<path d="M300.998 171.779C300.998 172.417 300.481 172.935 299.842 172.935C299.203 172.935 298.686 172.418 298.686 171.779C298.686 171.14 299.204 170.623 299.842 170.623C300.48 170.623 300.998 171.14 300.998 171.779Z" fill="#0082CB"/>
<path d="M309.618 171.779C309.618 172.417 309.1 172.935 308.462 172.935C307.823 172.935 307.305 172.418 307.305 171.779C307.305 171.14 307.823 170.623 308.462 170.623C309.1 170.623 309.618 171.14 309.618 171.779Z" fill="#0082CB"/>
<path d="M318.236 171.779C318.236 172.417 317.718 172.935 317.08 172.935C316.442 172.935 315.924 172.418 315.924 171.779C315.924 171.14 316.441 170.623 317.08 170.623C317.719 170.623 318.236 171.14 318.236 171.779Z" fill="#0082CB"/>
<path d="M325.699 172.935C326.338 172.935 326.855 172.418 326.855 171.779C326.855 171.141 326.338 170.623 325.699 170.623C325.061 170.623 324.543 171.141 324.543 171.779C324.543 172.418 325.061 172.935 325.699 172.935Z" fill="#0082CB"/>
<path d="M334.318 172.935C334.957 172.935 335.474 172.418 335.474 171.779C335.474 171.141 334.957 170.623 334.318 170.623C333.68 170.623 333.162 171.141 333.162 171.779C333.162 172.418 333.68 172.935 334.318 172.935Z" fill="#0082CB"/>
<path d="M214.81 179.009C214.81 179.647 214.293 180.165 213.654 180.165C213.015 180.165 212.498 179.648 212.498 179.009C212.498 178.37 213.016 177.853 213.654 177.853C214.293 177.853 214.81 178.371 214.81 179.009Z" fill="#0082CB"/>
<path d="M223.429 179.009C223.429 179.647 222.911 180.165 222.273 180.165C221.635 180.165 221.117 179.648 221.117 179.009C221.117 178.37 221.635 177.853 222.273 177.853C222.911 177.853 223.429 178.371 223.429 179.009Z" fill="#0082CB"/>
<path d="M232.048 179.009C232.048 179.647 231.53 180.165 230.891 180.165C230.253 180.165 229.735 179.648 229.735 179.009C229.735 178.37 230.252 177.853 230.891 177.853C231.53 177.853 232.048 178.371 232.048 179.009Z" fill="#0082CB"/>
<path d="M240.666 179.009C240.666 179.647 240.149 180.165 239.51 180.165C238.871 180.165 238.354 179.648 238.354 179.009C238.354 178.37 238.871 177.853 239.51 177.853C240.149 177.853 240.666 178.371 240.666 179.009Z" fill="#0082CB"/>
<path d="M249.286 179.009C249.286 179.647 248.768 180.165 248.129 180.165C247.49 180.165 246.973 179.648 246.973 179.009C246.973 178.37 247.49 177.853 248.129 177.853C248.768 177.853 249.286 178.371 249.286 179.009Z" fill="#0082CB"/>
<path d="M257.904 179.009C257.904 179.647 257.387 180.165 256.748 180.165C256.109 180.165 255.592 179.648 255.592 179.009C255.592 178.37 256.11 177.853 256.748 177.853C257.387 177.853 257.904 178.371 257.904 179.009Z" fill="#0082CB"/>
<path d="M266.523 179.009C266.523 179.647 266.005 180.165 265.367 180.165C264.729 180.165 264.211 179.648 264.211 179.009C264.211 178.37 264.729 177.853 265.367 177.853C266.005 177.853 266.523 178.371 266.523 179.009Z" fill="#0082CB"/>
<path d="M275.142 179.009C275.142 179.647 274.625 180.165 273.986 180.165C273.348 180.165 272.83 179.648 272.83 179.009C272.83 178.37 273.347 177.853 273.986 177.853C274.625 177.853 275.142 178.371 275.142 179.009Z" fill="#0082CB"/>
<path d="M283.761 179.009C283.761 179.647 283.244 180.165 282.605 180.165C281.966 180.165 281.449 179.648 281.449 179.009C281.449 178.37 281.966 177.853 282.605 177.853C283.244 177.853 283.761 178.371 283.761 179.009Z" fill="#0082CB"/>
<path d="M292.38 179.009C292.38 179.647 291.862 180.165 291.223 180.165C290.584 180.165 290.067 179.648 290.067 179.009C290.067 178.37 290.584 177.853 291.223 177.853C291.862 177.853 292.38 178.371 292.38 179.009Z" fill="#0082CB"/>
<path d="M300.998 179.009C300.998 179.647 300.481 180.165 299.842 180.165C299.203 180.165 298.686 179.648 298.686 179.009C298.686 178.37 299.204 177.853 299.842 177.853C300.48 177.853 300.998 178.371 300.998 179.009Z" fill="#0082CB"/>
<path d="M309.618 179.009C309.618 179.647 309.1 180.165 308.462 180.165C307.823 180.165 307.305 179.648 307.305 179.009C307.305 178.37 307.823 177.853 308.462 177.853C309.1 177.853 309.618 178.371 309.618 179.009Z" fill="#0082CB"/>
<path d="M318.236 179.009C318.236 179.647 317.718 180.165 317.08 180.165C316.442 180.165 315.924 179.648 315.924 179.009C315.924 178.37 316.441 177.853 317.08 177.853C317.719 177.853 318.236 178.371 318.236 179.009Z" fill="#0082CB"/>
<path d="M326.855 179.009C326.855 179.647 326.338 180.165 325.699 180.165C325.06 180.165 324.543 179.648 324.543 179.009C324.543 178.37 325.06 177.853 325.699 177.853C326.338 177.853 326.855 178.371 326.855 179.009Z" fill="#0082CB"/>
<path d="M335.474 179.009C335.474 179.647 334.957 180.165 334.318 180.165C333.679 180.165 333.162 179.648 333.162 179.009C333.162 178.37 333.679 177.853 334.318 177.853C334.957 177.853 335.474 178.371 335.474 179.009Z" fill="#0082CB"/>
<path d="M214.81 186.24C214.81 186.878 214.293 187.396 213.654 187.396C213.015 187.396 212.498 186.879 212.498 186.24C212.498 185.601 213.016 185.084 213.654 185.084C214.293 185.084 214.81 185.602 214.81 186.24Z" fill="#0082CB"/>
<path d="M223.429 186.24C223.429 186.878 222.911 187.396 222.273 187.396C221.635 187.396 221.117 186.879 221.117 186.24C221.117 185.601 221.635 185.084 222.273 185.084C222.911 185.084 223.429 185.602 223.429 186.24Z" fill="#0082CB"/>
<path d="M232.048 186.24C232.048 186.878 231.53 187.396 230.891 187.396C230.253 187.396 229.735 186.879 229.735 186.24C229.735 185.601 230.252 185.084 230.891 185.084C231.53 185.084 232.048 185.602 232.048 186.24Z" fill="#0082CB"/>
<path d="M240.666 186.24C240.666 186.878 240.149 187.396 239.51 187.396C238.871 187.396 238.354 186.879 238.354 186.24C238.354 185.601 238.871 185.084 239.51 185.084C240.149 185.084 240.666 185.602 240.666 186.24Z" fill="#0082CB"/>
<path d="M249.286 186.24C249.286 186.878 248.768 187.396 248.129 187.396C247.49 187.396 246.973 186.879 246.973 186.24C246.973 185.601 247.49 185.084 248.129 185.084C248.768 185.084 249.286 185.602 249.286 186.24Z" fill="#0082CB"/>
<path d="M257.904 186.24C257.904 186.878 257.387 187.396 256.748 187.396C256.109 187.396 255.592 186.879 255.592 186.24C255.592 185.601 256.11 185.084 256.748 185.084C257.387 185.084 257.904 185.602 257.904 186.24Z" fill="#0082CB"/>
<path d="M266.523 186.24C266.523 186.878 266.005 187.396 265.367 187.396C264.729 187.396 264.211 186.879 264.211 186.24C264.211 185.601 264.729 185.084 265.367 185.084C266.005 185.084 266.523 185.602 266.523 186.24Z" fill="#0082CB"/>
<path d="M275.142 186.24C275.142 186.878 274.625 187.396 273.986 187.396C273.348 187.396 272.83 186.879 272.83 186.24C272.83 185.601 273.347 185.084 273.986 185.084C274.625 185.084 275.142 185.602 275.142 186.24Z" fill="#0082CB"/>
<path d="M283.761 186.24C283.761 186.878 283.244 187.396 282.605 187.396C281.966 187.396 281.449 186.879 281.449 186.24C281.449 185.601 281.966 185.084 282.605 185.084C283.244 185.084 283.761 185.602 283.761 186.24Z" fill="#0082CB"/>
<path d="M292.38 186.24C292.38 186.878 291.862 187.396 291.223 187.396C290.584 187.396 290.067 186.879 290.067 186.24C290.067 185.601 290.584 185.084 291.223 185.084C291.862 185.084 292.38 185.602 292.38 186.24Z" fill="#0082CB"/>
<path d="M300.998 186.24C300.998 186.878 300.481 187.396 299.842 187.396C299.203 187.396 298.686 186.879 298.686 186.24C298.686 185.601 299.204 185.084 299.842 185.084C300.48 185.084 300.998 185.602 300.998 186.24Z" fill="#0082CB"/>
<path d="M309.618 186.24C309.618 186.878 309.1 187.396 308.462 187.396C307.823 187.396 307.305 186.879 307.305 186.24C307.305 185.601 307.823 185.084 308.462 185.084C309.1 185.084 309.618 185.602 309.618 186.24Z" fill="#0082CB"/>
<path d="M318.236 186.24C318.236 186.878 317.718 187.396 317.08 187.396C316.442 187.396 315.924 186.879 315.924 186.24C315.924 185.601 316.441 185.084 317.08 185.084C317.719 185.084 318.236 185.602 318.236 186.24Z" fill="#0082CB"/>
<path d="M326.855 186.24C326.855 186.878 326.338 187.396 325.699 187.396C325.06 187.396 324.543 186.879 324.543 186.24C324.543 185.601 325.06 185.084 325.699 185.084C326.338 185.084 326.855 185.602 326.855 186.24Z" fill="#0082CB"/>
<path d="M335.474 186.24C335.474 186.878 334.957 187.396 334.318 187.396C333.679 187.396 333.162 186.879 333.162 186.24C333.162 185.601 333.679 185.084 334.318 185.084C334.957 185.084 335.474 185.602 335.474 186.24Z" fill="#0082CB"/>
</g>
</g>
<defs>
<linearGradient id="paint0_linear_293_57793" x1="57.9953" y1="338.01" x2="338.01" y2="57.9956" gradientUnits="userSpaceOnUse">
<stop stop-color="#F6F6F6" stop-opacity="0.96"/>
<stop offset="0.05" stop-color="#CACACC" stop-opacity="0.78"/>
<stop offset="0.09" stop-color="#A1A1A4" stop-opacity="0.61"/>
<stop offset="0.14" stop-color="#7C7E81" stop-opacity="0.47"/>
<stop offset="0.2" stop-color="#5D5F63" stop-opacity="0.34"/>
<stop offset="0.25" stop-color="#434549" stop-opacity="0.23"/>
<stop offset="0.32" stop-color="#2E3035" stop-opacity="0.15"/>
<stop offset="0.4" stop-color="#1E2025" stop-opacity="0.08"/>
<stop offset="0.49" stop-color="#13151B" stop-opacity="0.03"/>
<stop offset="0.63" stop-color="#0C0E14" stop-opacity="0"/>
<stop offset="1" stop-color="#0B0D13" stop-opacity="0"/>
</linearGradient>
</defs>
</svg>
