<svg width="240" height="203" viewBox="0 0 240 203" fill="none" xmlns="http://www.w3.org/2000/svg">
<g opacity="0.05">
<mask id="mask0_237_57595" style="mask-type:alpha" maskUnits="userSpaceOnUse" x="37" y="0" width="203" height="203">
<circle cx="138.5" cy="101.5" r="101.5" fill="#D9D9D9"/>
</mask>
<g mask="url(#mask0_237_57595)">
<path d="M216.076 13.8241L52.369 177.531C51.7208 178.179 51.7208 179.23 52.369 179.878C53.0172 180.526 54.0682 180.526 54.7164 179.878L218.423 16.1715C219.071 15.5233 219.071 14.4723 218.423 13.8241C217.775 13.1759 216.724 13.1759 216.076 13.8241Z" fill="white"/>
<path d="M209.895 7.64549L46.1885 171.352C45.5403 172.001 45.5403 173.051 46.1885 173.7C46.8367 174.348 47.8877 174.348 48.5359 173.7L212.243 9.99288C212.891 9.34466 212.891 8.29371 212.243 7.64549C211.594 6.99727 210.543 6.99728 209.895 7.64549Z" fill="white"/>
<path d="M203.717 1.46483L40.0106 165.172C39.3624 165.82 39.3624 166.871 40.0106 167.519C40.6588 168.167 41.7098 168.167 42.358 167.519L206.065 3.81222C206.713 3.164 206.713 2.11304 206.065 1.46483C205.417 0.816609 204.366 0.816612 203.717 1.46483Z" fill="white"/>
<path d="M197.537 -4.71568L33.8301 158.991C33.1819 159.639 33.1819 160.69 33.8301 161.338C34.4783 161.987 35.5293 161.987 36.1775 161.338L199.884 -2.36829C200.532 -3.01651 200.532 -4.06747 199.884 -4.71568C199.236 -5.3639 198.185 -5.3639 197.537 -4.71568Z" fill="white"/>
<path d="M191.354 -10.8945L27.6476 152.812C26.9994 153.46 26.9994 154.511 27.6476 155.16C28.2958 155.808 29.3468 155.808 29.995 155.16L193.702 -8.54713C194.35 -9.19534 194.35 -10.2463 193.702 -10.8945C193.054 -11.5427 192.003 -11.5427 191.354 -10.8945Z" fill="white"/>
<path d="M185.177 -17.0751L21.4697 146.632C20.8215 147.28 20.8215 148.331 21.4697 148.979C22.1179 149.627 23.1689 149.627 23.8171 148.979L187.524 -14.7277C188.172 -15.3759 188.172 -16.4269 187.524 -17.0751C186.876 -17.7233 185.825 -17.7233 185.177 -17.0751Z" fill="white"/>
<path d="M178.996 -23.2556L15.2893 140.451C14.6411 141.099 14.6411 142.15 15.2893 142.799C15.9375 143.447 16.9885 143.447 17.6367 142.799L181.344 -20.9083C181.992 -21.5565 181.992 -22.6074 181.344 -23.2556C180.695 -23.9039 179.644 -23.9039 178.996 -23.2556Z" fill="white"/>
<path d="M172.816 -29.4343L9.10875 134.272C8.46054 134.921 8.46054 135.972 9.10875 136.62C9.75697 137.268 10.8079 137.268 11.4561 136.62L175.163 -27.0869C175.811 -27.7351 175.811 -28.7861 175.163 -29.4343C174.515 -30.0825 173.464 -30.0825 172.816 -29.4343Z" fill="white"/>
<path d="M166.635 -35.615L2.92809 128.092C2.27988 128.74 2.27988 129.791 2.92809 130.439C3.5763 131.087 4.62727 131.087 5.27548 130.439L168.982 -33.2676C169.63 -33.9158 169.63 -34.9668 168.982 -35.615C168.334 -36.2632 167.283 -36.2632 166.635 -35.615Z" fill="white"/>
<path d="M160.457 -41.7956L-3.24964 121.911C-3.89786 122.559 -3.89786 123.61 -3.24964 124.259C-2.60143 124.907 -1.55046 124.907 -0.902249 124.259L162.805 -39.4482C163.453 -40.0964 163.453 -41.1473 162.805 -41.7956C162.156 -42.4438 161.105 -42.4438 160.457 -41.7956Z" fill="white"/>
<path d="M154.275 -47.9761L-9.43214 115.731C-10.0804 116.379 -10.0804 117.43 -9.43214 118.078C-8.78392 118.726 -7.73296 118.726 -7.08474 118.078L156.622 -45.6287C157.27 -46.2769 157.27 -47.3279 156.622 -47.9761C155.974 -48.6243 154.923 -48.6243 154.275 -47.9761Z" fill="white"/>
<path d="M148.094 -54.1549L-15.6127 109.552C-16.2609 110.2 -16.2609 111.251 -15.6127 111.899C-14.9645 112.547 -13.9135 112.547 -13.2653 111.899L150.442 -51.8075C151.09 -52.4557 151.09 -53.5067 150.441 -54.1549C149.793 -54.8031 148.742 -54.8031 148.094 -54.1549Z" fill="white"/>
<path d="M290.244 87.9913L126.537 251.698C125.889 252.346 125.889 253.397 126.537 254.046C127.186 254.694 128.237 254.694 128.885 254.046L292.592 90.3387C293.24 89.6905 293.24 88.6395 292.592 87.9913C291.943 87.3431 290.893 87.3431 290.244 87.9913Z" fill="white"/>
<path d="M284.064 81.8108L120.357 245.518C119.709 246.166 119.709 247.217 120.357 247.865C121.005 248.513 122.056 248.513 122.704 247.865L286.411 84.1582C287.059 83.51 287.059 82.459 286.411 81.8108C285.763 81.1626 284.712 81.1626 284.064 81.8108Z" fill="white"/>
<path d="M277.881 75.6301L114.175 239.337C113.526 239.985 113.526 241.036 114.175 241.684C114.823 242.333 115.874 242.333 116.522 241.684L280.229 77.9775C280.877 77.3293 280.877 76.2784 280.229 75.6301C279.581 74.9819 278.53 74.9819 277.881 75.6301Z" fill="white"/>
<path d="M271.701 69.4496L107.994 233.156C107.346 233.805 107.346 234.856 107.994 235.504C108.642 236.152 109.693 236.152 110.341 235.504L274.048 71.797C274.696 71.1488 274.696 70.0978 274.048 69.4496C273.4 68.8014 272.349 68.8014 271.701 69.4496Z" fill="white"/>
<path d="M265.523 63.2708L101.816 226.978C101.168 227.626 101.168 228.677 101.816 229.325C102.464 229.973 103.515 229.973 104.164 229.325L267.87 65.6182C268.519 64.97 268.519 63.9191 267.87 63.2709C267.222 62.6226 266.171 62.6226 265.523 63.2708Z" fill="white"/>
<path d="M259.342 57.0903L95.6356 220.797C94.9874 221.445 94.9874 222.496 95.6356 223.145C96.2838 223.793 97.3348 223.793 97.983 223.145L261.69 59.4377C262.338 58.7895 262.338 57.7385 261.69 57.0903C261.042 56.4421 259.991 56.4421 259.342 57.0903Z" fill="white"/>
<path d="M253.162 50.9097L89.4551 214.616C88.8069 215.265 88.8069 216.316 89.4551 216.964C90.1033 217.612 91.1542 217.612 91.8025 216.964L255.509 53.2571C256.157 52.6088 256.157 51.5579 255.509 50.9097C254.861 50.2615 253.81 50.2615 253.162 50.9097Z" fill="white"/>
<path d="M246.982 44.7311L83.2753 208.438C82.627 209.086 82.627 210.137 83.2753 210.785C83.9235 211.433 84.9745 211.433 85.6227 210.785L249.329 47.0785C249.978 46.4303 249.978 45.3793 249.329 44.7311C248.681 44.0829 247.63 44.0829 246.982 44.7311Z" fill="white"/>
<path d="M240.801 38.5504L77.0947 202.257C76.4465 202.905 76.4465 203.956 77.0947 204.605C77.7429 205.253 78.7939 205.253 79.4421 204.605L243.149 40.8978C243.797 40.2496 243.797 39.1986 243.149 38.5504C242.501 37.9022 241.45 37.9022 240.801 38.5504Z" fill="white"/>
<path d="M234.621 32.3697L70.9142 196.077C70.266 196.725 70.266 197.776 70.9142 198.424C71.5624 199.072 72.6134 199.072 73.2616 198.424L236.968 34.7171C237.617 34.0689 237.617 33.0179 236.968 32.3697C236.32 31.7215 235.269 31.7215 234.621 32.3697Z" fill="white"/>
<path d="M228.443 26.191L64.7363 189.898C64.0881 190.546 64.0881 191.597 64.7363 192.245C65.3845 192.893 66.4355 192.893 67.0837 192.245L230.791 28.5384C231.439 27.8902 231.439 26.8392 230.791 26.191C230.142 25.5428 229.091 25.5428 228.443 26.191Z" fill="white"/>
<path d="M222.263 20.0104L58.5558 183.717C57.9076 184.365 57.9076 185.416 58.5558 186.065C59.204 186.713 60.255 186.713 60.9032 186.065L224.61 22.3578C225.258 21.7096 225.258 20.6586 224.61 20.0104C223.962 19.3622 222.911 19.3622 222.263 20.0104Z" fill="white"/>
</g>
</g>
<g clip-path="url(#clip0_237_57595)">
<path opacity="0.9" d="M22.5 203C34.9264 203 45 192.926 45 180.5C45 168.074 34.9264 158 22.5 158C10.0736 158 0 168.074 0 180.5C0 192.926 10.0736 203 22.5 203Z" fill="url(#paint0_linear_237_57595)"/>
</g>
<defs>
<linearGradient id="paint0_linear_237_57595" x1="38.3565" y1="196.357" x2="6.28478" y2="164.285" gradientUnits="userSpaceOnUse">
<stop stop-color="#010101" stop-opacity="0.4"/>
<stop offset="0.09" stop-color="#020507" stop-opacity="0.42"/>
<stop offset="0.22" stop-color="#051119" stop-opacity="0.48"/>
<stop offset="0.38" stop-color="#0A2637" stop-opacity="0.58"/>
<stop offset="0.54" stop-color="#114261" stop-opacity="0.71"/>
<stop offset="0.72" stop-color="#1A6696" stop-opacity="0.89"/>
<stop offset="0.81" stop-color="#207AB3" stop-opacity="0.98"/>
<stop offset="1" stop-color="#0D82C6"/>
</linearGradient>
<clipPath id="clip0_237_57595">
<rect width="45" height="45" fill="white" transform="translate(0 158)"/>
</clipPath>
</defs>
</svg>
