<svg width="65" height="65" viewBox="0 0 65 65" fill="none" xmlns="http://www.w3.org/2000/svg">
<path d="M60.5 27.8322H10.5C8.84315 27.8322 7.5 29.1753 7.5 30.8322V60.8322C7.5 62.489 8.84315 63.8322 10.5 63.8322H60.5C62.1569 63.8322 63.5 62.489 63.5 60.8322V30.8322C63.5 29.1753 62.1569 27.8322 60.5 27.8322Z" stroke="url(#paint0_linear_237_90074)" stroke-width="2" stroke-linecap="round" stroke-linejoin="round"/>
<path d="M25.5 33.8322H15.5C14.3954 33.8322 13.5 34.7276 13.5 35.8322V41.8322C13.5 42.9367 14.3954 43.8322 15.5 43.8322H25.5C26.6046 43.8322 27.5 42.9367 27.5 41.8322V35.8322C27.5 34.7276 26.6046 33.8322 25.5 33.8322Z" stroke="#0082CB" stroke-width="2" stroke-linecap="round" stroke-linejoin="round"/>
<path d="M27 39H23V35" stroke="#0082CB" stroke-width="2" stroke-linejoin="round"/>
<path d="M14.5 38.8322H18.5V42.8322" stroke="#0082CB" stroke-width="2" stroke-linejoin="round"/>
<path d="M14.5 51.8322H20.5" stroke="url(#paint1_linear_237_90074)" stroke-width="2" stroke-linecap="round" stroke-linejoin="round"/>
<path d="M26.5 51.8322H32.5" stroke="url(#paint2_linear_237_90074)" stroke-width="2" stroke-linecap="round" stroke-linejoin="round"/>
<path d="M38.5 51.8322H44.5" stroke="url(#paint3_linear_237_90074)" stroke-width="2" stroke-linecap="round" stroke-linejoin="round"/>
<path d="M50.5 51.8322H56.5" stroke="url(#paint4_linear_237_90074)" stroke-width="2" stroke-linecap="round" stroke-linejoin="round"/>
<path d="M14.5 57.8322H25.5" stroke="url(#paint5_linear_237_90074)" stroke-width="2" stroke-linecap="round" stroke-linejoin="round"/>
<path d="M31.5 57.8322H56.5" stroke="url(#paint6_linear_237_90074)" stroke-width="2" stroke-linecap="round" stroke-linejoin="round"/>
<path d="M4.5 37.8322C2.84 37.8322 1.5 36.4922 1.5 34.8322V4.83215C1.5 3.17215 2.84 1.83215 4.5 1.83215H54.5C56.16 1.83215 57.5 3.17215 57.5 4.83215V24.8322" stroke="#0082CB" stroke-width="2" stroke-linejoin="round"/>
<path d="M2.5 9.83215H56.5" stroke="#0082CB" stroke-width="2" stroke-linecap="square" stroke-linejoin="round"/>
<path d="M2.5 16.8322H56.5" stroke="#0082CB" stroke-width="2" stroke-linecap="square" stroke-linejoin="round"/>
<defs>
<linearGradient id="paint0_linear_237_90074" x1="35.5" y1="27.8322" x2="35.5" y2="63.8322" gradientUnits="userSpaceOnUse">
<stop stop-color="#0082CB"/>
<stop offset="1" stop-color="#464646" stop-opacity="0"/>
</linearGradient>
<linearGradient id="paint1_linear_237_90074" x1="12.1364" y1="52.004" x2="20.2818" y2="52.004" gradientUnits="userSpaceOnUse">
<stop stop-color="#0082CB"/>
<stop offset="1" stop-color="#464646" stop-opacity="0"/>
</linearGradient>
<linearGradient id="paint2_linear_237_90074" x1="24.9364" y1="52.004" x2="33.0818" y2="52.004" gradientUnits="userSpaceOnUse">
<stop stop-color="#0082CB"/>
<stop offset="1" stop-color="#464646" stop-opacity="0"/>
</linearGradient>
<linearGradient id="paint3_linear_237_90074" x1="38.9" y1="52.004" x2="44.7182" y2="52.004" gradientUnits="userSpaceOnUse">
<stop stop-color="#0082CB"/>
<stop offset="1" stop-color="#464646" stop-opacity="0"/>
</linearGradient>
<linearGradient id="paint4_linear_237_90074" x1="50.5364" y1="52.004" x2="56.3545" y2="52.004" gradientUnits="userSpaceOnUse">
<stop stop-color="#0082CB"/>
<stop offset="1" stop-color="#464646" stop-opacity="0"/>
</linearGradient>
<linearGradient id="paint5_linear_237_90074" x1="12.7182" y1="58.3478" x2="27.8375" y2="57.6711" gradientUnits="userSpaceOnUse">
<stop stop-color="#0082CB"/>
<stop offset="1" stop-color="#464646" stop-opacity="0"/>
</linearGradient>
<linearGradient id="paint6_linear_237_90074" x1="31.3364" y1="58.3478" x2="57.5136" y2="57.6709" gradientUnits="userSpaceOnUse">
<stop stop-color="#0082CB"/>
<stop offset="1" stop-color="#464646" stop-opacity="0"/>
</linearGradient>
</defs>
</svg>
