<svg width="65" height="53" viewBox="0 0 65 53" fill="none" xmlns="http://www.w3.org/2000/svg">
<g clip-path="url(#clip0_237_90047)">
<path d="M63.6111 9.81582H41.8329V4.56767C41.8329 2.19344 39.8934 0.260742 37.5107 0.260742H27.4787C25.104 0.260742 23.1644 2.19344 23.1644 4.56767V9.81582H1.3862C0.900647 9.81582 0.5 10.2071 0.5 10.6989V29.6266C0.5 30.2744 0.757369 30.9168 1.21639 31.4165L1.31721 31.5223V51.9465C1.31721 52.4303 1.7099 52.8295 2.19811 52.8295H62.7966C63.2901 52.8295 63.6828 52.4303 63.6828 51.9465V31.5223L63.7757 31.4165C64.24 30.9168 64.4973 30.2744 64.4973 29.6266V10.7015C64.4973 10.2098 64.0967 9.81846 63.6111 9.81846V9.81582ZM24.9315 4.56767C24.9315 3.16375 26.0777 2.02952 27.4787 2.02952H37.5107C38.9196 2.02952 40.0579 3.16375 40.0579 4.56767V9.81582H24.9288V4.56767H24.9315ZM61.9157 51.0634H3.0843V32.2996H16.9239L16.9955 32.5719C17.5262 34.6685 19.4073 36.1306 21.5751 36.1306C23.7428 36.1306 25.6267 34.6685 26.1547 32.5719L26.2183 32.2996H38.779L38.8427 32.5719C39.3733 34.6685 41.2545 36.1306 43.4223 36.1306C45.59 36.1306 47.4738 34.6685 48.0018 32.5719L48.0655 32.2996H61.913V51.0607L61.9157 51.0634ZM18.614 31.4245C18.614 31.2605 18.6273 31.1045 18.6565 30.9538C18.8793 29.542 20.137 28.4712 21.5777 28.4712C23.0185 28.4712 24.2682 29.542 24.4964 30.9538C24.5176 31.1045 24.5308 31.2605 24.5308 31.4245C24.5308 31.5884 24.5176 31.7391 24.4964 31.8871C24.2682 33.299 23.0079 34.3698 21.5777 34.3698C20.1476 34.3698 18.8793 33.299 18.6565 31.8871C18.6273 31.7364 18.614 31.5805 18.614 31.4245ZM40.4692 31.4245C40.4692 31.2605 40.4824 31.1045 40.5037 30.9538C40.7318 29.542 41.9842 28.4712 43.4223 28.4712C44.8604 28.4712 46.1127 29.542 46.3409 30.9538C46.3621 31.1045 46.3754 31.2605 46.3754 31.4245C46.3754 31.5884 46.3621 31.7391 46.3409 31.8871C46.1127 33.299 44.8604 34.3698 43.4223 34.3698C41.9842 34.3698 40.7318 33.299 40.5037 31.8871C40.4824 31.7364 40.4692 31.5805 40.4692 31.4245ZM62.725 29.6266C62.725 29.9968 62.4888 30.3405 62.1386 30.4753C62.0377 30.5176 61.9237 30.5388 61.8096 30.5388H48.0682L48.0045 30.2691C47.4738 28.1725 45.5927 26.7104 43.4249 26.7104C41.2572 26.7104 39.3733 28.1725 38.8453 30.2691L38.7817 30.5388H26.221L26.1494 30.2691C25.6267 28.1725 23.7455 26.7104 21.5777 26.7104C19.41 26.7104 17.5209 28.1725 16.9982 30.2691L16.9265 30.5388H3.19044C3.07634 30.5388 2.96225 30.5176 2.85347 30.4753C2.50323 30.3405 2.26709 29.9968 2.26709 29.6266V11.5767H62.725V29.6266Z" fill="url(#paint0_linear_237_90047)"/>
<path d="M63.6111 9.81582H41.8329V4.56767C41.8329 2.19344 39.8934 0.260742 37.5107 0.260742H27.4787C25.104 0.260742 23.1644 2.19344 23.1644 4.56767V9.81582H1.3862C0.900647 9.81582 0.5 10.2071 0.5 10.6989V29.6266C0.5 30.2744 0.757369 30.9168 1.21639 31.4165L1.31721 31.5223V51.9465C1.31721 52.4303 1.7099 52.8295 2.19811 52.8295H62.7966C63.2901 52.8295 63.6828 52.4303 63.6828 51.9465V31.5223L63.7757 31.4165C64.24 30.9168 64.4973 30.2744 64.4973 29.6266V10.7015C64.4973 10.2098 64.0967 9.81846 63.6111 9.81846V9.81582ZM24.9315 4.56767C24.9315 3.16375 26.0777 2.02952 27.4787 2.02952H37.5107C38.9196 2.02952 40.0579 3.16375 40.0579 4.56767V9.81582H24.9288V4.56767H24.9315ZM61.9157 51.0634H3.0843V32.2996H16.9239L16.9955 32.5719C17.5262 34.6685 19.4073 36.1306 21.5751 36.1306C23.7428 36.1306 25.6267 34.6685 26.1547 32.5719L26.2183 32.2996H38.779L38.8427 32.5719C39.3733 34.6685 41.2545 36.1306 43.4223 36.1306C45.59 36.1306 47.4738 34.6685 48.0018 32.5719L48.0655 32.2996H61.913V51.0607L61.9157 51.0634ZM18.614 31.4245C18.614 31.2605 18.6273 31.1045 18.6565 30.9538C18.8793 29.542 20.137 28.4712 21.5777 28.4712C23.0185 28.4712 24.2682 29.542 24.4964 30.9538C24.5176 31.1045 24.5308 31.2605 24.5308 31.4245C24.5308 31.5884 24.5176 31.7391 24.4964 31.8871C24.2682 33.299 23.0079 34.3698 21.5777 34.3698C20.1476 34.3698 18.8793 33.299 18.6565 31.8871C18.6273 31.7364 18.614 31.5805 18.614 31.4245ZM40.4692 31.4245C40.4692 31.2605 40.4824 31.1045 40.5037 30.9538C40.7318 29.542 41.9842 28.4712 43.4223 28.4712C44.8604 28.4712 46.1127 29.542 46.3409 30.9538C46.3621 31.1045 46.3754 31.2605 46.3754 31.4245C46.3754 31.5884 46.3621 31.7391 46.3409 31.8871C46.1127 33.299 44.8604 34.3698 43.4223 34.3698C41.9842 34.3698 40.7318 33.299 40.5037 31.8871C40.4824 31.7364 40.4692 31.5805 40.4692 31.4245ZM62.725 29.6266C62.725 29.9968 62.4888 30.3405 62.1386 30.4753C62.0377 30.5176 61.9237 30.5388 61.8096 30.5388H48.0682L48.0045 30.2691C47.4738 28.1725 45.5927 26.7104 43.4249 26.7104C41.2572 26.7104 39.3733 28.1725 38.8453 30.2691L38.7817 30.5388H26.221L26.1494 30.2691C25.6267 28.1725 23.7455 26.7104 21.5777 26.7104C19.41 26.7104 17.5209 28.1725 16.9982 30.2691L16.9265 30.5388H3.19044C3.07634 30.5388 2.96225 30.5176 2.85347 30.4753C2.50323 30.3405 2.26709 29.9968 2.26709 29.6266V11.5767H62.725V29.6266Z" fill="url(#paint1_linear_237_90047)"/>
<path d="M60.7005 34.5601C60.7005 35.044 60.3078 35.4432 59.8196 35.4432H49.9441C49.4585 35.4432 49.0579 35.044 49.0579 34.5601C49.0579 34.0763 49.4585 33.6824 49.9441 33.6824H59.8196C60.3052 33.6824 60.7005 34.0737 60.7005 34.5601Z" fill="url(#paint2_linear_237_90047)"/>
<path d="M60.7005 34.5601C60.7005 35.044 60.3078 35.4432 59.8196 35.4432H49.9441C49.4585 35.4432 49.0579 35.044 49.0579 34.5601C49.0579 34.0763 49.4585 33.6824 49.9441 33.6824H59.8196C60.3052 33.6824 60.7005 34.0737 60.7005 34.5601Z" fill="url(#paint3_linear_237_90047)"/>
<path d="M15.8441 34.5601C15.8441 35.044 15.4434 35.4432 14.9579 35.4432H5.08761C4.5941 35.4432 4.20142 35.044 4.20142 34.5601C4.20142 34.0763 4.5941 33.6824 5.08761 33.6824H14.9552C15.4408 33.6824 15.8414 34.0737 15.8414 34.5601H15.8441Z" fill="url(#paint4_linear_237_90047)"/>
<path d="M15.8441 34.5601C15.8441 35.044 15.4434 35.4432 14.9579 35.4432H5.08761C4.5941 35.4432 4.20142 35.044 4.20142 34.5601C4.20142 34.0763 4.5941 33.6824 5.08761 33.6824H14.9552C15.4408 33.6824 15.8414 34.0737 15.8414 34.5601H15.8441Z" fill="url(#paint5_linear_237_90047)"/>
</g>
<defs>
<linearGradient id="paint0_linear_237_90047" x1="32.4987" y1="0.260742" x2="32.4987" y2="52.8295" gradientUnits="userSpaceOnUse">
<stop stop-color="#0082CB"/>
<stop offset="1" stop-color="#0082CB" stop-opacity="0"/>
</linearGradient>
<linearGradient id="paint1_linear_237_90047" x1="32.4987" y1="0.260742" x2="32.4987" y2="52.8295" gradientUnits="userSpaceOnUse">
<stop stop-color="#0082CB"/>
<stop offset="1" stop-color="#0082CB" stop-opacity="0"/>
</linearGradient>
<linearGradient id="paint2_linear_237_90047" x1="54.8792" y1="33.6824" x2="54.8792" y2="35.4432" gradientUnits="userSpaceOnUse">
<stop stop-color="#0082CB"/>
<stop offset="1" stop-color="#0082CB" stop-opacity="0"/>
</linearGradient>
<linearGradient id="paint3_linear_237_90047" x1="54.8792" y1="33.6824" x2="54.8792" y2="35.4432" gradientUnits="userSpaceOnUse">
<stop stop-color="#0082CB"/>
<stop offset="1" stop-color="#0082CB" stop-opacity="0"/>
</linearGradient>
<linearGradient id="paint4_linear_237_90047" x1="10.0227" y1="33.6824" x2="10.0227" y2="35.4432" gradientUnits="userSpaceOnUse">
<stop stop-color="#0082CB"/>
<stop offset="1" stop-color="#0082CB" stop-opacity="0"/>
</linearGradient>
<linearGradient id="paint5_linear_237_90047" x1="10.0227" y1="33.6824" x2="10.0227" y2="35.4432" gradientUnits="userSpaceOnUse">
<stop stop-color="#0082CB"/>
<stop offset="1" stop-color="#0082CB" stop-opacity="0"/>
</linearGradient>
<clipPath id="clip0_237_90047">
<rect width="64" height="52.5714" fill="white" transform="translate(0.5 0.260742)"/>
</clipPath>
</defs>
</svg>
