<svg width="65" height="56" viewBox="0 0 65 56" fill="none" xmlns="http://www.w3.org/2000/svg">
<g clip-path="url(#clip0_237_90068)">
<path d="M58.4143 55.8323H1.71091C1.04321 55.8323 0.5 55.2857 0.5 54.6075C0.5 53.9293 1.04038 53.3827 1.71091 53.3827H58.4143C59.082 53.3827 59.6252 53.9293 59.6252 54.6075C59.6252 55.2857 59.0849 55.8323 58.4143 55.8323Z" fill="url(#paint0_linear_237_90068)"/>
<path d="M16.9039 51.5054H2.35597C1.33179 51.5054 0.5 50.6641 0.5 49.6282V31.1305C0.5 30.0946 1.33179 29.2533 2.35597 29.2533H16.9039C17.9281 29.2533 18.7598 30.0946 18.7598 31.1305V49.6282C18.7598 50.6641 17.9281 51.5054 16.9039 51.5054ZM2.91899 49.0587H16.3437V31.7H2.91899V49.0587Z" fill="url(#paint1_linear_237_90068)"/>
<path d="M37.3365 51.5054H22.7886C21.7644 51.5054 20.9326 50.6641 20.9326 49.6282V25.0124C20.9326 23.9765 21.7644 23.1351 22.7886 23.1351H37.3365C38.3607 23.1351 39.1925 23.9765 39.1925 25.0124V49.6282C39.1925 50.6641 38.3607 51.5054 37.3365 51.5054ZM23.3488 49.0587H36.7735V25.5818H23.3488V49.0587Z" fill="url(#paint2_linear_237_90068)"/>
<path d="M64.251 17.4948L52.0344 1.28935C51.7401 0.897307 51.2903 0.665514 50.8008 0.659791C50.3255 0.651206 49.8559 0.868691 49.5503 1.25215L36.5924 17.4662C36.2982 17.8325 36.2416 18.3361 36.4425 18.7625C36.6434 19.1889 37.0677 19.4579 37.5346 19.4579H41.3569V49.6225C41.3569 50.6584 42.1886 51.4997 43.2128 51.4997H57.7664C58.7906 51.4997 59.6224 50.6584 59.6224 49.6225V19.4608H63.289C63.7502 19.4608 64.1689 19.1975 64.3726 18.7797C64.5763 18.3619 64.5311 17.864 64.251 17.4948ZM58.4143 17.0141C57.7466 17.0141 57.2034 17.5606 57.2034 18.2388V49.0587H43.7758V18.236C43.7758 17.5606 43.2355 17.0112 42.5649 17.0112H40.0639L50.7612 3.63303L60.8474 17.0141H58.4171H58.4143Z" fill="url(#paint3_linear_237_90068)"/>
</g>
<defs>
<linearGradient id="paint0_linear_237_90068" x1="0.5" y1="54.1871" x2="49.3727" y2="54.1871" gradientUnits="userSpaceOnUse">
<stop stop-color="#0082CB"/>
<stop offset="1" stop-color="#43525D" stop-opacity="0"/>
</linearGradient>
<linearGradient id="paint1_linear_237_90068" x1="9.62992" y1="29.2533" x2="9.62992" y2="51.5054" gradientUnits="userSpaceOnUse">
<stop stop-color="#0082CB"/>
<stop offset="1" stop-color="#43525D" stop-opacity="0"/>
</linearGradient>
<linearGradient id="paint2_linear_237_90068" x1="30.0625" y1="23.1351" x2="30.0625" y2="51.5054" gradientUnits="userSpaceOnUse">
<stop stop-color="#0082CB"/>
<stop offset="1" stop-color="#43525D" stop-opacity="0"/>
</linearGradient>
<linearGradient id="paint3_linear_237_90068" x1="50.4112" y1="0.659546" x2="50.4112" y2="51.4997" gradientUnits="userSpaceOnUse">
<stop stop-color="#0082CB"/>
<stop offset="1" stop-color="#43525D" stop-opacity="0"/>
</linearGradient>
<clipPath id="clip0_237_90068">
<rect width="64" height="55.1724" fill="white" transform="translate(0.5 0.65979)"/>
</clipPath>
</defs>
</svg>
