<svg width="559" height="559" viewBox="0 0 559 559" fill="none" xmlns="http://www.w3.org/2000/svg">
<g clip-path="url(#clip0_237_89897)">
<g style="mix-blend-mode:overlay">
<path d="M279.5 -1.22173e-05C317.235 -1.05679e-05 353.836 7.39087 388.292 21.9644C421.571 36.0383 451.468 56.1915 477.138 81.8617C502.809 107.532 522.962 137.418 537.036 170.708C551.609 205.164 559 241.765 559 279.5C559 317.235 551.609 353.836 537.036 388.292C522.962 421.571 502.809 451.468 477.138 477.138C451.468 502.808 421.582 522.962 388.292 537.036C353.836 551.609 317.225 559 279.5 559C241.775 559 205.164 551.609 170.708 537.036C137.429 522.962 107.532 502.808 81.8618 477.138C56.1915 451.468 36.0383 421.582 21.9644 388.292C7.39085 353.836 -1.38663e-05 317.225 -1.22173e-05 279.5C-1.05683e-05 241.775 7.39086 205.164 21.9644 170.708C36.0383 137.429 56.1915 107.532 81.8618 81.8617C107.532 56.1914 137.418 36.0383 170.708 21.9644C205.164 7.39086 241.765 -1.38668e-05 279.5 -1.22173e-05ZM279.5 555.565C316.767 555.565 352.919 548.268 386.959 533.871C419.833 519.964 449.355 500.06 474.713 474.713C500.071 449.355 519.974 419.833 533.871 386.959C548.268 352.93 555.565 316.777 555.565 279.5C555.565 242.223 548.268 206.081 533.871 172.041C519.964 139.167 500.06 109.645 474.713 84.2872C449.355 58.9292 419.833 39.0259 386.959 25.129C352.919 10.7428 316.767 3.43518 279.5 3.43518C242.233 3.43518 206.081 10.7324 172.041 25.129C139.167 39.0363 109.645 58.9396 84.2872 84.2872C58.9292 109.645 39.0259 139.167 25.129 172.041C10.7324 206.07 3.43517 242.223 3.43517 279.5C3.43517 316.777 10.7324 352.919 25.129 386.959C39.0364 419.833 58.9396 449.355 84.2872 474.713C109.645 500.071 139.167 519.974 172.041 533.871C206.07 548.268 242.223 555.565 279.5 555.565Z" fill="url(#paint0_linear_237_89897)"/>
<path d="M279.5 4.11184C316.673 4.11184 352.743 11.3986 386.699 25.7536C419.489 39.6193 448.949 59.481 474.234 84.7765C499.529 110.072 519.381 139.521 533.257 172.312C547.612 206.258 554.888 242.327 554.888 279.5C554.888 316.673 547.601 352.743 533.246 386.699C519.381 419.49 499.519 448.949 474.224 474.234C448.928 499.519 419.479 519.381 386.688 533.257C352.732 547.622 316.673 554.899 279.49 554.899C242.306 554.899 206.247 547.622 172.291 533.257C139.5 519.391 110.041 499.53 84.7556 474.234C59.4601 448.938 39.6088 419.489 25.7326 386.699C11.3673 352.743 4.09099 316.683 4.09099 279.5C4.09099 242.317 11.3673 206.257 25.7327 172.301C39.5984 139.511 59.4601 110.051 84.7556 84.7661C110.051 59.4705 139.5 39.6193 172.291 25.7432C206.247 11.3778 242.306 4.10143 279.49 4.10143L279.5 4.11184ZM279.5 551.505C316.225 551.505 351.837 544.312 385.377 530.134C417.761 516.435 446.856 496.823 471.84 471.84C496.823 446.857 516.435 417.772 530.134 385.377C544.312 351.847 551.505 316.225 551.505 279.5C551.505 242.775 544.312 207.163 530.134 173.623C516.435 141.239 496.823 112.144 471.84 87.1603C446.856 62.1771 417.772 42.5652 385.377 28.8661C351.847 14.6881 316.225 7.49499 279.5 7.49499C242.775 7.49498 207.163 14.6881 173.623 28.8661C141.239 42.5652 112.144 62.1771 87.1603 87.1603C62.177 112.144 42.5652 141.228 28.866 173.623C14.688 207.153 7.49498 242.775 7.49498 279.5C7.49498 316.225 14.688 351.837 28.866 385.377C42.5652 417.761 62.177 446.857 87.1603 471.84C112.144 496.823 141.228 516.435 173.623 530.134C207.153 544.312 242.775 551.505 279.5 551.505Z" fill="url(#paint1_linear_237_89897)"/>
<path d="M279.5 8.21324C316.121 8.21325 351.65 15.3855 385.096 29.5323C417.397 43.2002 446.409 62.76 471.33 87.6704C496.24 112.581 515.8 141.593 529.468 173.904C543.615 207.351 550.787 242.879 550.787 279.5C550.787 316.121 543.615 351.65 529.468 385.096C515.8 417.397 496.24 446.409 471.33 471.33C446.419 496.24 417.408 515.8 385.096 529.468C351.65 543.615 316.121 550.787 279.5 550.787C242.879 550.787 207.351 543.615 173.904 529.468C141.603 515.8 112.591 496.24 87.6704 471.33C62.7601 446.419 43.2002 417.408 29.5323 385.096C15.3855 351.65 8.2133 316.121 8.21331 279.5C8.21331 242.879 15.3856 207.35 29.5323 173.904C43.2003 141.603 62.7601 112.591 87.6704 87.6704C112.581 62.76 141.593 43.2002 173.904 29.5323C207.351 15.3855 242.879 8.21324 279.5 8.21324ZM279.5 547.435C315.674 547.435 350.765 540.346 383.795 526.376C415.7 512.885 444.358 493.565 468.956 468.956C493.565 444.348 512.885 415.69 526.376 383.784C540.346 350.754 547.435 315.663 547.435 279.49C547.435 243.316 540.346 208.225 526.376 175.195C512.885 143.289 493.565 114.631 468.956 90.023C444.348 65.4145 415.69 46.0941 383.795 32.6031C350.765 18.6333 315.674 11.5443 279.5 11.5443C243.326 11.5443 208.235 18.6333 175.205 32.6031C143.3 46.0941 114.642 65.4145 90.0334 90.023C65.4249 114.631 46.1045 143.289 32.6136 175.195C18.6438 208.225 11.5548 243.316 11.5548 279.49C11.5548 315.663 18.6438 350.754 32.6136 383.784C46.1045 415.69 65.4249 444.348 90.0334 468.956C114.642 493.565 143.3 512.885 175.205 526.376C208.235 540.346 243.326 547.435 279.5 547.435Z" fill="url(#paint2_linear_237_89897)"/>
<path d="M279.5 12.3251C315.57 12.3251 350.557 19.3932 383.493 33.3214C415.305 46.7811 443.879 66.039 468.415 90.5747C492.951 115.11 512.219 143.685 525.668 175.497C539.596 208.433 546.665 243.43 546.665 279.49C546.665 315.549 539.596 350.546 525.668 383.482C512.208 415.294 492.951 443.869 468.415 468.405C443.879 492.94 415.305 512.209 383.493 525.658C350.557 539.586 315.559 546.654 279.5 546.654C243.441 546.654 208.444 539.586 175.507 525.658C143.695 512.198 115.121 492.94 90.5851 468.405C66.0495 443.869 46.7811 415.294 33.3318 383.482C19.4037 350.546 12.3354 315.549 12.3354 279.49C12.3354 243.43 19.4037 208.433 33.3318 175.497C46.7916 143.685 66.0495 115.11 90.5851 90.5746C115.121 66.039 143.695 46.7707 175.507 33.3214C208.444 19.3932 243.441 12.3251 279.5 12.3251ZM279.5 543.375C315.122 543.375 349.682 536.401 382.212 522.639C413.639 509.346 441.849 490.327 466.083 466.083C490.317 441.849 509.346 413.629 522.639 382.212C536.401 349.682 543.375 315.122 543.375 279.5C543.375 243.878 536.401 209.318 522.639 176.788C509.346 145.361 490.327 117.151 466.083 92.9168C441.849 68.6831 413.629 49.6542 382.212 36.361C349.682 22.5994 315.122 15.6249 279.5 15.6249C243.878 15.6249 209.318 22.5994 176.788 36.361C145.361 49.6542 117.151 68.6727 92.9169 92.9168C68.6832 117.151 49.6542 145.371 36.3611 176.788C22.5995 209.318 15.625 243.878 15.625 279.5C15.625 315.122 22.5995 349.682 36.3611 382.212C49.6542 413.639 68.6727 441.849 92.9169 466.083C117.151 490.317 145.371 509.346 176.788 522.639C209.318 536.401 243.878 543.375 279.5 543.375Z" fill="url(#paint3_linear_237_89897)"/>
<path d="M279.5 16.4369C315.018 16.4369 349.463 23.3905 381.9 37.1105C413.223 50.362 441.36 69.3285 465.521 93.4894C489.682 117.65 508.648 145.777 521.9 177.11C535.62 209.547 542.573 243.993 542.573 279.51C542.573 315.028 535.62 349.474 521.9 381.91C508.648 413.233 489.682 441.371 465.521 465.531C441.36 489.692 413.233 508.659 381.9 521.91C349.463 535.63 315.018 542.584 279.5 542.584C243.982 542.584 209.536 535.63 177.1 521.91C145.777 508.659 117.64 489.692 93.4789 465.531C69.318 441.371 50.3516 413.244 37.1001 381.91C23.3801 349.474 16.4265 315.028 16.4265 279.51C16.4265 243.993 23.3801 209.547 37.1001 177.11C50.3516 145.788 69.318 117.65 93.4789 93.4893C117.64 69.3285 145.767 50.362 177.1 37.1105C209.536 23.3905 243.982 16.4369 279.5 16.4369ZM279.5 539.315C314.57 539.315 348.599 532.445 380.63 518.902C411.568 505.817 439.351 487.079 463.21 463.22C487.069 439.361 505.806 411.578 518.891 380.64C532.434 348.61 539.305 314.581 539.305 279.51C539.305 244.44 532.434 210.411 518.891 178.38C505.806 147.443 487.069 119.659 463.21 95.8003C439.351 71.9413 411.568 53.2039 380.63 40.1189C348.599 26.5759 314.57 19.7055 279.5 19.7055C244.43 19.7055 210.401 26.5759 178.37 40.1189C147.432 53.2039 119.649 71.9413 95.7899 95.8003C71.9309 119.659 53.1935 147.443 40.1085 178.38C26.5655 210.411 19.6951 244.44 19.6951 279.51C19.6951 314.581 26.5655 348.61 40.1085 380.64C53.1935 411.578 71.9309 439.361 95.7899 463.22C119.649 487.079 147.432 505.817 178.37 518.902C210.4 532.445 244.43 539.315 279.5 539.315Z" fill="url(#paint4_linear_237_89897)"/>
<path d="M279.5 20.5487C314.456 20.5487 348.37 27.3983 380.297 40.8996C411.13 53.943 438.831 72.6179 462.606 96.3937C486.392 120.18 505.057 147.87 518.1 178.703C531.602 210.63 538.451 244.544 538.451 279.5C538.451 314.456 531.602 348.37 518.1 380.297C505.057 411.13 486.382 438.831 462.606 462.606C438.82 486.392 411.13 505.057 380.297 518.1C348.37 531.602 314.456 538.451 279.5 538.451C244.544 538.451 210.629 531.602 178.703 518.1C147.869 505.057 120.169 486.382 96.3936 462.606C72.6074 438.82 53.9429 411.13 40.8996 380.297C27.3982 348.37 20.5486 314.456 20.5486 279.5C20.5486 244.544 27.3982 210.629 40.8996 178.703C53.9429 147.87 72.6179 120.169 96.3936 96.3936C120.18 72.6075 147.869 53.943 178.703 40.8996C210.629 27.3983 244.544 20.5487 279.5 20.5487ZM279.5 535.255C314.029 535.255 347.517 528.489 379.048 515.154C409.506 502.278 436.853 483.832 460.337 460.347C483.821 436.863 502.267 409.507 515.144 379.058C528.479 347.527 535.245 314.039 535.245 279.51C535.245 244.981 528.479 211.494 515.144 179.963C502.267 149.504 483.821 122.158 460.337 98.6734C436.853 75.1891 409.496 56.7432 379.048 43.8664C347.517 30.5316 314.029 23.7653 279.5 23.7653C244.971 23.7653 211.483 30.5316 179.952 43.8664C149.493 56.7432 122.147 75.1891 98.6629 98.6734C75.1786 122.158 56.7327 149.514 43.8559 179.963C30.5211 211.493 23.7548 244.981 23.7548 279.51C23.7548 314.039 30.5211 347.527 43.8559 379.058C56.7326 409.517 75.1786 436.863 98.6629 460.347C122.147 483.832 149.504 502.278 179.952 515.154C211.483 528.489 244.971 535.255 279.5 535.255Z" fill="url(#paint5_linear_237_89897)"/>
<path d="M279.5 24.6501C313.904 24.6501 347.277 31.3852 378.694 44.6784C409.038 57.5135 436.291 75.8866 459.702 99.298C483.103 122.699 501.486 149.951 514.322 180.306C527.615 211.723 534.35 245.106 534.35 279.5C534.35 313.894 527.615 347.277 514.322 378.694C501.486 409.038 483.113 436.291 459.702 459.702C436.301 483.103 409.048 501.486 378.694 514.322C347.277 527.615 313.894 534.35 279.5 534.35C245.106 534.35 211.723 527.615 180.306 514.322C149.962 501.486 122.709 483.113 99.298 459.702C75.897 436.301 57.5135 409.049 44.6784 378.694C31.3852 347.277 24.6501 313.894 24.6501 279.5C24.6501 245.106 31.3852 211.723 44.6784 180.306C57.5135 149.962 75.8866 122.709 99.298 99.298C122.699 75.897 149.951 57.5135 180.306 44.6784C211.723 31.3852 245.106 24.6501 279.5 24.6501ZM279.5 531.185C313.477 531.185 346.434 524.534 377.466 511.407C407.435 498.728 434.354 480.584 457.464 457.464C480.584 434.344 498.728 407.435 511.407 377.466C524.534 346.434 531.185 313.477 531.185 279.5C531.185 245.523 524.534 212.566 511.407 181.534C498.728 151.565 480.584 124.646 457.464 101.536C434.344 78.4162 407.435 60.2721 377.466 47.5931C346.434 34.4665 313.477 27.8147 279.5 27.8147C245.523 27.8147 212.566 34.4665 181.534 47.5931C151.565 60.2721 124.646 78.4161 101.536 101.536C78.4161 124.656 60.2721 151.565 47.5931 181.534C34.4665 212.566 27.8147 245.523 27.8147 279.5C27.8147 313.477 34.4664 346.434 47.5931 377.465C60.272 407.435 78.4161 434.354 101.536 457.464C124.656 480.584 151.565 498.728 181.534 511.407C212.566 524.534 245.523 531.185 279.5 531.185Z" fill="url(#paint6_linear_237_89897)"/>
<path d="M279.5 28.762C313.352 28.762 346.184 35.3929 377.101 48.4675C406.956 61.0944 433.771 79.1761 456.798 102.202C479.824 125.228 497.906 152.044 510.532 181.899C523.607 212.816 530.238 245.648 530.238 279.5C530.238 313.352 523.607 346.184 510.532 377.101C497.906 406.956 479.824 433.772 456.798 456.798C433.771 479.824 406.956 497.906 377.101 510.532C346.184 523.607 313.352 530.238 279.5 530.238C245.648 530.238 212.816 523.607 181.899 510.532C152.044 497.906 125.228 479.824 102.202 456.798C79.176 433.771 61.0944 406.956 48.4675 377.101C35.3929 346.184 28.762 313.352 28.762 279.5C28.762 245.648 35.3929 212.816 48.4675 181.899C61.0944 152.044 79.1761 125.228 102.202 102.202C125.228 79.176 152.044 61.0944 181.899 48.4675C212.816 35.3929 245.648 28.762 279.5 28.762ZM279.5 527.126C312.925 527.126 345.362 520.578 375.883 507.67C405.374 495.199 431.856 477.346 454.591 454.601C477.336 431.856 495.189 405.374 507.659 375.894C520.567 345.362 527.115 312.936 527.115 279.51C527.115 246.085 520.567 213.648 507.659 183.127C495.189 153.637 477.336 127.154 454.591 104.42C431.846 81.6744 405.363 63.8218 375.883 51.351C345.352 38.443 312.926 31.8953 279.5 31.8953C246.075 31.8953 213.638 38.443 183.117 51.351C153.626 63.8218 127.144 81.6744 104.409 104.42C81.664 127.165 63.8114 153.647 51.3406 183.127C38.4326 213.659 31.8849 246.085 31.8849 279.51C31.8849 312.936 38.4326 345.372 51.3406 375.894C63.8114 405.384 81.664 431.866 104.409 454.601C127.154 477.346 153.637 495.199 183.117 507.67C213.648 520.578 246.075 527.126 279.5 527.126Z" fill="url(#paint7_linear_237_89897)"/>
<path d="M279.5 32.8738C312.79 32.8738 345.091 39.3902 375.498 52.2566C404.864 64.6754 431.242 82.4655 453.893 105.107C476.545 127.758 494.325 154.136 506.743 183.502C519.599 213.909 526.126 246.21 526.126 279.5C526.126 312.79 519.61 345.091 506.743 375.498C494.325 404.864 476.534 431.242 453.893 453.893C431.242 476.545 404.864 494.325 375.498 506.743C345.091 519.599 312.79 526.126 279.5 526.126C246.21 526.126 213.909 519.61 183.502 506.743C154.136 494.325 127.758 476.534 105.107 453.893C82.4551 431.242 64.6754 404.864 52.2566 375.498C39.4007 345.091 32.8738 312.79 32.8738 279.5C32.8738 246.21 39.3903 213.909 52.2566 183.502C64.6754 154.136 82.4655 127.758 105.107 105.107C127.758 82.4551 154.136 64.6753 183.502 52.2566C213.909 39.4006 246.21 32.8738 279.5 32.8738ZM279.5 523.066C312.384 523.066 344.279 516.622 374.301 503.922C403.302 491.66 429.347 474.088 451.718 451.728C474.088 429.358 491.649 403.313 503.912 374.311C516.612 344.29 523.055 312.384 523.055 279.51C523.055 246.637 516.612 214.731 503.912 184.709C491.649 155.708 474.078 129.663 451.718 107.293C429.347 84.9222 403.302 67.3611 374.301 55.0984C344.279 42.3986 312.374 35.955 279.5 35.955C246.626 35.955 214.721 42.3986 184.699 55.0984C155.698 67.361 129.653 84.9326 107.282 107.293C84.9118 129.663 67.3507 155.708 55.0881 184.709C42.3882 214.731 35.9446 246.637 35.9446 279.51C35.9446 312.384 42.3882 344.29 55.0881 374.311C67.3507 403.313 84.9222 429.358 107.282 451.728C129.653 474.099 155.698 491.66 184.699 503.922C214.72 516.622 246.626 523.066 279.5 523.066Z" fill="url(#paint8_linear_237_89897)"/>
<path d="M279.5 36.9752C312.239 36.9752 343.999 43.3876 373.906 56.0353C402.782 68.2459 428.723 85.7342 450.989 108.011C473.266 130.288 490.744 156.218 502.965 185.095C515.613 214.991 522.025 246.751 522.025 279.5C522.025 312.249 515.613 343.998 502.965 373.905C490.754 402.782 473.266 428.723 450.989 450.989C428.712 473.266 402.782 490.744 373.906 502.965C344.009 515.612 312.249 522.025 279.5 522.025C246.751 522.025 215.002 515.612 185.095 502.965C156.218 490.754 130.277 473.266 108.011 450.989C85.7342 428.712 68.2564 402.782 56.0354 373.905C43.3877 344.009 36.9753 312.249 36.9753 279.5C36.9753 246.751 43.3877 215.002 56.0354 185.095C68.246 156.218 85.7342 130.277 108.011 108.011C130.288 85.7342 156.218 68.2563 185.095 56.0353C214.991 43.3876 246.751 36.9752 279.5 36.9752ZM279.5 518.996C311.833 518.996 343.197 512.666 372.719 500.175C401.241 488.11 426.849 470.84 448.845 448.845C470.84 426.849 488.11 401.231 500.175 372.719C512.667 343.197 518.996 311.832 518.996 279.5C518.996 247.168 512.667 215.803 500.175 186.281C488.11 157.759 470.84 132.151 448.845 110.155C426.849 88.1596 401.231 70.89 372.719 58.8251C343.197 46.3335 311.833 40.0044 279.5 40.0044C247.168 40.0044 215.803 46.3335 186.281 58.8251C157.759 70.8899 132.151 88.1596 110.155 110.155C88.1597 132.151 70.89 157.769 58.8252 186.281C46.3336 215.803 40.0045 247.168 40.0045 279.5C40.0045 311.832 46.3336 343.197 58.8252 372.719C70.89 401.241 88.1597 426.849 110.155 448.845C132.151 470.84 157.769 488.11 186.281 500.175C215.803 512.666 247.168 518.996 279.5 518.996Z" fill="url(#paint9_linear_237_89897)"/>
<path d="M279.5 41.087C311.687 41.087 342.905 47.3953 372.302 59.8245C400.69 71.8372 426.193 89.0236 448.085 110.915C469.976 132.807 487.173 158.31 499.176 186.698C511.605 216.095 517.913 247.313 517.913 279.5C517.913 311.687 511.605 342.905 499.176 372.302C487.163 400.69 469.976 426.193 448.085 448.085C426.193 469.976 400.69 487.173 372.302 499.176C342.905 511.605 311.687 517.913 279.5 517.913C247.313 517.913 216.095 511.605 186.698 499.176C158.311 487.163 132.807 469.976 110.915 448.085C89.0237 426.193 71.8269 400.69 59.8245 372.302C47.3953 342.905 41.0871 311.687 41.0871 279.5C41.0871 247.313 47.3953 216.095 59.8245 186.698C71.8373 158.31 89.0237 132.807 110.915 110.915C132.807 89.0236 158.311 71.8268 186.698 59.8245C216.095 47.3953 247.313 41.087 279.5 41.087ZM279.5 514.936C311.281 514.936 342.114 508.711 371.147 496.438C399.18 484.581 424.361 467.603 445.982 445.982C467.603 424.361 484.581 399.18 496.438 371.147C508.711 342.125 514.936 311.291 514.936 279.5C514.936 247.709 508.711 216.886 496.438 187.853C484.581 159.82 467.603 134.639 445.982 113.018C424.361 91.397 399.18 74.4188 371.147 62.5622C342.125 50.2892 311.291 44.0642 279.5 44.0642C247.709 44.0642 216.886 50.2892 187.853 62.5622C159.82 74.4188 134.639 91.397 113.018 113.018C91.3971 134.639 74.4189 159.82 62.5623 187.853C50.2892 216.875 44.0642 247.709 44.0642 279.5C44.0642 311.291 50.2892 342.114 62.5623 371.147C74.4189 399.18 91.3971 424.361 113.018 445.982C134.639 467.603 159.82 484.581 187.853 496.438C216.875 508.711 247.709 514.936 279.5 514.936Z" fill="url(#paint10_linear_237_89897)"/>
<path d="M279.5 45.1988C311.135 45.1988 341.812 51.3926 370.699 63.6136C398.597 75.4182 423.653 92.3131 445.17 113.83C466.687 135.347 483.582 160.403 495.387 188.301C507.607 217.188 513.801 247.875 513.801 279.5C513.801 311.125 507.607 341.812 495.387 370.699C483.582 398.597 466.687 423.653 445.17 445.17C423.653 466.687 398.597 483.582 370.699 495.386C341.812 507.607 311.125 513.801 279.5 513.801C247.875 513.801 217.188 507.607 188.301 495.386C160.403 483.582 135.347 466.687 113.83 445.17C92.3132 423.653 75.4182 398.597 63.6136 370.699C51.3927 341.812 45.1989 311.125 45.1989 279.5C45.1989 247.875 51.3927 217.188 63.6136 188.301C75.4182 160.403 92.3132 135.347 113.83 113.83C135.347 92.3131 160.403 75.4182 188.301 63.6136C217.188 51.3926 247.875 45.1988 279.5 45.1988ZM279.5 510.876C310.74 510.876 341.042 504.755 369.565 492.69C397.119 481.042 421.863 464.355 443.109 443.109C464.355 421.863 481.042 397.119 492.69 369.565C504.755 341.042 510.876 310.74 510.876 279.5C510.876 248.261 504.755 217.968 492.69 189.435C481.042 161.881 464.355 137.137 443.109 115.891C421.863 94.6449 397.119 77.9581 369.565 66.3097C341.042 54.2449 310.74 48.124 279.5 48.124C248.261 48.124 217.968 54.2449 189.436 66.3097C161.881 77.9581 137.137 94.6448 115.891 115.891C94.6449 137.137 77.9582 161.881 66.3097 189.435C54.2449 217.958 48.1241 248.261 48.1241 279.5C48.1241 310.739 54.2449 341.032 66.3097 369.565C77.9582 397.119 94.6449 421.863 115.891 443.109C137.137 464.355 161.881 481.042 189.436 492.69C217.958 504.755 248.261 510.876 279.5 510.876Z" fill="url(#paint11_linear_237_89897)"/>
<path d="M279.5 49.3002C310.573 49.3002 340.719 55.3899 369.107 67.3923C396.515 78.9886 421.134 95.5817 442.276 116.724C463.418 137.866 480.011 162.485 491.608 189.893C503.61 218.27 509.7 248.417 509.7 279.5C509.7 310.583 503.61 340.719 491.608 369.106C480.011 396.515 463.418 421.134 442.276 442.276C421.134 463.418 396.515 480.011 369.107 491.608C340.73 503.61 310.583 509.7 279.5 509.7C248.417 509.7 218.281 503.61 189.893 491.608C162.485 480.011 137.866 463.418 116.724 442.276C95.5817 421.134 78.9886 396.515 67.3922 369.106C55.3899 340.73 49.3002 310.583 49.3002 279.5C49.3002 248.417 55.3899 218.281 67.3922 189.893C78.9886 162.485 95.5817 137.866 116.724 116.724C137.866 95.5817 162.485 78.9886 189.893 67.3922C218.27 55.3899 248.417 49.3002 279.5 49.3002ZM279.5 506.806C310.188 506.806 339.959 500.799 367.982 488.943C395.047 477.492 419.364 461.107 440.236 440.225C461.107 419.354 477.503 395.037 488.953 367.972C500.81 339.949 506.816 310.177 506.816 279.49C506.816 248.802 500.81 219.03 488.953 191.007C477.503 163.942 461.118 139.625 440.236 118.754C419.364 97.8822 395.047 81.487 367.982 70.0363C339.959 58.1797 310.188 52.1733 279.5 52.1733C248.812 52.1733 219.041 58.1797 191.018 70.0363C163.952 81.487 139.635 97.8718 118.764 118.754C97.8927 139.625 81.4974 163.942 70.0468 191.007C58.1901 219.03 52.1837 248.802 52.1837 279.49C52.1837 310.177 58.1901 339.949 70.0468 367.972C81.4974 395.037 97.8822 419.354 118.764 440.225C139.635 461.097 163.952 477.492 191.018 488.943C219.041 500.799 248.812 506.806 279.5 506.806Z" fill="url(#paint12_linear_237_89897)"/>
<path d="M279.5 53.4121C310.021 53.4121 339.626 59.3873 367.503 71.1814C394.423 82.5696 418.605 98.8712 439.372 119.628C460.139 140.395 476.441 164.567 487.819 191.497C499.613 219.374 505.588 248.979 505.588 279.5C505.588 310.021 499.613 339.626 487.819 367.504C476.43 394.423 460.129 418.605 439.372 439.372C418.605 460.139 394.433 476.441 367.503 487.819C339.626 499.613 310.021 505.588 279.5 505.588C248.979 505.588 219.374 499.613 191.496 487.819C164.577 476.43 140.395 460.129 119.628 439.372C98.8607 418.605 82.5591 394.433 71.1814 367.503C59.3872 339.626 53.412 310.021 53.412 279.5C53.412 248.979 59.3872 219.374 71.1814 191.497C82.5695 164.577 98.8711 140.395 119.628 119.628C140.395 98.8608 164.567 82.5592 191.496 71.1814C219.374 59.3873 248.979 53.4121 279.5 53.4121ZM279.5 502.746C309.636 502.746 338.877 496.844 366.4 485.206C392.986 473.963 416.856 457.86 437.363 437.363C457.87 416.856 473.963 392.986 485.206 366.4C496.844 338.877 502.746 309.636 502.746 279.5C502.746 249.364 496.844 220.123 485.206 192.6C473.963 166.014 457.859 142.144 437.363 121.637C416.856 101.13 392.986 85.0367 366.4 73.7943C338.877 62.1562 309.636 56.2539 279.5 56.2539C249.364 56.2539 220.123 62.1562 192.6 73.7943C166.014 85.0367 142.144 101.14 121.637 121.637C101.13 142.144 85.0366 166.014 73.7942 192.6C62.1562 220.123 56.2539 249.364 56.2539 279.5C56.2539 309.636 62.1562 338.877 73.7942 366.4C85.0366 392.986 101.14 416.856 121.637 437.363C142.144 457.87 166.014 473.963 192.6 485.206C220.123 496.844 249.364 502.746 279.5 502.746Z" fill="url(#paint13_linear_237_89897)"/>
<path d="M279.5 57.5239C309.469 57.5239 338.533 63.395 365.9 74.9705C392.331 86.1505 416.075 102.161 436.457 122.543C456.839 142.925 472.849 166.669 484.029 193.1C495.605 220.467 501.476 249.541 501.476 279.5C501.476 309.459 495.605 338.533 484.029 365.9C472.849 392.331 456.839 416.075 436.457 436.457C416.075 456.839 392.331 472.849 365.9 484.029C338.533 495.605 309.459 501.476 279.5 501.476C249.541 501.476 220.467 495.605 193.1 484.029C166.669 472.849 142.925 456.839 122.543 436.457C102.161 416.075 86.1505 392.331 74.9705 365.9C63.395 338.533 57.5239 309.459 57.5239 279.5C57.5239 249.541 63.395 220.467 74.9705 193.1C86.1505 166.669 102.161 142.925 122.543 122.543C142.925 102.161 166.669 86.1505 193.1 74.9705C220.467 63.395 249.541 57.5239 279.5 57.5239ZM279.5 498.686C309.095 498.686 337.794 492.888 364.818 481.458C390.915 470.414 414.357 454.612 434.49 434.479C454.622 414.347 470.424 390.904 481.469 364.807C492.898 337.784 498.697 309.084 498.697 279.49C498.697 249.895 492.898 221.195 481.469 194.172C470.424 168.075 454.622 144.632 434.49 124.5C414.357 104.367 390.915 88.5656 364.818 77.5209C337.794 66.0911 309.095 60.2929 279.5 60.2929C249.905 60.2929 221.206 66.0911 194.182 77.5209C168.085 88.5656 144.643 104.367 124.51 124.5C104.378 144.632 88.576 168.075 77.5313 194.172C66.1015 221.195 60.3033 249.895 60.3033 279.49C60.3033 309.084 66.1015 337.784 77.5313 364.807C88.576 390.904 104.378 414.347 124.51 434.479C144.643 454.612 168.085 470.414 194.182 481.458C221.206 492.888 249.905 498.686 279.5 498.686Z" fill="url(#paint14_linear_237_89897)"/>
<path d="M279.5 61.6253C308.907 61.6253 337.44 67.3819 364.308 78.7492C390.249 89.721 413.556 105.429 433.563 125.437C453.571 145.444 469.279 168.741 480.251 194.692C491.608 221.549 497.375 250.082 497.375 279.5C497.375 308.918 491.618 337.44 480.251 364.308C469.279 390.249 453.571 413.556 433.563 433.563C413.556 453.571 390.259 469.279 364.308 480.251C337.451 491.608 308.918 497.375 279.5 497.375C250.082 497.375 221.56 491.618 194.692 480.251C168.751 469.279 145.444 453.571 125.437 433.563C105.429 413.556 89.7211 390.259 78.7493 364.308C67.3923 337.451 61.6254 308.918 61.6254 279.5C61.6254 250.082 67.3819 221.56 78.7493 194.692C89.7211 168.751 105.429 145.444 125.437 125.437C145.444 105.429 168.741 89.721 194.692 78.7492C221.549 67.3923 250.082 61.6253 279.5 61.6253ZM279.5 494.616C308.543 494.616 336.712 488.932 363.236 477.711C388.854 466.874 411.859 451.364 431.617 431.606C451.374 411.849 466.885 388.843 477.721 363.225C488.943 336.701 494.627 308.533 494.627 279.49C494.627 250.447 488.943 222.278 477.721 195.754C466.885 170.136 451.374 147.13 431.617 127.373C411.859 107.615 388.854 92.1049 363.236 81.2684C336.712 70.0467 308.543 64.363 279.5 64.363C250.457 64.363 222.288 70.0467 195.765 81.2684C170.146 92.1048 147.141 107.615 127.383 127.373C107.626 147.13 92.1153 170.136 81.2789 195.754C70.0572 222.278 64.3735 250.447 64.3735 279.49C64.3735 308.533 70.0572 336.701 81.2789 363.225C92.1153 388.843 107.626 411.849 127.383 431.606C147.141 451.364 170.146 466.874 195.765 477.711C222.288 488.932 250.457 494.616 279.5 494.616Z" fill="url(#paint15_linear_237_89897)"/>
<path d="M279.5 65.7372C308.356 65.7372 336.347 71.3896 362.705 82.5384C388.156 93.302 411.016 108.719 430.649 128.351C450.281 147.984 465.688 170.844 476.462 196.295C487.61 222.653 493.263 250.644 493.263 279.5C493.263 308.356 487.61 336.347 476.462 362.705C465.698 388.156 450.281 411.016 430.649 430.649C411.016 450.281 388.156 465.688 362.705 476.462C336.347 487.61 308.356 493.263 279.5 493.263C250.644 493.263 222.653 487.61 196.295 476.462C170.844 465.698 147.984 450.281 128.351 430.649C108.719 411.016 93.3125 388.156 82.5384 362.705C71.3897 336.347 65.7372 308.356 65.7372 279.5C65.7372 250.644 71.3897 222.653 82.5384 196.295C93.3021 170.844 108.719 147.984 128.351 128.351C147.984 108.719 170.844 93.3124 196.295 82.5384C222.653 71.3896 250.644 65.7372 279.5 65.7372ZM279.5 490.556C307.991 490.556 335.639 484.977 361.653 473.974C386.782 463.345 409.361 448.127 428.744 428.744C448.127 409.361 463.345 386.793 473.974 361.653C484.977 335.629 490.556 307.991 490.556 279.5C490.556 251.009 484.977 223.361 473.974 197.347C463.346 172.218 448.127 149.639 428.744 130.256C409.361 110.874 386.793 95.6546 361.653 85.0263C335.629 74.0233 307.991 68.4437 279.5 68.4437C251.009 68.4437 223.361 74.0233 197.347 85.0263C172.218 95.6546 149.639 110.874 130.256 130.256C110.874 149.639 95.6546 172.207 85.0263 197.347C74.0233 223.371 68.4437 251.009 68.4437 279.5C68.4437 307.991 74.0233 335.639 85.0263 361.653C95.6546 386.782 110.874 409.361 130.256 428.744C149.639 448.127 172.207 463.345 197.347 473.974C223.371 484.977 251.009 490.556 279.5 490.556Z" fill="url(#paint16_linear_237_89897)"/>
<path d="M279.5 69.849C307.804 69.849 335.254 75.3974 361.102 86.3275C386.064 96.8829 408.486 112.008 427.744 131.256C447.002 150.514 462.117 172.926 472.673 197.899C483.603 223.746 489.151 251.206 489.151 279.5C489.151 307.794 483.603 335.254 472.673 361.102C462.117 386.064 446.992 408.486 427.744 427.744C408.497 447.002 386.074 462.117 361.102 472.673C335.254 483.603 307.794 489.151 279.5 489.151C251.207 489.151 223.746 483.603 197.899 472.673C172.936 462.117 150.514 446.992 131.256 427.744C111.998 408.486 96.883 386.074 86.3276 361.102C75.3974 335.254 69.8491 307.794 69.8491 279.5C69.8491 251.206 75.3975 223.746 86.3276 197.898C96.883 172.936 112.008 150.514 131.256 131.256C150.514 111.998 172.926 96.8829 197.899 86.3275C223.746 75.3974 251.207 69.849 279.5 69.849ZM279.5 486.497C307.45 486.497 334.557 481.021 360.071 470.226C384.721 459.796 406.863 444.879 425.871 425.86C444.879 406.852 459.806 384.711 470.237 360.061C481.032 334.546 486.507 307.429 486.507 279.49C486.507 251.55 481.032 224.433 470.237 198.919C459.806 174.269 444.889 152.127 425.871 133.119C406.863 114.111 384.721 99.1835 360.071 88.753C334.557 77.9581 307.44 72.4826 279.5 72.4826C251.561 72.4826 224.443 77.9581 198.929 88.753C174.279 99.1835 152.138 114.101 133.13 133.119C114.121 152.127 99.194 174.269 88.7635 198.919C77.9686 224.433 72.4932 251.55 72.4932 279.49C72.4932 307.429 77.9686 334.546 88.7635 360.061C99.194 384.711 114.111 406.852 133.13 425.86C152.138 444.868 174.279 459.796 198.929 470.226C224.443 481.021 251.561 486.497 279.5 486.497Z" fill="url(#paint17_linear_237_89897)"/>
<path d="M279.5 73.9608C307.252 73.9608 334.161 79.3947 359.509 90.1166C383.982 100.474 405.967 115.287 424.84 134.17C443.713 153.043 458.536 175.028 468.894 199.502C479.616 224.839 485.05 251.758 485.05 279.51C485.05 307.263 479.616 334.172 468.894 359.519C458.536 383.992 443.723 405.978 424.84 424.85C405.957 443.723 383.982 458.547 359.509 468.904C334.172 479.626 307.252 485.06 279.5 485.06C251.748 485.06 224.839 479.626 199.491 468.904C175.018 458.547 153.033 443.734 134.16 424.85C115.287 405.978 100.464 383.992 90.1062 359.519C79.3842 334.182 73.9504 307.263 73.9504 279.51C73.9504 251.758 79.3842 224.849 90.1062 199.502C100.464 175.028 115.277 153.043 134.16 134.17C153.043 115.298 175.018 100.474 199.491 90.1166C224.828 79.3947 251.748 73.9608 279.5 73.9608ZM279.5 482.447C306.898 482.447 333.474 477.086 358.489 466.5C382.649 456.277 404.354 441.641 422.997 423.008C441.631 404.375 456.267 382.67 466.489 358.499C477.076 333.485 482.437 306.909 482.437 279.51C482.437 252.112 477.076 225.536 466.489 200.522C456.267 176.361 441.631 154.657 422.997 136.013C404.364 117.38 382.66 102.744 358.489 92.5213C333.474 81.9346 306.898 76.5736 279.5 76.5736C252.102 76.5736 225.526 81.9346 200.511 92.5213C176.35 102.744 154.646 117.38 136.002 136.013C117.369 154.646 102.733 176.35 92.5108 200.522C81.9242 225.536 76.5632 252.112 76.5632 279.51C76.5632 306.909 81.9242 333.485 92.5108 358.499C102.733 382.66 117.369 404.364 136.002 423.008C154.636 441.641 176.34 456.277 200.511 466.5C225.526 477.086 252.102 482.447 279.5 482.447Z" fill="url(#paint18_linear_237_89897)"/>
<path d="M279.5 78.0622C306.69 78.0622 333.068 83.3919 357.906 93.8953C381.89 104.045 403.438 118.566 421.936 137.064C440.434 155.562 454.955 177.11 465.105 201.094C475.608 225.932 480.938 252.31 480.938 279.5C480.938 306.69 475.608 333.068 465.105 357.906C454.955 381.89 440.434 403.438 421.936 421.936C403.438 440.434 381.89 454.955 357.906 465.105C333.068 475.608 306.69 480.938 279.5 480.938C252.31 480.938 225.932 475.608 201.094 465.105C177.11 454.955 155.562 440.434 137.064 421.936C118.566 403.438 104.045 381.89 93.8953 357.906C83.392 333.068 78.0622 306.69 78.0622 279.5C78.0622 252.31 83.392 225.932 93.8953 201.094C104.045 177.11 118.566 155.562 137.064 137.064C155.562 118.566 177.11 104.045 201.094 93.8953C225.932 83.3919 252.31 78.0622 279.5 78.0622ZM279.5 478.377C306.347 478.377 332.392 473.12 356.906 462.752C380.588 452.738 401.855 438.393 420.124 420.135C438.393 401.866 452.727 380.599 462.742 356.917C473.11 332.402 478.367 306.357 478.367 279.51C478.367 252.664 473.11 226.619 462.742 202.104C452.727 178.422 438.383 157.155 420.124 138.886C401.855 120.617 380.588 106.283 356.906 96.2687C332.392 85.9007 306.347 80.6438 279.5 80.6438C252.653 80.6438 226.608 85.9007 202.094 96.2687C178.412 106.283 157.145 120.627 138.876 138.886C120.607 157.155 106.272 178.422 96.2583 202.104C85.8903 226.619 80.6334 252.664 80.6334 279.51C80.6334 306.357 85.8902 332.402 96.2583 356.917C106.272 380.599 120.617 401.866 138.876 420.135C157.145 438.404 178.412 452.738 202.094 462.752C226.608 473.12 252.653 478.377 279.5 478.377Z" fill="url(#paint19_linear_237_89897)"/>
<path d="M279.5 82.174C306.138 82.174 331.986 87.3892 356.313 97.6844C379.808 107.626 400.919 121.856 419.031 139.969C437.155 158.092 451.385 179.192 461.316 202.687C471.611 227.014 476.826 252.862 476.826 279.5C476.826 306.138 471.611 331.986 461.315 356.313C451.374 379.808 437.144 400.908 419.031 419.031C400.908 437.155 379.808 451.385 356.313 461.315C331.986 471.6 306.138 476.826 279.5 476.826C252.862 476.826 227.014 471.611 202.687 461.315C179.192 451.374 158.081 437.144 139.969 419.031C121.845 400.908 107.615 379.808 97.6844 356.313C87.3893 331.986 82.174 306.138 82.174 279.5C82.174 252.862 87.3893 227.014 97.6844 202.687C107.626 179.192 121.856 158.081 139.969 139.969C158.092 121.845 179.192 107.615 202.687 97.6844C227.014 87.3892 252.862 82.174 279.5 82.174ZM279.5 474.317C305.805 474.317 331.309 469.164 355.335 459.005C378.527 449.188 399.367 435.146 417.262 417.251C435.156 399.357 449.199 378.527 459.015 355.324C469.175 331.309 474.328 305.795 474.328 279.49C474.328 253.184 469.175 227.681 459.015 203.655C449.199 180.452 435.156 159.622 417.262 141.728C399.367 123.834 378.538 109.791 355.335 99.9746C331.319 89.8147 305.805 84.6619 279.5 84.6619C253.195 84.6619 227.691 89.8147 203.665 99.9746C180.473 109.791 159.632 123.834 141.738 141.728C123.844 159.622 109.801 180.452 99.985 203.655C89.8251 227.67 84.6724 253.184 84.6724 279.49C84.6724 305.795 89.8251 331.299 99.985 355.324C109.801 378.527 123.844 399.357 141.738 417.251C159.632 435.146 180.462 449.188 203.665 459.005C227.681 469.164 253.195 474.317 279.5 474.317Z" fill="url(#paint20_linear_237_89897)"/>
<path d="M279.5 86.2859C305.587 86.2859 330.893 91.397 354.71 101.474C377.715 111.207 398.379 125.135 416.127 142.883C433.876 160.632 447.804 181.295 457.537 204.3C467.613 228.118 472.725 253.424 472.725 279.51C472.725 305.597 467.613 330.903 457.537 354.72C447.804 377.726 433.876 398.389 416.127 416.138C398.379 433.886 377.715 447.814 354.71 457.547C330.893 467.624 305.587 472.735 279.5 472.735C253.413 472.735 228.107 467.624 204.29 457.547C181.285 447.814 160.621 433.886 142.873 416.138C125.124 398.389 111.196 377.726 101.463 354.72C91.3866 330.903 86.2755 305.597 86.2755 279.51C86.2755 253.424 91.3867 228.118 101.463 204.3C111.196 181.295 125.124 160.632 142.873 142.883C160.621 125.135 181.285 111.207 204.29 101.474C228.107 91.397 253.413 86.2859 279.5 86.2859ZM279.5 470.257C305.254 470.257 330.237 465.219 353.752 455.268C376.466 445.659 396.869 431.908 414.389 414.389C431.908 396.869 445.659 376.466 455.268 353.752C465.209 330.237 470.258 305.254 470.258 279.5C470.258 253.746 465.219 228.763 455.268 205.248C445.659 182.534 431.908 162.131 414.389 144.611C396.869 127.092 376.466 113.341 353.752 103.733C330.237 93.7913 305.254 88.7426 279.5 88.7426C253.747 88.7426 228.763 93.7809 205.248 103.733C182.534 113.341 162.131 127.092 144.611 144.611C127.092 162.131 113.341 182.534 103.733 205.248C93.7913 228.763 88.7426 253.746 88.7426 279.5C88.7426 305.254 93.7809 330.237 103.733 353.752C113.341 376.466 127.092 396.869 144.611 414.389C162.131 431.908 182.534 445.659 205.248 455.268C228.763 465.209 253.746 470.257 279.5 470.257Z" fill="url(#paint21_linear_237_89897)"/>
<path d="M279.5 90.3873C305.025 90.3873 329.8 95.3839 353.107 105.252C375.623 114.777 395.849 128.414 413.212 145.777C430.576 163.141 444.212 183.367 453.737 205.883C463.595 229.2 468.602 253.965 468.602 279.49C468.602 305.014 463.606 329.789 453.737 353.096C444.212 375.613 430.576 395.839 413.212 413.202C395.849 430.565 375.623 444.202 353.107 453.727C329.789 463.585 305.025 468.592 279.5 468.592C253.975 468.592 229.2 463.595 205.893 453.727C183.377 444.202 163.151 430.565 145.788 413.202C128.424 395.839 114.788 375.613 105.263 353.096C95.4047 329.779 90.3977 305.014 90.3977 279.49C90.3977 253.965 95.3943 229.19 105.263 205.883C114.788 183.367 128.424 163.141 145.788 145.777C163.151 128.414 183.377 114.777 205.893 105.252C229.211 95.3943 253.975 90.3873 279.5 90.3873ZM279.5 466.187C304.702 466.187 329.154 461.253 352.17 451.52C374.405 442.12 394.371 428.66 411.516 411.516C428.66 394.371 442.12 374.405 451.52 352.17C461.253 329.154 466.187 304.702 466.187 279.5C466.187 254.298 461.253 229.846 451.52 206.83C442.12 184.595 428.66 164.629 411.516 147.484C394.371 130.34 374.405 116.88 352.17 107.48C329.154 97.7469 304.702 92.8127 279.5 92.8127C254.298 92.8127 229.846 97.7469 206.83 107.48C184.595 116.88 164.629 130.34 147.484 147.484C130.34 164.629 116.88 184.595 107.48 206.83C97.7469 229.846 92.8127 254.298 92.8127 279.5C92.8127 304.702 97.7469 329.154 107.48 352.17C116.88 374.405 130.34 394.371 147.484 411.516C164.629 428.66 184.595 442.12 206.83 451.52C229.846 461.253 254.298 466.187 279.5 466.187Z" fill="url(#paint22_linear_237_89897)"/>
<path d="M279.5 94.4991C304.473 94.4991 328.706 99.3916 351.514 109.041C373.541 118.358 393.33 131.703 410.318 148.692C427.307 165.68 440.652 185.469 449.969 207.496C459.619 230.304 464.511 254.538 464.511 279.51C464.511 304.483 459.619 328.717 449.969 351.525C440.652 373.551 427.307 393.34 410.318 410.329C393.33 427.317 373.541 440.663 351.514 449.979C328.706 459.629 304.473 464.522 279.5 464.522C254.527 464.522 230.293 459.629 207.486 449.979C185.459 440.663 165.67 427.317 148.681 410.329C131.693 393.34 118.348 373.551 109.031 351.525C99.3812 328.717 94.4886 304.483 94.4886 279.51C94.4886 254.538 99.3812 230.304 109.031 207.496C118.348 185.469 131.693 165.68 148.681 148.692C165.67 131.703 185.459 118.358 207.486 109.041C230.293 99.3916 254.527 94.4991 279.5 94.4991ZM279.5 462.127C304.15 462.127 328.071 457.297 350.588 447.772C372.333 438.57 391.862 425.402 408.642 408.632C425.412 391.862 438.581 372.334 447.783 350.577C457.308 328.061 462.138 304.15 462.138 279.49C462.138 254.829 457.308 230.918 447.783 208.402C438.581 186.656 425.412 167.127 408.642 150.347C391.872 133.577 372.344 120.409 350.588 111.207C328.072 101.682 304.16 96.8517 279.5 96.8517C254.839 96.8517 230.928 101.682 208.412 111.207C186.666 120.409 167.138 133.577 150.357 150.347C133.587 167.117 120.419 186.646 111.217 208.402C101.692 230.918 96.862 254.829 96.862 279.49C96.862 304.15 101.692 328.061 111.217 350.577C120.419 372.323 133.587 391.852 150.357 408.632C167.127 425.402 186.656 438.57 208.412 447.772C230.928 457.297 254.839 462.127 279.5 462.127Z" fill="url(#paint23_linear_237_89897)"/>
<path d="M279.5 98.6109C303.921 98.6109 327.613 103.389 349.911 112.831C371.449 121.939 390.8 134.982 407.414 151.596C424.028 168.21 437.071 187.551 446.18 209.099C455.611 231.397 460.399 255.089 460.399 279.51C460.399 303.931 455.621 327.624 446.18 349.921C437.071 371.459 424.028 390.811 407.414 407.425C390.8 424.038 371.459 437.082 349.911 446.19C327.613 455.621 303.921 460.41 279.5 460.41C255.079 460.41 231.386 455.632 209.089 446.19C187.551 437.082 168.2 424.038 151.586 407.425C134.972 390.811 121.929 371.469 112.82 349.921C103.389 327.624 98.6005 303.931 98.6005 279.51C98.6005 255.089 103.379 231.397 112.82 209.099C121.929 187.562 134.972 168.21 151.586 151.596C168.2 134.982 187.541 121.939 209.089 112.831C231.386 103.399 255.079 98.6109 279.5 98.6109ZM279.5 458.068C303.609 458.068 326.989 453.342 349.005 444.035C370.272 435.041 389.364 422.165 405.769 405.769C422.175 389.374 435.041 370.272 444.035 349.005C453.342 326.989 458.068 303.609 458.068 279.5C458.068 255.391 453.342 232.011 444.035 209.994C435.041 188.728 422.165 169.636 405.769 153.23C389.374 136.835 370.272 123.958 349.005 114.965C326.989 105.658 303.609 100.932 279.5 100.932C255.391 100.932 232.011 105.658 209.995 114.965C188.728 123.958 169.636 136.835 153.23 153.23C136.835 169.626 123.958 188.728 114.965 209.994C105.658 232.011 100.932 255.391 100.932 279.5C100.932 303.609 105.658 326.989 114.964 349.005C123.958 370.272 136.835 389.364 153.23 405.769C169.626 422.165 188.727 435.041 209.994 444.035C232.011 453.342 255.391 458.068 279.5 458.068Z" fill="url(#paint24_linear_237_89897)"/>
<path d="M279.5 102.712C303.37 102.712 326.521 107.386 348.308 116.609C369.356 125.51 388.26 138.261 404.5 154.49C420.739 170.729 433.48 189.633 442.38 210.682C451.603 232.479 456.277 255.631 456.277 279.49C456.277 303.349 451.603 326.51 442.38 348.298C433.48 369.346 420.728 388.25 404.5 404.489C388.26 420.728 369.356 433.47 348.308 442.37C326.51 451.593 303.359 456.267 279.5 456.267C255.641 456.267 232.48 451.593 210.692 442.37C189.644 433.47 170.74 420.718 154.501 404.489C138.262 388.25 125.52 369.346 116.62 348.298C107.397 326.5 102.723 303.349 102.723 279.49C102.723 255.631 107.397 232.469 116.62 210.682C125.52 189.633 138.272 170.729 154.501 154.49C170.74 138.251 189.644 125.51 210.692 116.609C232.49 107.386 255.641 102.712 279.5 102.712ZM279.5 453.998C303.057 453.998 325.906 449.386 347.423 440.288C368.201 431.502 386.866 418.917 402.886 402.886C418.917 386.855 431.492 368.201 440.288 347.423C449.386 325.906 453.998 303.057 453.998 279.5C453.998 255.943 449.386 233.094 440.288 211.577C431.502 190.799 418.917 172.135 402.886 156.114C386.855 140.083 368.201 127.508 347.423 118.712C325.906 109.614 303.057 105.002 279.5 105.002C255.943 105.002 233.094 109.614 211.577 118.712C190.799 127.498 172.135 140.083 156.114 156.114C140.083 172.145 127.508 190.799 118.712 211.577C109.614 233.094 105.003 255.943 105.003 279.5C105.003 303.057 109.614 325.906 118.712 347.423C127.498 368.201 140.083 386.865 156.114 402.886C172.145 418.917 190.799 431.492 211.577 440.288C233.094 449.386 255.943 453.998 279.5 453.998Z" fill="url(#paint25_linear_237_89897)"/>
<path d="M279.5 106.824C302.807 106.824 325.428 111.394 346.715 120.398C367.274 129.09 385.741 141.551 401.606 157.405C417.46 173.259 429.91 191.726 438.612 212.295C447.616 233.583 452.186 256.193 452.186 279.51C452.186 302.828 447.616 325.438 438.612 346.726C429.92 367.285 417.47 385.752 401.606 401.616C385.741 417.48 367.285 429.92 346.715 438.622C325.428 447.627 302.818 452.197 279.5 452.197C256.182 452.197 233.572 447.627 212.285 438.622C191.726 429.93 173.259 417.48 157.394 401.616C141.54 385.762 129.091 367.295 120.388 346.726C111.384 325.438 106.814 302.828 106.814 279.51C106.814 256.193 111.384 233.583 120.388 212.295C129.08 191.736 141.54 173.269 157.394 157.405C173.248 141.551 191.715 129.101 212.285 120.398C233.572 111.394 256.182 106.824 279.5 106.824ZM279.5 449.938C302.505 449.938 324.834 445.43 345.841 436.54C366.14 427.952 384.367 415.669 400.013 400.013C415.669 384.357 427.953 366.129 436.541 345.841C445.43 324.834 449.938 302.505 449.938 279.5C449.938 256.495 445.43 234.166 436.541 213.159C427.953 192.86 415.669 174.633 400.013 158.987C384.357 143.331 366.129 131.047 345.841 122.459C324.834 113.57 302.505 109.062 279.5 109.062C256.495 109.062 234.166 113.57 213.159 122.459C192.86 131.047 174.633 143.331 158.987 158.987C143.331 174.643 131.048 192.871 122.46 213.159C113.57 234.166 109.062 256.495 109.062 279.5C109.062 302.505 113.57 324.834 122.46 345.841C131.048 366.14 143.331 384.367 158.987 400.013C174.643 415.669 192.871 427.952 213.159 436.54C234.166 445.43 256.495 449.938 279.5 449.938Z" fill="url(#paint26_linear_237_89897)"/>
<path d="M279.5 110.936C302.256 110.936 324.334 115.391 345.112 124.187C365.182 132.682 383.212 144.83 398.691 160.309C414.17 175.788 426.329 193.818 434.812 213.888C443.598 234.665 448.064 256.744 448.064 279.5C448.064 302.256 443.609 324.334 434.812 345.112C426.318 365.182 414.17 383.212 398.691 398.691C383.212 414.17 365.182 426.329 345.112 434.812C324.334 443.598 302.256 448.064 279.5 448.064C256.744 448.064 234.665 443.609 213.888 434.812C193.818 426.318 175.788 414.17 160.309 398.691C144.83 383.212 132.671 365.182 124.187 345.112C115.402 324.334 110.936 302.256 110.936 279.5C110.936 256.744 115.391 234.665 124.187 213.888C132.682 193.818 144.83 175.788 160.309 160.309C175.788 144.83 193.818 132.671 213.888 124.187C234.665 115.402 256.744 110.936 279.5 110.936ZM279.5 445.878C301.964 445.878 323.752 441.475 344.259 432.803C364.068 424.424 381.869 412.432 397.14 397.15C412.421 381.869 424.413 364.079 432.793 344.269C441.464 323.762 445.868 301.964 445.868 279.51C445.868 257.057 441.464 235.259 432.793 214.752C424.413 194.942 412.421 177.152 397.14 161.871C381.858 146.589 364.068 134.597 344.259 126.217C323.752 117.546 301.964 113.143 279.5 113.143C257.036 113.143 235.248 117.546 214.741 126.217C194.932 134.597 177.131 146.589 161.86 161.871C146.579 177.152 134.587 194.942 126.207 214.752C117.536 235.259 113.132 257.046 113.132 279.51C113.132 301.974 117.536 323.762 126.207 344.269C134.587 364.079 146.579 381.869 161.86 397.15C177.142 412.432 194.932 424.424 214.741 432.803C235.248 441.475 257.036 445.878 279.5 445.878Z" fill="url(#paint27_linear_237_89897)"/>
<path d="M279.5 115.048C301.704 115.048 323.241 119.399 343.519 127.977C363.1 136.263 380.692 148.119 395.797 163.224C410.901 178.328 422.758 195.91 431.044 215.501C439.622 235.779 443.973 257.317 443.973 279.521C443.973 301.725 439.622 323.262 431.044 343.53C422.758 363.111 410.901 380.703 395.797 395.807C380.692 410.912 363.11 422.768 343.519 431.055C323.241 439.632 301.704 443.983 279.5 443.983C257.296 443.983 235.758 439.632 215.491 431.055C195.91 422.768 178.318 410.912 163.213 395.807C148.109 380.703 136.252 363.121 127.966 343.53C119.389 323.252 115.037 301.714 115.037 279.521C115.037 257.327 119.389 235.779 127.966 215.501C136.252 195.921 148.109 178.328 163.213 163.224C178.318 148.119 195.9 136.263 215.491 127.977C235.769 119.399 257.306 115.048 279.5 115.048ZM279.5 441.818C301.412 441.818 322.669 437.529 342.676 429.066C362.007 420.895 379.36 409.184 394.267 394.277C409.173 379.371 420.874 362.007 429.056 342.687C437.519 322.679 441.808 301.423 441.808 279.51C441.808 257.598 437.519 236.341 429.056 216.334C420.884 197.003 409.173 179.65 394.267 164.744C379.36 149.837 361.997 138.137 342.676 129.955C322.669 121.491 301.412 117.203 279.5 117.203C257.588 117.203 236.331 121.491 216.324 129.955C196.993 138.126 179.64 149.837 164.733 164.744C149.826 179.65 138.126 197.014 129.944 216.334C121.481 236.341 117.192 257.598 117.192 279.51C117.192 301.423 121.481 322.679 129.944 342.687C138.116 362.018 149.826 379.371 164.733 394.277C179.64 409.184 197.003 420.884 216.324 429.066C236.331 437.529 257.588 441.818 279.5 441.818Z" fill="url(#paint28_linear_237_89897)"/>
<path d="M279.5 119.149C301.142 119.149 322.149 123.386 341.917 131.755C361.008 139.833 378.163 151.388 392.882 166.118C407.612 180.847 419.167 197.992 427.245 217.084C435.604 236.851 439.851 257.848 439.851 279.5C439.851 301.152 435.614 322.148 427.245 341.916C419.167 361.008 407.612 378.163 392.882 392.882C378.153 407.612 361.008 419.167 341.917 427.245C322.149 435.604 301.152 439.851 279.5 439.851C257.848 439.851 236.852 435.614 217.084 427.245C197.992 419.167 180.837 407.612 166.118 392.882C151.388 378.153 139.833 361.008 131.755 341.916C123.397 322.148 119.149 301.152 119.149 279.5C119.149 257.848 123.386 236.851 131.755 217.083C139.833 197.992 151.388 180.837 166.118 166.118C180.848 151.388 197.992 139.833 217.084 131.755C236.852 123.396 257.848 119.149 279.5 119.149ZM279.5 437.748C300.861 437.748 321.586 433.563 341.094 425.308C359.936 417.335 376.862 405.926 391.394 391.394C405.926 376.862 417.335 359.936 425.309 341.094C433.563 321.586 437.748 300.861 437.748 279.5C437.748 258.139 433.563 237.414 425.309 217.906C417.335 199.064 405.926 182.138 391.394 167.606C376.862 153.074 359.936 141.665 341.094 133.692C321.586 125.437 300.861 121.252 279.5 121.252C258.139 121.252 237.414 125.437 217.906 133.692C199.064 141.665 182.138 153.074 167.606 167.606C153.074 182.138 141.665 199.064 133.692 217.906C125.437 237.414 121.252 258.139 121.252 279.5C121.252 300.861 125.437 321.586 133.692 341.094C141.665 359.936 153.074 376.862 167.606 391.394C182.138 405.926 199.064 417.335 217.906 425.308C237.414 433.563 258.139 437.748 279.5 437.748Z" fill="url(#paint29_linear_237_89897)"/>
<path d="M279.5 123.261C300.59 123.261 321.055 127.394 340.313 135.544C358.915 143.414 375.623 154.677 389.978 169.032C404.322 183.377 415.596 200.085 423.466 218.697C431.617 237.955 435.749 258.42 435.749 279.51C435.749 300.6 431.617 321.066 423.466 340.324C415.596 358.926 404.333 375.633 389.978 389.988C375.633 404.333 358.926 415.607 340.313 423.476C321.055 431.627 300.59 435.76 279.5 435.76C258.41 435.76 237.944 431.627 218.686 423.476C200.084 415.607 183.377 404.343 169.022 389.988C154.677 375.644 143.404 358.936 135.534 340.324C127.383 321.066 123.251 300.6 123.251 279.51C123.251 258.42 127.383 237.955 135.534 218.697C143.404 200.095 154.667 183.387 169.022 169.032C183.366 154.688 200.074 143.414 218.687 135.544C237.944 127.394 258.41 123.261 279.5 123.261ZM279.5 433.688C300.319 433.688 320.504 429.608 339.522 421.571C357.885 413.806 374.374 402.688 388.531 388.531C402.688 374.374 413.806 357.885 421.571 339.522C429.608 320.514 433.688 300.319 433.688 279.5C433.688 258.681 429.608 238.496 421.571 219.478C413.806 201.115 402.688 184.626 388.531 170.469C374.374 156.312 357.885 145.194 339.522 137.429C320.514 129.392 300.319 125.312 279.5 125.312C258.681 125.312 238.496 129.392 219.488 137.429C201.125 145.194 184.636 156.312 170.479 170.469C156.322 184.626 145.205 201.115 137.439 219.478C129.403 238.486 125.322 258.681 125.322 279.5C125.322 300.319 129.403 320.504 137.439 339.522C145.205 357.885 156.322 374.374 170.479 388.531C184.636 402.688 201.125 413.806 219.488 421.571C238.496 429.608 258.691 433.688 279.5 433.688Z" fill="url(#paint30_linear_237_89897)"/>
<path d="M279.5 127.373C300.038 127.373 319.962 131.391 338.721 139.334C356.833 146.995 373.104 157.967 387.074 171.937C401.043 185.907 412.015 202.177 419.677 220.29C427.609 239.048 431.637 258.972 431.637 279.51C431.637 300.049 427.619 319.973 419.677 338.731C412.015 356.844 401.043 373.114 387.074 387.084C373.104 401.054 356.833 412.026 338.721 419.687C319.962 427.619 300.038 431.648 279.5 431.648C258.962 431.648 239.037 427.63 220.279 419.687C202.166 412.026 185.896 401.054 171.926 387.084C157.956 373.114 146.985 356.844 139.323 338.731C131.391 319.973 127.362 300.049 127.362 279.51C127.362 258.972 131.381 239.048 139.323 220.29C146.985 202.177 157.956 185.907 171.926 171.937C185.896 157.967 202.166 146.995 220.279 139.334C239.037 131.401 258.962 127.373 279.5 127.373ZM279.5 429.628C299.768 429.628 319.431 425.662 337.94 417.834C355.813 410.277 371.875 399.451 385.658 385.658C399.451 371.865 410.266 355.813 417.834 337.94C425.662 319.432 429.628 299.768 429.628 279.5C429.628 259.232 425.662 239.568 417.834 221.06C410.277 203.187 399.451 187.124 385.658 173.342C371.865 159.549 355.813 148.734 337.94 141.166C319.431 133.338 299.768 129.372 279.5 129.372C259.232 129.372 239.568 133.338 221.06 141.166C203.187 148.723 187.124 159.549 173.342 173.342C159.549 187.135 148.733 203.187 141.166 221.06C133.338 239.568 129.371 259.232 129.371 279.5C129.371 299.768 133.338 319.432 141.166 337.94C148.723 355.813 159.549 371.876 173.342 385.658C187.135 399.451 203.186 410.266 221.06 417.834C239.568 425.662 259.232 429.628 279.5 429.628Z" fill="url(#paint31_linear_237_89897)"/>
<path d="M279.5 131.474C299.487 131.474 318.869 135.388 337.118 143.102C354.741 150.555 370.574 161.225 384.169 174.82C397.764 188.415 408.434 204.248 415.888 221.872C423.612 240.12 427.526 259.503 427.526 279.49C427.526 299.476 423.612 318.859 415.888 337.107C408.434 354.731 397.764 370.564 384.169 384.159C370.574 397.754 354.741 408.424 337.118 415.877C318.869 423.601 299.487 427.505 279.5 427.505C259.513 427.505 240.13 423.591 221.882 415.877C204.259 408.424 188.426 397.754 174.831 384.159C161.235 370.564 150.566 354.731 143.112 337.107C135.388 318.859 131.485 299.476 131.485 279.49C131.485 259.503 135.399 240.12 143.112 221.872C150.566 204.248 161.236 188.415 174.831 174.82C188.426 161.225 204.259 150.555 221.882 143.102C240.13 135.378 259.513 131.474 279.5 131.474ZM279.5 425.558C299.216 425.558 318.349 421.696 336.358 414.076C353.752 406.717 369.367 396.193 382.785 382.774C396.203 369.356 406.727 353.742 414.087 336.347C421.707 318.339 425.569 299.216 425.569 279.49C425.569 259.763 421.707 240.641 414.087 222.632C406.727 205.237 396.203 189.623 382.785 176.205C369.367 162.787 353.752 152.262 336.358 144.903C318.349 137.283 299.226 133.421 279.5 133.421C259.774 133.421 240.651 137.283 222.642 144.903C205.248 152.262 189.633 162.787 176.215 176.205C162.797 189.623 152.273 205.237 144.913 222.632C137.293 240.641 133.431 259.763 133.431 279.49C133.431 299.216 137.293 318.338 144.913 336.347C152.273 353.742 162.797 369.356 176.215 382.774C189.633 396.193 205.248 406.717 222.642 414.076C240.651 421.696 259.774 425.558 279.5 425.558Z" fill="url(#paint32_linear_237_89897)"/>
<path d="M279.5 135.586C298.925 135.586 317.777 139.396 335.515 146.891C352.649 154.136 368.045 164.515 381.255 177.735C394.475 190.955 404.843 206.341 412.099 223.475C419.604 241.213 423.404 260.065 423.404 279.49C423.404 298.914 419.594 317.766 412.099 335.504C404.853 352.638 394.475 368.034 381.255 381.244C368.034 394.465 352.649 404.833 335.515 412.088C317.776 419.594 298.925 423.393 279.5 423.393C260.076 423.393 241.224 419.583 223.486 412.088C206.351 404.843 190.955 394.465 177.745 381.244C164.525 368.024 154.157 352.638 146.902 335.504C139.396 317.766 135.597 298.914 135.597 279.49C135.597 260.065 139.407 241.213 146.902 223.475C154.147 206.341 164.525 190.945 177.745 177.735C190.966 164.515 206.351 154.147 223.486 146.891C241.224 139.386 260.076 135.586 279.5 135.586ZM279.5 421.498C298.675 421.498 317.266 417.741 334.776 410.339C351.681 403.188 366.869 392.945 379.912 379.912C392.955 366.868 403.188 351.681 410.339 334.775C417.741 317.266 421.499 298.675 421.499 279.5C421.499 260.325 417.741 241.734 410.339 224.225C403.188 207.319 392.945 192.132 379.912 179.088C366.869 166.045 351.681 155.812 334.776 148.65C317.266 141.249 298.675 137.491 279.5 137.491C260.325 137.491 241.734 141.249 224.225 148.65C207.319 155.802 192.132 166.045 179.088 179.088C166.045 192.132 155.812 207.319 148.661 224.225C141.26 241.734 137.502 260.325 137.502 279.5C137.502 298.675 141.26 317.266 148.661 334.775C155.812 351.681 166.055 366.868 179.088 379.912C192.132 392.955 207.319 403.188 224.225 410.339C241.734 417.741 260.325 421.498 279.5 421.498Z" fill="url(#paint33_linear_237_89897)"/>
<path d="M279.5 139.698C298.373 139.698 316.683 143.393 333.922 150.68C350.567 157.717 365.526 167.804 378.361 180.639C391.196 193.474 401.283 208.433 408.32 225.078C415.607 242.317 419.302 260.627 419.302 279.5C419.302 298.373 415.607 316.683 408.32 333.922C401.283 350.567 391.196 365.526 378.361 378.361C365.526 391.196 350.567 401.283 333.922 408.32C316.683 415.607 298.373 419.302 279.5 419.302C260.627 419.302 242.317 415.607 225.078 408.32C208.433 401.283 193.474 391.196 180.639 378.361C167.804 365.526 157.717 350.567 150.68 333.922C143.393 316.683 139.698 298.373 139.698 279.5C139.698 260.627 143.393 242.317 150.68 225.078C157.717 208.433 167.804 193.474 180.639 180.639C193.474 167.804 208.433 157.717 225.078 150.68C242.317 143.393 260.627 139.698 279.5 139.698ZM279.5 417.439C298.123 417.439 316.184 413.795 333.193 406.602C349.62 399.659 364.37 389.707 377.039 377.039C389.707 364.37 399.649 349.62 406.602 333.193C413.795 316.184 417.439 298.123 417.439 279.5C417.439 260.877 413.795 242.816 406.602 225.807C399.659 209.38 389.707 194.63 377.039 181.961C364.37 169.293 349.62 159.351 333.193 152.398C316.184 145.205 298.123 141.561 279.5 141.561C260.877 141.561 242.816 145.205 225.807 152.398C209.38 159.341 194.63 169.293 181.961 181.961C169.293 194.63 159.351 209.38 152.398 225.807C145.205 242.816 141.561 260.877 141.561 279.5C141.561 298.123 145.205 316.184 152.398 333.193C159.341 349.62 169.293 364.37 181.961 377.039C194.63 389.707 209.38 399.649 225.807 406.602C242.816 413.795 260.877 417.439 279.5 417.439Z" fill="url(#paint34_linear_237_89897)"/>
<path d="M279.5 143.799C297.821 143.799 315.59 147.391 332.319 154.459C348.475 161.298 362.986 171.073 375.446 183.544C387.906 196.004 397.691 210.515 404.531 226.671C411.609 243.399 415.19 261.169 415.19 279.49C415.19 297.811 411.599 315.58 404.531 332.308C397.691 348.464 387.917 362.975 375.446 375.436C362.975 387.896 348.475 397.681 332.319 404.52C315.59 411.599 297.821 415.18 279.5 415.18C261.179 415.18 243.41 411.588 226.681 404.52C210.525 397.681 196.014 387.906 183.554 375.436C171.093 362.975 161.308 348.464 154.469 332.308C147.391 315.58 143.81 297.811 143.81 279.49C143.81 261.169 147.401 243.399 154.469 226.671C161.308 210.515 171.083 196.004 183.554 183.544C196.014 171.083 210.525 161.298 226.681 154.459C243.41 147.38 261.179 143.799 279.5 143.799ZM279.5 413.369C315.257 413.369 348.88 399.44 374.166 374.155C399.451 348.87 413.379 315.247 413.379 279.49C413.379 243.732 399.451 210.109 374.166 184.824C348.881 159.539 315.257 145.611 279.5 145.611C243.743 145.611 210.119 159.539 184.834 184.824C159.549 210.109 145.621 243.732 145.621 279.49C145.621 315.247 159.549 348.87 184.834 374.155C210.119 399.44 243.743 413.369 279.5 413.369Z" fill="url(#paint35_linear_237_89897)"/>
<path d="M279.5 147.911C314.643 147.911 347.694 161.6 372.542 186.448C397.4 211.306 411.078 244.347 411.078 279.49C411.078 314.633 397.39 347.683 372.542 372.531C347.683 397.39 314.643 411.068 279.5 411.068C244.357 411.068 211.306 397.379 186.458 372.531C161.6 347.673 147.922 314.633 147.922 279.49C147.922 244.346 161.61 211.296 186.458 186.448C211.317 161.59 244.357 147.911 279.5 147.911ZM279.5 409.309C314.175 409.309 346.778 395.807 371.293 371.282C395.807 346.767 409.319 314.164 409.319 279.49C409.319 244.815 395.818 212.212 371.293 187.697C346.778 163.182 314.175 149.67 279.5 149.67C244.825 149.67 212.222 163.172 187.707 187.697C163.193 212.212 149.681 244.815 149.681 279.49C149.681 314.164 163.182 346.767 187.707 371.282C212.222 395.797 244.825 409.309 279.5 409.309Z" fill="url(#paint36_linear_237_89897)"/>
<path d="M279.5 152.023C313.55 152.023 345.56 165.285 369.638 189.363C393.715 213.44 406.977 245.45 406.977 279.5C406.977 313.55 393.715 345.56 369.637 369.637C345.56 393.715 313.55 406.977 279.5 406.977C245.45 406.977 213.44 393.715 189.363 369.637C165.285 345.56 152.023 313.55 152.023 279.5C152.023 245.45 165.285 213.44 189.363 189.363C213.44 165.285 245.45 152.023 279.5 152.023ZM279.5 405.259C313.092 405.259 344.665 392.174 368.42 368.43C392.174 344.675 405.249 313.102 405.249 279.51C405.249 245.918 392.164 214.346 368.42 190.591C344.665 166.836 313.092 153.761 279.5 153.761C245.908 153.761 214.335 166.846 190.581 190.591C166.826 214.346 153.751 245.918 153.751 279.51C153.751 313.102 166.836 344.675 190.581 368.43C214.335 392.185 245.908 405.259 279.5 405.259Z" fill="url(#paint37_linear_237_89897)"/>
<path d="M279.5 156.135C312.457 156.135 343.436 168.97 366.733 192.267C390.03 215.564 402.865 246.553 402.865 279.5C402.865 312.447 390.03 343.436 366.733 366.733C343.436 390.03 312.447 402.865 279.5 402.865C246.553 402.865 215.564 390.03 192.267 366.733C168.97 343.436 156.135 312.447 156.135 279.5C156.135 246.553 168.97 215.564 192.267 192.267C215.564 168.97 246.553 156.135 279.5 156.135ZM279.5 401.2C312.01 401.2 342.562 388.541 365.547 365.557C388.531 342.572 401.189 312.009 401.189 279.51C401.189 247.011 388.531 216.449 365.547 193.464C342.562 170.479 311.999 157.821 279.5 157.821C247.001 157.821 216.438 170.479 193.454 193.464C170.469 216.449 157.811 247.011 157.811 279.51C157.811 312.009 170.469 342.572 193.454 365.557C216.438 388.541 247.001 401.2 279.5 401.2Z" fill="url(#paint38_linear_237_89897)"/>
<path d="M279.5 160.236C311.354 160.236 341.302 172.645 363.829 195.171C386.355 217.698 398.764 247.646 398.764 279.5C398.764 311.354 386.355 341.302 363.829 363.829C341.302 386.355 311.354 398.764 279.5 398.764C247.646 398.764 217.698 386.355 195.171 363.829C172.645 341.302 160.236 311.354 160.236 279.5C160.236 247.646 172.645 217.698 195.171 195.171C217.698 172.645 247.646 160.236 279.5 160.236ZM279.5 397.129C310.916 397.129 340.459 384.898 362.673 362.673C384.888 340.459 397.129 310.916 397.129 279.5C397.129 248.084 384.898 218.541 362.673 196.327C340.459 174.112 310.916 161.871 279.5 161.871C248.083 161.871 218.541 174.102 196.327 196.327C174.112 218.541 161.871 248.084 161.871 279.5C161.871 310.916 174.102 340.459 196.327 362.673C218.541 384.888 248.083 397.129 279.5 397.129Z" fill="url(#paint39_linear_237_89897)"/>
<path d="M279.5 164.348C310.261 164.348 339.179 176.33 360.924 198.075C382.67 219.821 394.652 248.739 394.652 279.5C394.652 310.261 382.67 339.179 360.924 360.925C339.179 382.67 310.261 394.652 279.5 394.652C248.739 394.652 219.821 382.67 198.075 360.925C176.33 339.179 164.348 310.261 164.348 279.5C164.348 248.739 176.33 219.821 198.075 198.075C219.821 176.33 248.739 164.348 279.5 164.348ZM279.5 393.07C309.834 393.07 338.356 381.255 359.8 359.811C381.255 338.356 393.059 309.844 393.059 279.51C393.059 249.177 381.244 220.654 359.8 199.21C338.346 177.756 309.834 165.951 279.5 165.951C249.166 165.951 220.644 177.766 199.2 199.21C177.745 220.664 165.941 249.177 165.941 279.51C165.941 309.844 177.756 338.367 199.2 359.811C220.654 381.265 249.166 393.07 279.5 393.07Z" fill="url(#paint40_linear_237_89897)"/>
<path d="M279.5 168.46C309.157 168.46 337.045 180.015 358.02 200.98C378.996 221.955 390.54 249.843 390.54 279.5C390.54 309.157 378.985 337.045 358.02 358.02C337.055 378.996 309.157 390.54 279.5 390.54C249.843 390.54 221.955 378.985 200.98 358.02C180.004 337.045 168.46 309.157 168.46 279.5C168.46 249.843 180.015 221.955 200.98 200.98C221.955 180.004 249.843 168.46 279.5 168.46ZM279.5 389.01C308.751 389.01 336.243 377.622 356.927 356.938C377.611 336.254 388.999 308.762 388.999 279.51C388.999 250.259 377.611 222.767 356.927 202.083C336.243 181.399 308.751 170.011 279.5 170.011C250.249 170.011 222.757 181.399 202.073 202.083C181.389 222.767 170 250.27 170 279.51C170 308.751 181.389 336.254 202.073 356.938C222.757 377.622 250.249 389.01 279.5 389.01Z" fill="url(#paint41_linear_237_89897)"/>
<path d="M279.5 172.561C308.064 172.561 334.921 183.689 355.116 203.884C375.311 224.079 386.439 250.936 386.439 279.5C386.439 308.064 375.311 334.921 355.116 355.116C334.921 375.311 308.064 386.439 279.5 386.439C250.936 386.439 224.079 375.311 203.884 355.116C183.689 334.921 172.561 308.064 172.561 279.5C172.561 250.936 183.689 224.079 203.884 203.884C224.079 183.689 250.936 172.561 279.5 172.561ZM279.5 384.94C307.669 384.94 334.14 373.968 354.054 354.054C373.968 334.14 384.94 307.658 384.94 279.5C384.94 251.342 373.968 224.86 354.054 204.946C334.14 185.032 307.658 174.06 279.5 174.06C251.342 174.06 224.86 185.032 204.946 204.946C185.032 224.86 174.06 251.342 174.06 279.5C174.06 307.658 185.032 334.14 204.946 354.054C224.86 373.968 251.342 384.94 279.5 384.94Z" fill="url(#paint42_linear_237_89897)"/>
<path d="M279.5 176.673C306.971 176.673 332.787 187.364 352.212 206.788C371.636 226.213 382.327 252.029 382.327 279.5C382.327 306.971 371.636 332.787 352.212 352.212C332.787 371.636 306.971 382.327 279.5 382.327C252.029 382.327 226.213 371.636 206.788 352.212C187.364 332.787 176.673 306.971 176.673 279.5C176.673 252.029 187.364 226.213 206.788 206.788C226.213 187.364 252.029 176.673 279.5 176.673ZM279.5 380.88C306.576 380.88 332.038 370.335 351.181 351.191C370.325 332.048 380.87 306.586 380.87 279.51C380.87 252.435 370.325 226.973 351.181 207.829C332.038 188.686 306.576 178.141 279.5 178.141C252.424 178.141 226.962 188.686 207.819 207.829C188.676 226.973 178.131 252.435 178.131 279.51C178.131 306.586 188.676 332.048 207.819 351.191C226.962 370.335 252.424 380.88 279.5 380.88Z" fill="url(#paint43_linear_237_89897)"/>
<path d="M279.5 180.785C305.868 180.785 330.664 191.049 349.307 209.703C367.951 228.347 378.225 253.143 378.225 279.51C378.225 305.878 367.961 330.674 349.307 349.318C330.663 367.961 305.868 378.236 279.5 378.236C253.132 378.236 228.336 367.972 209.693 349.318C191.049 330.674 180.774 305.878 180.774 279.51C180.774 253.143 191.038 228.347 209.693 209.703C228.336 191.059 253.132 180.785 279.5 180.785ZM279.5 376.82C305.493 376.82 329.935 366.702 348.308 348.318C366.691 329.935 376.81 305.503 376.81 279.51C376.81 253.517 366.691 229.075 348.308 210.702C329.924 192.319 305.493 182.201 279.5 182.201C253.507 182.201 229.065 192.319 210.692 210.702C192.308 229.086 182.19 253.517 182.19 279.51C182.19 305.503 192.308 329.945 210.692 348.318C229.075 366.702 253.507 376.82 279.5 376.82Z" fill="url(#paint44_linear_237_89897)"/>
<path d="M279.5 184.886C304.775 184.886 328.53 194.723 346.403 212.597C364.276 230.47 374.114 254.225 374.114 279.5C374.114 304.775 364.276 328.53 346.403 346.403C328.53 364.276 304.775 374.114 279.5 374.114C254.225 374.114 230.47 364.276 212.597 346.403C194.723 328.53 184.886 304.775 184.886 279.5C184.886 254.225 194.723 230.47 212.597 212.597C230.47 194.723 254.225 184.886 279.5 184.886ZM279.5 372.75C304.41 372.75 327.832 363.048 345.445 345.435C363.058 327.822 372.76 304.4 372.76 279.49C372.76 254.579 363.058 231.157 345.445 213.544C327.832 195.931 304.41 186.229 279.5 186.229C254.59 186.229 231.168 195.931 213.555 213.544C195.941 231.157 186.24 254.579 186.24 279.49C186.24 304.4 195.941 327.822 213.555 345.435C231.168 363.048 254.59 372.75 279.5 372.75Z" fill="url(#paint45_linear_237_89897)"/>
<path d="M279.5 188.998C303.671 188.998 326.396 198.409 343.488 215.501C360.581 232.594 369.991 255.318 369.991 279.49C369.991 303.661 360.581 326.385 343.488 343.478C326.396 360.571 303.671 369.981 279.5 369.981C255.329 369.981 232.604 360.571 215.512 343.478C198.419 326.385 189.009 303.661 189.009 279.49C189.009 255.318 198.419 232.594 215.512 215.501C232.604 198.409 255.329 188.998 279.5 188.998ZM279.5 368.69C303.328 368.69 325.719 359.415 342.572 342.562C359.415 325.719 368.701 303.317 368.701 279.49C368.701 255.662 359.426 233.271 342.572 216.417C325.729 199.574 303.328 190.289 279.5 190.289C255.672 190.289 233.281 199.564 216.428 216.417C199.585 233.26 190.3 255.662 190.3 279.49C190.3 303.317 199.575 325.709 216.428 342.562C233.271 359.405 255.672 368.69 279.5 368.69Z" fill="url(#paint46_linear_237_89897)"/>
<path d="M279.5 193.11C302.578 193.11 324.272 202.094 340.584 218.416C356.906 234.738 365.89 256.432 365.89 279.5C365.89 302.568 356.906 324.272 340.584 340.584C324.262 356.906 302.568 365.89 279.5 365.89C256.432 365.89 234.728 356.906 218.416 340.584C202.094 324.262 193.11 302.568 193.11 279.5C193.11 256.432 202.094 234.728 218.416 218.416C234.738 202.094 256.432 193.11 279.5 193.11ZM279.5 364.63C302.235 364.63 323.616 355.772 339.699 339.699C355.782 323.616 364.63 302.245 364.63 279.5C364.63 256.755 355.772 235.384 339.699 219.301C323.616 203.218 302.245 194.37 279.5 194.37C256.755 194.37 235.384 203.228 219.301 219.301C203.218 235.384 194.37 256.755 194.37 279.5C194.37 302.245 203.228 323.616 219.301 339.699C235.384 355.782 256.755 364.63 279.5 364.63Z" fill="url(#paint47_linear_237_89897)"/>
<path d="M279.5 197.222C301.475 197.222 322.138 205.779 337.68 221.32C353.221 236.862 361.778 257.525 361.778 279.5C361.778 301.475 353.221 322.138 337.68 337.68C322.138 353.221 301.475 361.778 279.5 361.778C257.525 361.778 236.862 353.221 221.32 337.68C205.779 322.138 197.222 301.475 197.222 279.5C197.222 257.525 205.779 236.862 221.32 221.32C236.862 205.779 257.525 197.222 279.5 197.222ZM279.5 360.571C324.199 360.571 360.571 324.199 360.571 279.5C360.571 234.801 324.199 198.429 279.5 198.429C234.801 198.429 198.429 234.801 198.429 279.5C198.429 324.199 234.801 360.571 279.5 360.571Z" fill="url(#paint48_linear_237_89897)"/>
<path d="M279.5 201.323C322.607 201.323 357.677 236.393 357.677 279.5C357.677 322.606 322.607 357.677 279.5 357.677C236.394 357.677 201.323 322.606 201.323 279.5C201.323 236.393 236.394 201.323 279.5 201.323ZM279.5 356.5C321.961 356.5 356.5 321.961 356.5 279.5C356.5 237.039 321.961 202.5 279.5 202.5C237.039 202.5 202.5 237.039 202.5 279.5C202.5 321.961 237.039 356.5 279.5 356.5Z" fill="url(#paint49_linear_237_89897)"/>
<path d="M279.5 205.435C320.337 205.435 353.565 238.663 353.565 279.5C353.565 320.337 320.337 353.565 279.5 353.565C238.663 353.565 205.435 320.337 205.435 279.5C205.435 238.663 238.663 205.435 279.5 205.435ZM279.5 352.441C319.723 352.441 352.441 319.723 352.441 279.5C352.441 239.277 319.723 206.559 279.5 206.559C239.277 206.559 206.559 239.277 206.559 279.5C206.559 319.723 239.277 352.441 279.5 352.441Z" fill="url(#paint50_linear_237_89897)"/>
<path d="M279.5 209.547C318.078 209.547 349.453 240.932 349.453 279.5C349.453 318.068 318.068 349.453 279.5 349.453C240.932 349.453 209.547 318.068 209.547 279.5C209.547 240.932 240.932 209.547 279.5 209.547ZM279.5 348.381C317.485 348.381 348.381 317.485 348.381 279.5C348.381 241.515 317.485 210.619 279.5 210.619C241.515 210.619 210.619 241.515 210.619 279.5C210.619 317.485 241.515 348.381 279.5 348.381Z" fill="url(#paint51_linear_237_89897)"/>
<path d="M279.5 213.648C315.809 213.648 345.352 243.191 345.352 279.5C345.352 315.809 315.809 345.352 279.5 345.352C243.191 345.352 213.648 315.809 213.648 279.5C213.648 243.191 243.191 213.648 279.5 213.648ZM279.5 344.311C315.236 344.311 344.321 315.236 344.321 279.49C344.321 243.743 315.247 214.668 279.5 214.668C243.753 214.668 214.679 243.743 214.679 279.49C214.679 315.236 243.753 344.311 279.5 344.311Z" fill="url(#paint52_linear_237_89897)"/>
<path d="M279.5 217.76C313.54 217.76 341.24 245.46 341.24 279.5C341.24 313.54 313.54 341.24 279.5 341.24C245.46 341.24 217.76 313.54 217.76 279.5C217.76 245.46 245.46 217.76 279.5 217.76ZM279.5 340.251C312.998 340.251 340.251 312.998 340.251 279.5C340.251 246.002 312.998 218.749 279.5 218.749C246.002 218.749 218.749 246.002 218.749 279.5C218.749 312.998 246.002 340.251 279.5 340.251Z" fill="url(#paint53_linear_237_89897)"/>
<path d="M279.5 221.872C311.281 221.872 337.128 247.73 337.128 279.5C337.128 311.27 311.27 337.128 279.5 337.128C247.73 337.128 221.872 311.27 221.872 279.5C221.872 247.73 247.73 221.872 279.5 221.872ZM279.5 336.191C310.76 336.191 336.191 310.76 336.191 279.5C336.191 248.24 310.76 222.809 279.5 222.809C248.24 222.809 222.809 248.24 222.809 279.5C222.809 310.76 248.24 336.191 279.5 336.191Z" fill="url(#paint54_linear_237_89897)"/>
<path d="M279.5 225.973C309.011 225.973 333.027 249.978 333.027 279.5C333.027 309.022 309.022 333.027 279.5 333.027C249.978 333.027 225.973 309.022 225.973 279.5C225.973 249.978 249.978 225.973 279.5 225.973ZM279.5 332.121C308.522 332.121 332.131 308.512 332.131 279.49C332.131 250.467 308.522 226.858 279.5 226.858C250.478 226.858 226.869 250.467 226.869 279.49C226.869 308.512 250.478 332.121 279.5 332.121Z" fill="url(#paint55_linear_237_89897)"/>
<path d="M279.5 230.085C306.742 230.085 328.915 252.247 328.915 279.5C328.915 306.753 306.753 328.915 279.5 328.915C252.247 328.915 230.085 306.753 230.085 279.5C230.085 252.247 252.247 230.085 279.5 230.085ZM279.5 328.072C306.284 328.072 328.072 306.284 328.072 279.5C328.072 252.716 306.284 230.928 279.5 230.928C252.716 230.928 230.928 252.716 230.928 279.5C230.928 306.284 252.716 328.072 279.5 328.072Z" fill="url(#paint56_linear_237_89897)"/>
<path d="M279.5 234.197C304.483 234.197 324.803 254.517 324.803 279.5C324.803 304.483 304.483 324.803 279.5 324.803C254.517 324.803 234.197 304.483 234.197 279.5C234.197 254.517 254.517 234.197 279.5 234.197ZM279.5 324.012C304.036 324.012 324.001 304.046 324.001 279.51C324.001 254.975 304.036 235.009 279.5 235.009C254.964 235.009 234.999 254.975 234.999 279.51C234.999 304.046 254.964 324.012 279.5 324.012Z" fill="url(#paint57_linear_237_89897)"/>
<path d="M279.5 238.309C302.214 238.309 320.691 256.786 320.691 279.5C320.691 302.214 302.214 320.691 279.5 320.691C256.786 320.691 238.309 302.214 238.309 279.5C238.309 256.786 256.786 238.309 279.5 238.309ZM279.5 319.952C301.798 319.952 319.942 301.808 319.942 279.51C319.942 257.213 301.798 239.069 279.5 239.069C257.202 239.069 239.058 257.213 239.058 279.51C239.058 301.808 257.202 319.952 279.5 319.952Z" fill="url(#paint58_linear_237_89897)"/>
<path d="M279.5 242.41C299.955 242.41 316.59 259.045 316.59 279.5C316.59 299.955 299.955 316.59 279.5 316.59C259.045 316.59 242.41 299.955 242.41 279.5C242.41 259.045 259.045 242.41 279.5 242.41ZM279.5 315.882C299.559 315.882 315.882 299.559 315.882 279.5C315.882 259.441 299.559 243.118 279.5 243.118C259.44 243.118 243.118 259.441 243.118 279.5C243.118 299.559 259.44 315.882 279.5 315.882Z" fill="url(#paint59_linear_237_89897)"/>
<path d="M279.5 246.522C297.686 246.522 312.478 261.314 312.478 279.5C312.478 297.686 297.686 312.478 279.5 312.478C261.314 312.478 246.522 297.686 246.522 279.5C246.522 261.314 261.314 246.522 279.5 246.522ZM279.5 311.822C297.321 311.822 311.822 297.321 311.822 279.5C311.822 261.679 297.321 247.178 279.5 247.178C261.679 247.178 247.178 261.679 247.178 279.5C247.178 297.321 261.679 311.822 279.5 311.822Z" fill="url(#paint60_linear_237_89897)"/>
<path d="M279.5 250.634C295.416 250.634 308.366 263.584 308.366 279.5C308.366 295.416 295.416 308.366 279.5 308.366C263.584 308.366 250.634 295.416 250.634 279.5C250.634 263.584 263.584 250.634 279.5 250.634ZM279.5 307.762C295.083 307.762 307.752 295.083 307.752 279.51C307.752 263.937 295.073 251.258 279.5 251.258C263.927 251.258 251.248 263.937 251.248 279.51C251.248 295.083 263.927 307.762 279.5 307.762Z" fill="url(#paint61_linear_237_89897)"/>
<path d="M279.5 254.735C293.158 254.735 304.265 265.842 304.265 279.5C304.265 293.157 293.158 304.265 279.5 304.265C265.843 304.265 254.735 293.157 254.735 279.5C254.735 265.842 265.843 254.735 279.5 254.735ZM279.5 303.692C292.845 303.692 303.692 292.835 303.692 279.5C303.692 266.165 292.835 255.308 279.5 255.308C266.165 255.308 255.308 266.165 255.308 279.5C255.308 292.835 266.165 303.692 279.5 303.692Z" fill="url(#paint62_linear_237_89897)"/>
<path d="M279.5 258.847C290.888 258.847 300.153 268.112 300.153 279.5C300.153 290.888 290.888 300.153 279.5 300.153C268.112 300.153 258.847 290.888 258.847 279.5C258.847 268.112 268.112 258.847 279.5 258.847ZM279.5 299.632C290.597 299.632 299.632 290.597 299.632 279.5C299.632 268.403 290.597 259.368 279.5 259.368C268.403 259.368 259.368 268.403 259.368 279.5C259.368 290.597 268.403 299.632 279.5 299.632Z" fill="url(#paint63_linear_237_89897)"/>
<path d="M279.5 262.959C288.619 262.959 296.041 270.381 296.041 279.5C296.041 288.619 288.619 296.041 279.5 296.041C270.381 296.041 262.959 288.619 262.959 279.5C262.959 270.381 270.381 262.959 279.5 262.959ZM279.5 295.573C288.359 295.573 295.573 288.369 295.573 279.5C295.573 270.631 288.369 263.427 279.5 263.427C270.631 263.427 263.427 270.631 263.427 279.5C263.427 288.369 270.631 295.573 279.5 295.573Z" fill="url(#paint64_linear_237_89897)"/>
<path d="M279.5 267.06C286.36 267.06 291.939 272.64 291.939 279.5C291.939 286.36 286.36 291.94 279.5 291.94C272.64 291.94 267.06 286.36 267.06 279.5C267.06 272.64 272.64 267.06 279.5 267.06ZM279.5 291.502C286.12 291.502 291.502 286.121 291.502 279.5C291.502 272.879 286.12 267.498 279.5 267.498C272.879 267.498 267.498 272.879 267.498 279.5C267.498 286.121 272.879 291.502 279.5 291.502Z" fill="url(#paint65_linear_237_89897)"/>
<path d="M279.5 271.172C284.091 271.172 287.828 274.909 287.828 279.5C287.828 284.091 284.091 287.828 279.5 287.828C274.909 287.828 271.172 284.091 271.172 279.5C271.172 274.909 274.909 271.172 279.5 271.172ZM279.5 287.443C283.882 287.443 287.442 283.882 287.442 279.5C287.442 275.118 283.882 271.557 279.5 271.557C275.117 271.557 271.557 275.118 271.557 279.5C271.557 283.882 275.117 287.443 279.5 287.443Z" fill="url(#paint66_linear_237_89897)"/>
</g>
</g>
<defs>
<linearGradient id="paint0_linear_237_89897" x1="273.254" y1="270.163" x2="148.109" y2="83.1005" gradientUnits="userSpaceOnUse">
<stop offset="0.21" stop-color="white"/>
<stop offset="1"/>
</linearGradient>
<linearGradient id="paint1_linear_237_89897" x1="273.254" y1="270.163" x2="148.109" y2="83.1005" gradientUnits="userSpaceOnUse">
<stop offset="0.21" stop-color="white"/>
<stop offset="1"/>
</linearGradient>
<linearGradient id="paint2_linear_237_89897" x1="273.254" y1="270.163" x2="148.109" y2="83.1005" gradientUnits="userSpaceOnUse">
<stop offset="0.21" stop-color="white"/>
<stop offset="1"/>
</linearGradient>
<linearGradient id="paint3_linear_237_89897" x1="273.254" y1="270.163" x2="148.109" y2="83.1005" gradientUnits="userSpaceOnUse">
<stop offset="0.21" stop-color="white"/>
<stop offset="1"/>
</linearGradient>
<linearGradient id="paint4_linear_237_89897" x1="273.254" y1="270.162" x2="148.109" y2="83.1005" gradientUnits="userSpaceOnUse">
<stop offset="0.21" stop-color="white"/>
<stop offset="1"/>
</linearGradient>
<linearGradient id="paint5_linear_237_89897" x1="273.254" y1="270.163" x2="148.109" y2="83.1005" gradientUnits="userSpaceOnUse">
<stop offset="0.21" stop-color="white"/>
<stop offset="1"/>
</linearGradient>
<linearGradient id="paint6_linear_237_89897" x1="273.254" y1="270.163" x2="148.109" y2="83.1005" gradientUnits="userSpaceOnUse">
<stop offset="0.21" stop-color="white"/>
<stop offset="1"/>
</linearGradient>
<linearGradient id="paint7_linear_237_89897" x1="273.254" y1="270.163" x2="148.109" y2="83.1005" gradientUnits="userSpaceOnUse">
<stop offset="0.21" stop-color="white"/>
<stop offset="1"/>
</linearGradient>
<linearGradient id="paint8_linear_237_89897" x1="273.254" y1="270.163" x2="148.109" y2="83.1005" gradientUnits="userSpaceOnUse">
<stop offset="0.21" stop-color="white"/>
<stop offset="1"/>
</linearGradient>
<linearGradient id="paint9_linear_237_89897" x1="273.254" y1="270.163" x2="148.109" y2="83.1005" gradientUnits="userSpaceOnUse">
<stop offset="0.21" stop-color="white"/>
<stop offset="1"/>
</linearGradient>
<linearGradient id="paint10_linear_237_89897" x1="273.254" y1="270.163" x2="148.109" y2="83.1005" gradientUnits="userSpaceOnUse">
<stop offset="0.21" stop-color="white"/>
<stop offset="1"/>
</linearGradient>
<linearGradient id="paint11_linear_237_89897" x1="273.254" y1="270.162" x2="148.109" y2="83.1005" gradientUnits="userSpaceOnUse">
<stop offset="0.21" stop-color="white"/>
<stop offset="1"/>
</linearGradient>
<linearGradient id="paint12_linear_237_89897" x1="273.254" y1="270.162" x2="148.109" y2="83.1005" gradientUnits="userSpaceOnUse">
<stop offset="0.21" stop-color="white"/>
<stop offset="1"/>
</linearGradient>
<linearGradient id="paint13_linear_237_89897" x1="273.254" y1="270.163" x2="148.109" y2="83.1005" gradientUnits="userSpaceOnUse">
<stop offset="0.21" stop-color="white"/>
<stop offset="1"/>
</linearGradient>
<linearGradient id="paint14_linear_237_89897" x1="273.254" y1="270.163" x2="148.109" y2="83.1005" gradientUnits="userSpaceOnUse">
<stop offset="0.21" stop-color="white"/>
<stop offset="1"/>
</linearGradient>
<linearGradient id="paint15_linear_237_89897" x1="273.254" y1="270.162" x2="148.109" y2="83.1005" gradientUnits="userSpaceOnUse">
<stop offset="0.21" stop-color="white"/>
<stop offset="1"/>
</linearGradient>
<linearGradient id="paint16_linear_237_89897" x1="273.254" y1="270.163" x2="148.109" y2="83.1005" gradientUnits="userSpaceOnUse">
<stop offset="0.21" stop-color="white"/>
<stop offset="1"/>
</linearGradient>
<linearGradient id="paint17_linear_237_89897" x1="273.254" y1="270.163" x2="148.109" y2="83.1005" gradientUnits="userSpaceOnUse">
<stop offset="0.21" stop-color="white"/>
<stop offset="1"/>
</linearGradient>
<linearGradient id="paint18_linear_237_89897" x1="273.254" y1="270.162" x2="148.109" y2="83.1005" gradientUnits="userSpaceOnUse">
<stop offset="0.21" stop-color="white"/>
<stop offset="1"/>
</linearGradient>
<linearGradient id="paint19_linear_237_89897" x1="273.254" y1="270.162" x2="148.109" y2="83.1005" gradientUnits="userSpaceOnUse">
<stop offset="0.21" stop-color="white"/>
<stop offset="1"/>
</linearGradient>
<linearGradient id="paint20_linear_237_89897" x1="273.254" y1="270.162" x2="148.109" y2="83.1004" gradientUnits="userSpaceOnUse">
<stop offset="0.21" stop-color="white"/>
<stop offset="1"/>
</linearGradient>
<linearGradient id="paint21_linear_237_89897" x1="273.254" y1="270.163" x2="148.109" y2="83.1005" gradientUnits="userSpaceOnUse">
<stop offset="0.21" stop-color="white"/>
<stop offset="1"/>
</linearGradient>
<linearGradient id="paint22_linear_237_89897" x1="273.254" y1="270.162" x2="148.109" y2="83.1005" gradientUnits="userSpaceOnUse">
<stop offset="0.21" stop-color="white"/>
<stop offset="1"/>
</linearGradient>
<linearGradient id="paint23_linear_237_89897" x1="273.254" y1="270.162" x2="148.109" y2="83.1005" gradientUnits="userSpaceOnUse">
<stop offset="0.21" stop-color="white"/>
<stop offset="1"/>
</linearGradient>
<linearGradient id="paint24_linear_237_89897" x1="273.254" y1="270.162" x2="148.109" y2="83.1005" gradientUnits="userSpaceOnUse">
<stop offset="0.21" stop-color="white"/>
<stop offset="1"/>
</linearGradient>
<linearGradient id="paint25_linear_237_89897" x1="273.254" y1="270.163" x2="148.109" y2="83.1005" gradientUnits="userSpaceOnUse">
<stop offset="0.21" stop-color="white"/>
<stop offset="1"/>
</linearGradient>
<linearGradient id="paint26_linear_237_89897" x1="273.254" y1="270.162" x2="148.109" y2="83.1005" gradientUnits="userSpaceOnUse">
<stop offset="0.21" stop-color="white"/>
<stop offset="1"/>
</linearGradient>
<linearGradient id="paint27_linear_237_89897" x1="273.254" y1="270.162" x2="148.109" y2="83.1005" gradientUnits="userSpaceOnUse">
<stop offset="0.21" stop-color="white"/>
<stop offset="1"/>
</linearGradient>
<linearGradient id="paint28_linear_237_89897" x1="273.254" y1="270.163" x2="148.109" y2="83.1005" gradientUnits="userSpaceOnUse">
<stop offset="0.21" stop-color="white"/>
<stop offset="1"/>
</linearGradient>
<linearGradient id="paint29_linear_237_89897" x1="273.254" y1="270.162" x2="148.109" y2="83.1005" gradientUnits="userSpaceOnUse">
<stop offset="0.21" stop-color="white"/>
<stop offset="1"/>
</linearGradient>
<linearGradient id="paint30_linear_237_89897" x1="273.254" y1="270.162" x2="148.109" y2="83.1005" gradientUnits="userSpaceOnUse">
<stop offset="0.21" stop-color="white"/>
<stop offset="1"/>
</linearGradient>
<linearGradient id="paint31_linear_237_89897" x1="273.254" y1="270.162" x2="148.109" y2="83.1005" gradientUnits="userSpaceOnUse">
<stop offset="0.21" stop-color="white"/>
<stop offset="1"/>
</linearGradient>
<linearGradient id="paint32_linear_237_89897" x1="273.254" y1="270.163" x2="148.109" y2="83.1005" gradientUnits="userSpaceOnUse">
<stop offset="0.21" stop-color="white"/>
<stop offset="1"/>
</linearGradient>
<linearGradient id="paint33_linear_237_89897" x1="273.254" y1="270.163" x2="148.109" y2="83.1005" gradientUnits="userSpaceOnUse">
<stop offset="0.21" stop-color="white"/>
<stop offset="1"/>
</linearGradient>
<linearGradient id="paint34_linear_237_89897" x1="273.254" y1="270.162" x2="148.109" y2="83.1005" gradientUnits="userSpaceOnUse">
<stop offset="0.21" stop-color="white"/>
<stop offset="1"/>
</linearGradient>
<linearGradient id="paint35_linear_237_89897" x1="273.254" y1="270.163" x2="148.109" y2="83.1005" gradientUnits="userSpaceOnUse">
<stop offset="0.21" stop-color="white"/>
<stop offset="1"/>
</linearGradient>
<linearGradient id="paint36_linear_237_89897" x1="273.254" y1="270.163" x2="148.109" y2="83.1005" gradientUnits="userSpaceOnUse">
<stop offset="0.21" stop-color="white"/>
<stop offset="1"/>
</linearGradient>
<linearGradient id="paint37_linear_237_89897" x1="273.254" y1="270.162" x2="148.109" y2="83.1005" gradientUnits="userSpaceOnUse">
<stop offset="0.21" stop-color="white"/>
<stop offset="1"/>
</linearGradient>
<linearGradient id="paint38_linear_237_89897" x1="273.254" y1="270.162" x2="148.109" y2="83.1005" gradientUnits="userSpaceOnUse">
<stop offset="0.21" stop-color="white"/>
<stop offset="1"/>
</linearGradient>
<linearGradient id="paint39_linear_237_89897" x1="273.254" y1="270.163" x2="148.109" y2="83.1005" gradientUnits="userSpaceOnUse">
<stop offset="0.21" stop-color="white"/>
<stop offset="1"/>
</linearGradient>
<linearGradient id="paint40_linear_237_89897" x1="273.254" y1="270.163" x2="148.109" y2="83.1005" gradientUnits="userSpaceOnUse">
<stop offset="0.21" stop-color="white"/>
<stop offset="1"/>
</linearGradient>
<linearGradient id="paint41_linear_237_89897" x1="273.254" y1="270.163" x2="148.109" y2="83.1005" gradientUnits="userSpaceOnUse">
<stop offset="0.21" stop-color="white"/>
<stop offset="1"/>
</linearGradient>
<linearGradient id="paint42_linear_237_89897" x1="273.254" y1="270.163" x2="148.109" y2="83.1005" gradientUnits="userSpaceOnUse">
<stop offset="0.21" stop-color="white"/>
<stop offset="1"/>
</linearGradient>
<linearGradient id="paint43_linear_237_89897" x1="273.254" y1="270.163" x2="148.109" y2="83.1005" gradientUnits="userSpaceOnUse">
<stop offset="0.21" stop-color="white"/>
<stop offset="1"/>
</linearGradient>
<linearGradient id="paint44_linear_237_89897" x1="273.254" y1="270.162" x2="148.109" y2="83.1004" gradientUnits="userSpaceOnUse">
<stop offset="0.21" stop-color="white"/>
<stop offset="1"/>
</linearGradient>
<linearGradient id="paint45_linear_237_89897" x1="273.254" y1="270.162" x2="148.109" y2="83.1005" gradientUnits="userSpaceOnUse">
<stop offset="0.21" stop-color="white"/>
<stop offset="1"/>
</linearGradient>
<linearGradient id="paint46_linear_237_89897" x1="273.254" y1="270.162" x2="148.109" y2="83.1005" gradientUnits="userSpaceOnUse">
<stop offset="0.21" stop-color="white"/>
<stop offset="1"/>
</linearGradient>
<linearGradient id="paint47_linear_237_89897" x1="273.254" y1="270.162" x2="148.109" y2="83.1004" gradientUnits="userSpaceOnUse">
<stop offset="0.21" stop-color="white"/>
<stop offset="1"/>
</linearGradient>
<linearGradient id="paint48_linear_237_89897" x1="273.254" y1="270.162" x2="148.109" y2="83.1004" gradientUnits="userSpaceOnUse">
<stop offset="0.21" stop-color="white"/>
<stop offset="1"/>
</linearGradient>
<linearGradient id="paint49_linear_237_89897" x1="273.254" y1="270.162" x2="148.109" y2="83.1005" gradientUnits="userSpaceOnUse">
<stop offset="0.21" stop-color="white"/>
<stop offset="1"/>
</linearGradient>
<linearGradient id="paint50_linear_237_89897" x1="273.254" y1="270.162" x2="148.109" y2="83.1005" gradientUnits="userSpaceOnUse">
<stop offset="0.21" stop-color="white"/>
<stop offset="1"/>
</linearGradient>
<linearGradient id="paint51_linear_237_89897" x1="273.254" y1="270.162" x2="148.109" y2="83.1005" gradientUnits="userSpaceOnUse">
<stop offset="0.21" stop-color="white"/>
<stop offset="1"/>
</linearGradient>
<linearGradient id="paint52_linear_237_89897" x1="273.254" y1="270.162" x2="148.109" y2="83.1005" gradientUnits="userSpaceOnUse">
<stop offset="0.21" stop-color="white"/>
<stop offset="1"/>
</linearGradient>
<linearGradient id="paint53_linear_237_89897" x1="273.254" y1="270.162" x2="148.109" y2="83.1005" gradientUnits="userSpaceOnUse">
<stop offset="0.21" stop-color="white"/>
<stop offset="1"/>
</linearGradient>
<linearGradient id="paint54_linear_237_89897" x1="273.254" y1="270.162" x2="148.109" y2="83.1005" gradientUnits="userSpaceOnUse">
<stop offset="0.21" stop-color="white"/>
<stop offset="1"/>
</linearGradient>
<linearGradient id="paint55_linear_237_89897" x1="273.254" y1="270.162" x2="148.109" y2="83.1005" gradientUnits="userSpaceOnUse">
<stop offset="0.21" stop-color="white"/>
<stop offset="1"/>
</linearGradient>
<linearGradient id="paint56_linear_237_89897" x1="273.254" y1="270.162" x2="148.109" y2="83.1005" gradientUnits="userSpaceOnUse">
<stop offset="0.21" stop-color="white"/>
<stop offset="1"/>
</linearGradient>
<linearGradient id="paint57_linear_237_89897" x1="273.254" y1="270.162" x2="148.109" y2="83.1005" gradientUnits="userSpaceOnUse">
<stop offset="0.21" stop-color="white"/>
<stop offset="1"/>
</linearGradient>
<linearGradient id="paint58_linear_237_89897" x1="273.254" y1="270.162" x2="148.109" y2="83.1004" gradientUnits="userSpaceOnUse">
<stop offset="0.21" stop-color="white"/>
<stop offset="1"/>
</linearGradient>
<linearGradient id="paint59_linear_237_89897" x1="273.254" y1="270.162" x2="148.109" y2="83.1005" gradientUnits="userSpaceOnUse">
<stop offset="0.21" stop-color="white"/>
<stop offset="1"/>
</linearGradient>
<linearGradient id="paint60_linear_237_89897" x1="273.254" y1="270.162" x2="148.109" y2="83.1005" gradientUnits="userSpaceOnUse">
<stop offset="0.21" stop-color="white"/>
<stop offset="1"/>
</linearGradient>
<linearGradient id="paint61_linear_237_89897" x1="273.254" y1="270.162" x2="148.109" y2="83.1004" gradientUnits="userSpaceOnUse">
<stop offset="0.21" stop-color="white"/>
<stop offset="1"/>
</linearGradient>
<linearGradient id="paint62_linear_237_89897" x1="273.254" y1="270.163" x2="148.109" y2="83.1005" gradientUnits="userSpaceOnUse">
<stop offset="0.21" stop-color="white"/>
<stop offset="1"/>
</linearGradient>
<linearGradient id="paint63_linear_237_89897" x1="273.254" y1="270.162" x2="148.109" y2="83.1005" gradientUnits="userSpaceOnUse">
<stop offset="0.21" stop-color="white"/>
<stop offset="1"/>
</linearGradient>
<linearGradient id="paint64_linear_237_89897" x1="273.254" y1="270.162" x2="148.109" y2="83.1004" gradientUnits="userSpaceOnUse">
<stop offset="0.21" stop-color="white"/>
<stop offset="1"/>
</linearGradient>
<linearGradient id="paint65_linear_237_89897" x1="273.254" y1="270.163" x2="148.109" y2="83.1003" gradientUnits="userSpaceOnUse">
<stop offset="0.21" stop-color="white"/>
<stop offset="1"/>
</linearGradient>
<linearGradient id="paint66_linear_237_89897" x1="273.254" y1="270.163" x2="148.109" y2="83.1005" gradientUnits="userSpaceOnUse">
<stop offset="0.21" stop-color="white"/>
<stop offset="1"/>
</linearGradient>
<clipPath id="clip0_237_89897">
<rect width="559" height="559" fill="white" transform="translate(559) rotate(90)"/>
</clipPath>
</defs>
</svg>
