<svg width="65" height="65" viewBox="0 0 65 65" fill="none" xmlns="http://www.w3.org/2000/svg">
<g clip-path="url(#clip0_237_90061)">
<path d="M20.1627 49.5213C18.8561 48.7262 17.5442 48.1749 16.2323 47.8568C17.6688 47.2446 18.872 46.1421 19.6062 44.6844C20.0806 43.7356 20.3218 42.7152 20.3218 41.6551C20.3218 37.9393 17.2951 34.918 13.5767 34.918C9.85829 34.918 6.83957 37.9393 6.83957 41.6551C6.83957 42.7152 7.08075 43.7356 7.55516 44.6844C8.28665 46.1474 9.49255 47.2499 10.937 47.8621C9.63036 48.1802 8.3264 48.7288 7.02775 49.5186C2.51159 52.2643 0.5 56.6241 0.5 63.6581C0.5 64.3074 1.02476 64.8322 1.67409 64.8322C2.32342 64.8322 2.84819 64.3074 2.84819 63.6581C2.84819 55.8608 5.57537 53.1495 8.24424 51.5275C11.8937 49.3092 15.2941 49.3092 18.9436 51.5275C19.4975 51.8641 20.2211 51.6892 20.5576 51.1353C20.8942 50.5814 20.7193 49.8578 20.1654 49.5213H20.1627ZM9.65157 43.6349C9.34148 43.0147 9.18511 42.3495 9.18511 41.6551C9.18511 39.2353 11.1543 37.2662 13.574 37.2662C15.9938 37.2662 17.9709 39.2353 17.9709 41.6551C17.9709 42.3495 17.8146 43.0147 17.5045 43.6296C16.7518 45.1217 15.2464 46.0493 13.574 46.0493C11.9017 46.0493 10.3963 45.1217 9.65157 43.6322V43.6349Z" fill="url(#paint0_linear_237_90061)"/>
<path d="M57.9748 49.5213C56.6761 48.7315 55.3722 48.1829 54.0656 47.8648C55.51 47.2526 56.7159 46.1501 57.4474 44.6871C57.9218 43.7383 58.163 42.7179 58.163 41.6578C58.163 37.942 55.1416 34.9207 51.4258 34.9207C47.7101 34.9207 44.6808 37.942 44.6808 41.6578C44.6808 42.7179 44.9219 43.7383 45.399 44.6897C46.1331 46.1448 47.3337 47.2473 48.7702 47.8595C47.4556 48.1776 46.1437 48.7288 44.8398 49.5239C44.2859 49.8605 44.1109 50.5841 44.4475 51.138C44.7841 51.6919 45.5077 51.8695 46.0616 51.5302C49.7111 49.3093 53.1114 49.3119 56.7609 51.5302C59.4298 53.1522 62.157 55.8635 62.157 63.6608C62.157 64.3101 62.6818 64.8349 63.3311 64.8349C63.9804 64.8349 64.5052 64.3101 64.5052 63.6608C64.5052 56.6268 62.4936 52.267 57.9827 49.5239L57.9748 49.5213ZM47.4928 43.6349C47.1827 43.0147 47.0263 42.3495 47.0263 41.6551C47.0263 39.2354 48.9981 37.2662 51.4232 37.2662C53.8482 37.2662 55.8121 39.2354 55.8121 41.6551C55.8121 42.3495 55.6558 43.0147 55.3457 43.6349C54.6009 45.1271 53.0982 46.052 51.4232 46.052C49.7482 46.052 48.2454 45.1244 47.4928 43.6349Z" fill="url(#paint1_linear_237_90061)"/>
<path d="M39.0862 49.5212C37.7795 48.7262 36.4676 48.1749 35.1557 47.8568C36.5922 47.2446 37.7955 46.1421 38.5296 44.6844C39.004 43.7356 39.2452 42.7152 39.2452 41.6551C39.2452 37.9393 36.2185 34.918 32.5001 34.918C28.7817 34.918 25.763 37.9393 25.763 41.6551C25.763 42.7152 26.0042 43.7356 26.4786 44.6844C27.2101 46.1474 28.416 47.2499 29.8604 47.8621C28.5538 48.1802 27.2498 48.7288 25.9512 49.5186C21.4403 52.2617 19.4287 56.6215 19.4287 63.6554C19.4287 64.3047 19.9535 64.8295 20.6028 64.8295C21.2521 64.8295 21.7769 64.3047 21.7769 63.6554C21.7769 55.8582 24.5041 53.1469 27.173 51.5249C30.8224 49.3066 34.2228 49.3066 37.8723 51.5249C40.5412 53.1469 43.2684 55.8582 43.2684 63.6554C43.2684 64.3047 43.7931 64.8295 44.4425 64.8295C45.0918 64.8295 45.6166 64.3047 45.6166 63.6554C45.6166 56.6215 43.605 52.2617 39.0915 49.5186L39.0862 49.5212ZM28.575 43.6349C28.2649 43.0147 28.1085 42.3495 28.1085 41.6551C28.1085 39.2353 30.0777 37.2662 32.4975 37.2662C34.9172 37.2662 36.8943 39.2353 36.8943 41.6551C36.8943 42.3495 36.738 43.0147 36.4279 43.6296C35.6752 45.1217 34.1698 46.0493 32.4975 46.0493C30.8251 46.0493 29.3197 45.1217 28.575 43.6322V43.6349Z" fill="url(#paint2_linear_237_90061)"/>
<path d="M32.044 23.1983C27.9466 23.1983 24.6099 19.8642 24.6099 15.7668C24.6099 11.6694 27.944 8.33533 32.044 8.33533C36.1441 8.33533 39.4755 11.6694 39.4755 15.7668C39.4755 19.8642 36.1414 23.1983 32.044 23.1983ZM32.044 10.6809C29.24 10.6809 26.9607 12.9628 26.9607 15.7642C26.9607 18.5656 29.2426 20.8475 32.044 20.8475C34.8454 20.8475 37.1273 18.5656 37.1273 15.7642C37.1273 12.9628 34.8481 10.6809 32.044 10.6809Z" fill="url(#paint3_linear_237_90061)"/>
<path d="M45.0466 11.1579H43.4166C43.3954 11.1022 43.3716 11.0466 43.3477 10.9936L44.5033 9.83804C45.5872 8.75405 45.5872 6.99159 44.5033 5.90761L41.9165 3.32089C40.867 2.27136 39.0356 2.27136 37.9861 3.32089L36.8359 4.47113C36.7776 4.44728 36.7219 4.42077 36.6663 4.39957V2.78022C36.6663 1.24834 35.4206 0.00268555 33.8887 0.00268555H30.2313C28.6994 0.00268555 27.4537 1.24834 27.4537 2.78022V4.38897C27.3928 4.41282 27.3345 4.43668 27.2735 4.46318L26.1339 3.32354C25.0499 2.23956 23.2874 2.23956 22.2034 3.32354L19.6167 5.91026C18.5327 6.99424 18.5327 8.7567 19.6167 9.84069L20.7511 10.9724C20.7246 11.036 20.6981 11.0969 20.6715 11.1605H19.0708C17.5389 11.1605 16.2932 12.4062 16.2932 13.9381V17.5982C16.2932 19.1301 17.5389 20.3757 19.0708 20.3757H20.6742C20.6981 20.4367 20.7246 20.4976 20.7484 20.5586L19.6167 21.6903C18.5327 22.7743 18.5327 24.5367 19.6167 25.6207L22.2034 28.2074C22.7441 28.7481 23.457 29.0184 24.1673 29.0184C24.8776 29.0184 25.5905 28.7481 26.1312 28.2074L27.2709 27.0678C27.3292 27.0943 27.3901 27.1181 27.4511 27.142V28.756C27.4511 30.2879 28.6967 31.5336 30.2286 31.5336H33.8861C35.4179 31.5336 36.6636 30.2879 36.6636 28.756V27.1314C36.7219 27.1075 36.7776 27.0837 36.8332 27.0598L37.9835 28.2101C38.5268 28.7507 39.2371 29.0211 39.9473 29.0211C40.6576 29.0211 41.3706 28.7507 41.9112 28.2074L44.498 25.6207C45.5819 24.5367 45.5819 22.7743 44.498 21.6903L43.3451 20.5347C43.3689 20.4817 43.3901 20.4261 43.414 20.3731H45.0439C46.5758 20.3731 47.8215 19.1274 47.8215 17.5955V13.9354C47.8215 12.4036 46.5758 11.1579 45.0439 11.1579H45.0466ZM45.4759 17.5982C45.4759 17.8367 45.2825 18.0275 45.0466 18.0275H42.5977C42.5791 18.0275 42.5606 18.0328 42.542 18.0328C42.5023 18.0328 42.4652 18.0381 42.4281 18.0434C42.3883 18.0487 42.3485 18.0567 42.3088 18.0673C42.277 18.0752 42.2452 18.0858 42.2134 18.0964C42.1736 18.1097 42.1339 18.1256 42.0941 18.1441C42.065 18.1574 42.0358 18.1733 42.0093 18.1892C41.9722 18.2104 41.9377 18.2316 41.9033 18.2581C41.8768 18.2793 41.8503 18.3005 41.8238 18.3244C41.7946 18.3509 41.7655 18.3774 41.739 18.4065C41.7151 18.433 41.6913 18.4622 41.6701 18.4887C41.6462 18.5205 41.6224 18.5523 41.6012 18.5868C41.5826 18.6159 41.5667 18.6477 41.5508 18.6795C41.5322 18.7193 41.5137 18.7564 41.5004 18.7988C41.4951 18.8147 41.4872 18.8279 41.4819 18.8438C41.3335 19.3156 41.1373 19.7874 40.8988 20.2512C40.8909 20.2671 40.8882 20.283 40.8803 20.2989C40.8617 20.336 40.8485 20.3757 40.8352 20.4128C40.822 20.4473 40.8114 20.4844 40.8034 20.5188C40.7955 20.5559 40.7902 20.593 40.7849 20.6275C40.7796 20.6673 40.7743 20.7044 40.7743 20.7441C40.7743 20.7812 40.7743 20.8157 40.7743 20.8528C40.7743 20.8925 40.7796 20.9296 40.7849 20.9667C40.7902 21.0038 40.8008 21.041 40.8087 21.0781C40.8167 21.1152 40.8273 21.1496 40.8405 21.1841C40.8538 21.2212 40.8697 21.2556 40.8856 21.2901C40.9015 21.3245 40.92 21.359 40.9386 21.3908C40.9571 21.4226 40.9783 21.4518 40.9995 21.4809C41.026 21.5154 41.0525 21.5498 41.0817 21.5816C41.0923 21.5922 41.1002 21.6055 41.1108 21.6187L42.8442 23.352C43.0111 23.519 43.0111 23.792 42.8442 23.9616L40.2574 26.5483C40.0905 26.7153 39.8175 26.7153 39.6479 26.5483L37.9199 24.8203C37.9199 24.8203 37.896 24.8018 37.8854 24.7912C37.8536 24.7594 37.8165 24.7329 37.782 24.7064C37.7555 24.6851 37.7264 24.6666 37.6999 24.648C37.6654 24.6268 37.6283 24.6083 37.5912 24.5897C37.5594 24.5738 37.5276 24.5606 37.4958 24.5473C37.4587 24.5341 37.4189 24.5235 37.3792 24.5129C37.3447 24.5049 37.3129 24.497 37.2785 24.4917C37.2361 24.4837 37.1963 24.4811 37.1539 24.4811C37.1221 24.4811 37.0877 24.4784 37.0558 24.4811C37.0134 24.4811 36.9737 24.4864 36.9313 24.4943C36.8968 24.4996 36.8624 24.5049 36.8279 24.5129C36.7908 24.5208 36.7537 24.5341 36.7166 24.5447C36.6769 24.5579 36.6397 24.5712 36.6026 24.5897C36.5867 24.5977 36.5708 24.6003 36.5576 24.6083C36.0832 24.8521 35.6061 25.0482 35.145 25.194C35.1291 25.1993 35.1132 25.2073 35.0973 25.2152C35.0575 25.2311 35.0178 25.247 34.9806 25.2656C34.9488 25.2815 34.917 25.2974 34.8879 25.3159C34.8534 25.3371 34.8216 25.3583 34.7925 25.3822C34.7633 25.406 34.7342 25.4272 34.7077 25.4537C34.6785 25.4802 34.6547 25.5067 34.6282 25.5359C34.6043 25.5624 34.5804 25.5916 34.5566 25.6207C34.5327 25.6525 34.5142 25.6843 34.493 25.7188C34.4744 25.7506 34.4559 25.7797 34.4426 25.8142C34.4267 25.8486 34.4135 25.8857 34.4002 25.9228C34.387 25.9573 34.3764 25.9944 34.3658 26.0315C34.3578 26.066 34.3499 26.1031 34.3446 26.1402C34.3393 26.1826 34.334 26.2223 34.3313 26.2674C34.3313 26.2859 34.326 26.3018 34.326 26.3177V28.764C34.326 28.9999 34.1325 29.1933 33.8967 29.1933H30.2392C30.0007 29.1933 29.8099 28.9999 29.8099 28.764V26.331C29.8099 26.3151 29.8046 26.2992 29.8046 26.2833C29.8046 26.2409 29.7993 26.1985 29.7913 26.1561C29.786 26.119 29.7807 26.0845 29.7701 26.0501C29.7622 26.013 29.7489 25.9759 29.7357 25.9414C29.7224 25.9043 29.7092 25.8698 29.6932 25.8354C29.6773 25.8036 29.6588 25.7718 29.6402 25.74C29.6217 25.7055 29.6005 25.6737 29.5793 25.6419C29.5581 25.6128 29.5342 25.5836 29.5077 25.5545C29.4839 25.5253 29.4574 25.4988 29.4309 25.4723C29.4044 25.4458 29.3726 25.4219 29.3434 25.4007C29.3116 25.3769 29.2824 25.3557 29.248 25.3345C29.2162 25.3159 29.1844 25.3 29.1526 25.2841C29.1155 25.2656 29.0757 25.247 29.036 25.2338C29.0201 25.2285 29.0068 25.2205 28.9909 25.2152C28.49 25.0535 28.0103 24.8548 27.565 24.6242C27.5491 24.6162 27.5332 24.6136 27.5173 24.6056C27.4802 24.5871 27.4405 24.5738 27.4007 24.5606C27.3663 24.55 27.3318 24.5367 27.2974 24.5288C27.2603 24.5208 27.2205 24.5129 27.1807 24.5076C27.1436 24.5023 27.1065 24.497 27.0694 24.497C27.0323 24.497 26.9952 24.497 26.9555 24.497C26.9184 24.497 26.8813 24.5023 26.8442 24.5076C26.807 24.5129 26.7699 24.5235 26.7328 24.5314C26.6957 24.542 26.6613 24.55 26.6268 24.5632C26.5924 24.5765 26.5579 24.5924 26.5235 24.6083C26.4864 24.6242 26.4519 24.6427 26.4174 24.6639C26.3883 24.6825 26.3591 24.701 26.3326 24.7223C26.2955 24.7488 26.2637 24.7753 26.2293 24.8071C26.2187 24.8177 26.2054 24.8256 26.1922 24.8362L24.4721 26.5563C24.3051 26.7232 24.0322 26.7232 23.8625 26.5563L21.2758 23.9696C21.1089 23.8026 21.1089 23.5296 21.2758 23.36L22.9879 21.6479C22.9879 21.6479 23.0065 21.624 23.0171 21.6108C23.0462 21.579 23.0727 21.5445 23.0992 21.5101C23.1204 21.4809 23.1416 21.4518 23.1576 21.4226C23.1788 21.3881 23.1947 21.3537 23.2106 21.3192C23.2265 21.2848 23.2424 21.2503 23.2556 21.2159C23.2689 21.1814 23.2768 21.1443 23.2874 21.1099C23.298 21.0728 23.306 21.0357 23.3113 20.9985C23.3166 20.9614 23.3192 20.9217 23.3219 20.8846C23.3219 20.8475 23.3245 20.813 23.3219 20.7759C23.3219 20.7362 23.3166 20.6991 23.3113 20.6593C23.306 20.6222 23.3007 20.5851 23.2927 20.548C23.2848 20.5109 23.2742 20.4764 23.2609 20.4393C23.2477 20.3996 23.2344 20.3625 23.2159 20.3254C23.2079 20.3095 23.2053 20.2936 23.1973 20.2777C22.9641 19.8271 22.7653 19.3474 22.6063 18.8491C22.601 18.8332 22.593 18.82 22.5877 18.8067C22.5718 18.7643 22.5559 18.7272 22.5347 18.6875C22.5188 18.6557 22.5029 18.6239 22.4844 18.5947C22.4632 18.5603 22.442 18.5284 22.4181 18.4993C22.3943 18.4701 22.3731 18.441 22.3466 18.4118C22.32 18.3853 22.2935 18.3588 22.2644 18.335C22.2352 18.3111 22.2087 18.2846 22.1769 18.2634C22.1451 18.2396 22.1133 18.221 22.0815 18.2025C22.0497 18.1839 22.0179 18.1654 21.9861 18.1495C21.9517 18.1335 21.9172 18.1203 21.8801 18.107C21.843 18.0938 21.8085 18.0832 21.7714 18.0726C21.737 18.0646 21.6999 18.0567 21.6654 18.0514C21.623 18.0461 21.5806 18.0408 21.5382 18.0381C21.5223 18.0381 21.5064 18.0328 21.4905 18.0328H19.0681C18.8322 18.0328 18.6387 17.8394 18.6387 17.6035V13.9434C18.6387 13.7049 18.8322 13.514 19.0681 13.514H21.4905C21.4905 13.514 21.4958 13.514 21.4984 13.514C21.6098 13.514 21.7158 13.4928 21.8165 13.4637C21.8377 13.4584 21.8615 13.4504 21.8827 13.4425C21.9835 13.4054 22.0815 13.3577 22.1663 13.2967C22.1796 13.2888 22.1902 13.2782 22.2008 13.2676C22.2803 13.2066 22.3519 13.135 22.4128 13.0555C22.4234 13.0423 22.434 13.0317 22.4446 13.0184C22.5082 12.9283 22.5559 12.8276 22.593 12.7216C22.5957 12.711 22.6036 12.703 22.6089 12.6924C22.7574 12.2207 22.9561 11.741 23.2 11.2639C23.2079 11.2507 23.2106 11.2348 23.2159 11.2215C23.2344 11.1818 23.2503 11.142 23.2636 11.1022C23.2742 11.0678 23.2848 11.0333 23.2927 10.9989C23.3007 10.9618 23.3086 10.922 23.3113 10.8849C23.3166 10.8478 23.3219 10.8081 23.3219 10.771C23.3219 10.7338 23.3219 10.6967 23.3219 10.6623C23.3219 10.6225 23.3166 10.5854 23.3113 10.5483C23.306 10.5112 23.2954 10.4768 23.2874 10.4397C23.2768 10.4026 23.2689 10.3681 23.2556 10.331C23.2424 10.2965 23.2265 10.2621 23.2106 10.2276C23.1947 10.1932 23.1761 10.1561 23.1549 10.1243C23.1363 10.0951 23.1151 10.066 23.0939 10.0368C23.0674 10.0024 23.0409 9.9679 23.0118 9.9361C23.0012 9.9255 22.9932 9.91224 22.9826 9.89899L21.2705 8.18688C21.1036 8.01991 21.1036 7.74693 21.2705 7.57731L23.8572 4.99059C24.0269 4.82362 24.2998 4.82362 24.4668 4.99059L26.1657 6.68945L26.1869 6.71065C26.2531 6.77691 26.322 6.82992 26.3989 6.87497C26.4201 6.88823 26.4413 6.89618 26.4599 6.90678C26.5261 6.94123 26.5924 6.97039 26.6639 6.99424C26.6878 7.00219 26.7143 7.01014 26.7381 7.01544C26.8282 7.03664 26.9184 7.05255 27.0111 7.05255H27.0164C27.0244 7.05255 27.0297 7.05255 27.0376 7.05255C27.1145 7.05255 27.1913 7.04194 27.2656 7.02604C27.2921 7.02074 27.3159 7.01014 27.3424 7.00219C27.4007 6.98629 27.4564 6.96509 27.512 6.93858C27.5253 6.93328 27.5412 6.93063 27.5544 6.92268C28.0023 6.6921 28.4821 6.49333 28.9803 6.33166C28.9962 6.32636 29.0095 6.31841 29.0227 6.31311C29.0625 6.2972 29.1022 6.2813 29.1393 6.26275C29.1711 6.24685 29.2029 6.23095 29.2347 6.21239C29.2665 6.19119 29.2984 6.16999 29.3302 6.14614C29.3593 6.12228 29.3911 6.09843 29.4176 6.07458C29.4441 6.04807 29.4706 6.02157 29.4945 5.99507C29.5183 5.96591 29.5448 5.93941 29.566 5.90761C29.5899 5.8758 29.6084 5.844 29.627 5.80954C29.6455 5.77774 29.6641 5.74594 29.68 5.71413C29.6959 5.67968 29.7092 5.64257 29.7224 5.60812C29.7357 5.57102 29.7463 5.53656 29.7569 5.49946C29.7648 5.465 29.7701 5.4279 29.7781 5.39344C29.7834 5.35104 29.7887 5.30863 29.7913 5.26623C29.7913 5.25033 29.7966 5.23442 29.7966 5.21852V2.77757C29.7966 2.5417 29.9901 2.34822 30.226 2.34822H33.8834C34.1219 2.34822 34.3128 2.5417 34.3128 2.77757V5.21852C34.3128 5.23707 34.3181 5.25298 34.3181 5.26888C34.3181 5.31128 34.3234 5.35369 34.3313 5.39609C34.3366 5.4332 34.3446 5.46765 34.3525 5.50476C34.3631 5.54186 34.3737 5.57632 34.387 5.61342C34.4002 5.65053 34.4135 5.68498 34.4294 5.72208C34.4453 5.75389 34.4638 5.78569 34.4797 5.8175C34.4983 5.85195 34.5195 5.88375 34.5433 5.91556C34.5645 5.94471 34.5884 5.97386 34.6149 6.00037C34.6388 6.02952 34.6653 6.05602 34.6944 6.08253C34.7209 6.10903 34.7501 6.13023 34.7819 6.15409C34.8137 6.17794 34.8428 6.19914 34.8773 6.22034C34.9091 6.2389 34.9409 6.2548 34.9727 6.2707C35.0098 6.28925 35.0496 6.30515 35.0893 6.32106C35.1052 6.32636 35.1211 6.33696 35.137 6.34226C35.6008 6.48803 36.0752 6.6868 36.5496 6.92798C36.5629 6.93328 36.5761 6.93593 36.5894 6.94388C36.645 6.97039 36.7007 6.98894 36.759 7.00484C36.7855 7.01279 36.812 7.02339 36.8385 7.02869C36.9127 7.0446 36.9869 7.05255 37.0611 7.0552C37.0691 7.0552 37.077 7.05785 37.085 7.05785C37.085 7.05785 37.0877 7.05785 37.0903 7.05785C37.1831 7.05785 37.2758 7.04194 37.3659 7.02074C37.3898 7.01544 37.4163 7.00749 37.4401 6.99954C37.5117 6.97569 37.5806 6.94653 37.6469 6.90943C37.6654 6.89883 37.6866 6.89088 37.7052 6.87762C37.7794 6.82992 37.8509 6.77691 37.9172 6.7133L39.6452 4.98529C39.7565 4.87663 39.8837 4.85808 39.95 4.85808C40.0163 4.85808 40.1435 4.87398 40.2548 4.98529L42.8415 7.57201C43.0085 7.73898 43.0085 8.01196 42.8415 8.18158L41.1082 9.9149C41.1082 9.9149 41.0896 9.93875 41.079 9.952C41.0499 9.9838 41.0234 10.0156 40.9969 10.0527C40.9757 10.0819 40.9545 10.111 40.9359 10.1428C40.9147 10.1746 40.8988 10.2091 40.8829 10.2435C40.867 10.278 40.8511 10.3124 40.8379 10.3495C40.8246 10.384 40.8167 10.4211 40.8061 10.4556C40.7955 10.4927 40.7875 10.5298 40.7822 10.5669C40.7769 10.604 40.7743 10.6437 40.7716 10.6808C40.7716 10.7179 40.769 10.7524 40.7716 10.7895C40.7716 10.8293 40.7769 10.8664 40.7822 10.9061C40.7875 10.9432 40.7928 10.9803 40.8008 11.0148C40.8087 11.0519 40.8193 11.0863 40.8326 11.1234C40.8458 11.1632 40.8591 11.2003 40.8776 11.2374C40.8856 11.2533 40.8882 11.2692 40.8962 11.2851C41.132 11.7436 41.3282 12.218 41.4792 12.6951C41.4819 12.7057 41.4898 12.7136 41.4925 12.7242C41.5296 12.8303 41.5773 12.931 41.6436 13.0211C41.6542 13.0343 41.6648 13.0476 41.678 13.0608C41.739 13.1403 41.8105 13.2092 41.89 13.2702C41.9033 13.2782 41.9112 13.2888 41.9245 13.2994C42.012 13.3603 42.1074 13.408 42.2081 13.4425C42.2293 13.4504 42.2531 13.4557 42.2743 13.4637C42.375 13.4928 42.4811 13.514 42.5924 13.514C42.5924 13.514 42.5977 13.514 42.6003 13.514H45.0466C45.2825 13.514 45.4759 13.7075 45.4759 13.9434V17.6035V17.5982Z" fill="url(#paint4_linear_237_90061)"/>
</g>
<defs>
<linearGradient id="paint0_linear_237_90061" x1="10.6144" y1="34.918" x2="10.6144" y2="64.8322" gradientUnits="userSpaceOnUse">
<stop stop-color="#0082CB"/>
<stop offset="1" stop-color="#0082CB" stop-opacity="0"/>
</linearGradient>
<linearGradient id="paint1_linear_237_90061" x1="54.3908" y1="34.9207" x2="54.3908" y2="64.8349" gradientUnits="userSpaceOnUse">
<stop stop-color="#0082CB"/>
<stop offset="1" stop-color="#0082CB" stop-opacity="0"/>
</linearGradient>
<linearGradient id="paint2_linear_237_90061" x1="32.5226" y1="34.918" x2="32.5226" y2="64.8295" gradientUnits="userSpaceOnUse">
<stop stop-color="#0082CB"/>
<stop offset="1" stop-color="#0082CB" stop-opacity="0"/>
</linearGradient>
<linearGradient id="paint3_linear_237_90061" x1="32.0427" y1="8.33533" x2="32.0427" y2="23.1983" gradientUnits="userSpaceOnUse">
<stop stop-color="#0082CB"/>
<stop offset="1" stop-color="#0082CB" stop-opacity="0"/>
</linearGradient>
<linearGradient id="paint4_linear_237_90061" x1="32.0573" y1="0.00268555" x2="32.0573" y2="31.5336" gradientUnits="userSpaceOnUse">
<stop stop-color="#0082CB"/>
<stop offset="1" stop-color="#0082CB" stop-opacity="0"/>
</linearGradient>
<clipPath id="clip0_237_90061">
<rect width="64" height="64.8322" fill="white" transform="translate(0.5)"/>
</clipPath>
</defs>
</svg>
